<svg width="25" height="26" viewBox="0 0 25 26" fill="none" xmlns="http://www.w3.org/2000/svg">
<path d="M12.5 0.5C5.6125 0.5 0 6.1125 0 13C0 19.8875 5.6125 25.5 12.5 25.5C19.3875 25.5 25 19.8875 25 13C25 6.1125 19.3875 0.5 12.5 0.5ZM18.475 10.125L11.3875 17.2125C11.2125 17.3875 10.975 17.4875 10.725 17.4875C10.475 17.4875 10.2375 17.3875 10.0625 17.2125L6.525 13.675C6.1625 13.3125 6.1625 12.7125 6.525 12.35C6.8875 11.9875 7.4875 11.9875 7.85 12.35L10.725 15.225L17.15 8.8C17.5125 8.4375 18.1125 8.4375 18.475 8.8C18.8375 9.1625 18.8375 9.75 18.475 10.125Z" fill="#B9E5FB"/>
</svg>
