<svg width="25" height="26" viewBox="0 0 25 26" fill="none" xmlns="http://www.w3.org/2000/svg">
<path d="M12.5 0.5C5.6125 0.5 0 6.1125 0 13C0 19.8875 5.6125 25.5 12.5 25.5C19.3875 25.5 25 19.8875 25 13C25 6.1125 19.3875 0.5 12.5 0.5ZM16.7 15.875C17.0625 16.2375 17.0625 16.8375 16.7 17.2C16.5125 17.3875 16.275 17.475 16.0375 17.475C15.8 17.475 15.5625 17.3875 15.375 17.2L12.5 14.325L9.625 17.2C9.4375 17.3875 9.2 17.475 8.9625 17.475C8.725 17.475 8.4875 17.3875 8.3 17.2C7.9375 16.8375 7.9375 16.2375 8.3 15.875L11.175 13L8.3 10.125C7.9375 9.7625 7.9375 9.1625 8.3 8.8C8.6625 8.4375 9.2625 8.4375 9.625 8.8L12.5 11.675L15.375 8.8C15.7375 8.4375 16.3375 8.4375 16.7 8.8C17.0625 9.1625 17.0625 9.7625 16.7 10.125L13.825 13L16.7 15.875Z" fill="#D82520"/>
</svg>
