<svg width="22" height="22" viewBox="0 0 22 22" fill="none" xmlns="http://www.w3.org/2000/svg">
<path d="M12.7289 2.4325L14.4889 5.9525C14.7289 6.4425 15.3689 6.9125 15.9089 7.0025L19.0989 7.5325C21.1389 7.8725 21.6189 9.3525 20.1489 10.8125L17.6689 13.2925C17.2489 13.7125 17.0189 14.5225 17.1489 15.1025L17.8589 18.1725C18.4189 20.6025 17.1289 21.5425 14.9789 20.2725L11.9889 18.5025C11.4489 18.1825 10.5589 18.1825 10.0089 18.5025L7.01893 20.2725C4.87893 21.5425 3.57893 20.5925 4.13893 18.1725L4.84893 15.1025C4.97893 14.5225 4.74893 13.7125 4.32893 13.2925L1.84893 10.8125C0.388932 9.3525 0.858933 7.8725 2.89893 7.5325L6.08893 7.0025C6.61893 6.9125 7.25893 6.4425 7.49893 5.9525L9.25893 2.4325C10.2189 0.5225 11.7789 0.5225 12.7289 2.4325Z" stroke="black" stroke-width="1.5" stroke-linecap="round" stroke-linejoin="round"/>
</svg>
