<svg width="17" height="17" viewBox="0 0 17 17" fill="none" xmlns="http://www.w3.org/2000/svg">
<path d="M16 2.61295V12.3103C16 13.0816 15.415 13.8046 14.695 13.9011L14.4475 13.9333C12.8125 14.1663 10.2925 15.058 8.8525 15.9096C8.6575 16.0301 8.335 16.0301 8.1325 15.9096L8.1025 15.8936C6.66248 15.05 4.15002 14.1663 2.52252 13.9333L2.30499 13.9011C1.58499 13.8046 1 13.0816 1 12.3103V2.60491C1 1.64883 1.72748 0.925756 2.61998 1.0061C4.19498 1.14268 6.57998 1.99434 7.915 2.88614L8.1025 3.00662C8.32 3.15125 8.68 3.15125 8.8975 3.00662L9.025 2.91826C9.4975 2.60492 10.0975 2.29158 10.75 2.01038V5.28837L12.25 4.2198L13.75 5.28837V1.09452C13.9525 1.05434 14.1475 1.03021 14.3275 1.01414H14.3725C15.265 0.933799 16 1.64884 16 2.61295Z" stroke="#464547" stroke-linecap="round" stroke-linejoin="round"/>
<path d="M8.5 3.27173V15.3231" stroke="#464547" stroke-linecap="round" stroke-linejoin="round"/>
<path d="M13.75 1.09448V5.28834L12.25 4.21977L10.75 5.28834V2.01035C11.7325 1.59257 12.8275 1.25517 13.75 1.09448Z" stroke="#464547" stroke-linecap="round" stroke-linejoin="round"/>
</svg>
