<svg width="20" height="19" viewBox="0 0 20 19" fill="none" xmlns="http://www.w3.org/2000/svg">
<path d="M11.5549 2.216L13.1387 5.204C13.3547 5.61994 13.9306 6.01891 14.4166 6.09531L17.2872 6.54521C19.123 6.83382 19.555 8.09014 18.2321 9.32948L16.0004 11.4347C15.6224 11.7912 15.4154 12.4788 15.5324 12.9711L16.1714 15.5771C16.6753 17.6399 15.5144 18.4378 13.5796 17.3597L10.8889 15.8572C10.403 15.5856 9.60209 15.5856 9.10714 15.8572L6.41644 17.3597C4.49065 18.4378 3.32078 17.6314 3.82473 15.5771L4.46366 12.9711C4.58064 12.4788 4.37367 11.7912 3.99571 11.4347L1.76395 9.32948C0.4501 8.09014 0.873053 6.83382 2.70885 6.54521L5.57953 6.09531C6.05648 6.01891 6.63242 5.61994 6.84839 5.204L8.43222 2.216C9.29612 0.594667 10.7 0.594667 11.5549 2.216Z" stroke="#464547" stroke-linecap="round" stroke-linejoin="round"/>
</svg>
