<svg width="18" height="21" viewBox="0 0 18 21" fill="none" xmlns="http://www.w3.org/2000/svg">
<path d="M17.18 20C17.18 16.3235 13.5541 13.35 9.09 13.35C4.6259 13.35 1 16.3235 1 20M9.09 10.5C10.3389 10.5 11.5366 9.99955 12.4197 9.10876C13.3028 8.21796 13.799 7.00978 13.799 5.75C13.799 4.49022 13.3028 3.28204 12.4197 2.39124C11.5366 1.50044 10.3389 1 9.09 1C7.84111 1 6.64336 1.50044 5.76026 2.39124C4.87716 3.28204 4.38104 4.49022 4.38104 5.75C4.38104 7.00978 4.87716 8.21796 5.76026 9.10876C6.64336 9.99955 7.84111 10.5 9.09 10.5Z" stroke="#0A2647" stroke-opacity="0.25" stroke-width="1.5" stroke-linecap="round" stroke-linejoin="round"/>
</svg>
