<svg width="22" height="21" viewBox="0 0 22 21" fill="none" xmlns="http://www.w3.org/2000/svg">
<path d="M11 3.82759V18.8276M6.75 6.82759H4.5M7.5 9.82759H4.5M21 15.0776V3.00759C21 1.80759 20.02 0.917591 18.83 1.01759H18.77C16.67 1.19759 13.48 2.26759 11.7 3.38759L11.53 3.49759C11.24 3.67759 10.76 3.67759 10.47 3.49759L10.22 3.34759C8.44 2.23759 5.26 1.17759 3.16 1.00759C1.97 0.907591 1 1.80759 1 2.99759V15.0776C1 16.0376 1.78 16.9376 2.74 17.0576L3.03 17.0976C5.2 17.3876 8.55 18.4876 10.47 19.5376L10.51 19.5576C10.78 19.7076 11.21 19.7076 11.47 19.5576C13.39 18.4976 16.75 17.3876 18.93 17.0976L19.26 17.0576C20.22 16.9376 21 16.0376 21 15.0776Z" stroke="#464547" stroke-width="1.5" stroke-linecap="round" stroke-linejoin="round"/>
</svg>
