<svg width="107" height="109" viewBox="0 0 107 109" fill="none" xmlns="http://www.w3.org/2000/svg">
<path d="M15.1072 15.1903L27.2522 39.9074C27.3128 40.0317 27.3483 40.1668 27.3566 40.3048C27.3648 40.4429 27.3457 40.5813 27.3004 40.7119C27.255 40.8426 27.1842 40.963 27.0922 41.0663C27.0001 41.1695 26.8886 41.2535 26.7639 41.3135C26.6397 41.3738 26.5049 41.409 26.367 41.417C26.2292 41.4251 26.0912 41.4059 25.9608 41.3606C25.8304 41.3152 25.7103 41.2446 25.6072 41.1527C25.5041 41.0609 25.4202 40.9496 25.3602 40.8253L13.2226 16.1179C13.162 15.9936 13.1265 15.8585 13.1182 15.7205C13.1099 15.5824 13.129 15.444 13.1744 15.3134C13.2198 15.1827 13.2905 15.0623 13.3826 14.959C13.4747 14.8558 13.5862 14.7718 13.7108 14.7118C13.9598 14.5924 14.2458 14.5756 14.507 14.6651C14.7682 14.7546 14.9838 14.9432 15.1072 15.1903Z" fill="#E0E0E0"/>
<path d="M23.6915 33.1704L26.1936 38.2622L27.4665 37.6367L24.9644 32.5449L23.6915 33.1704Z" fill="#E0E0E0"/>
<path d="M23.4659 30.3721C23.5237 30.4878 23.5579 30.6138 23.5666 30.7429C23.5753 30.872 23.5582 31.0015 23.5165 31.1239C23.4747 31.2463 23.409 31.3592 23.3232 31.456C23.2374 31.5528 23.1332 31.6317 23.0167 31.6879L21.1345 32.6106C21.0188 32.6684 20.8928 32.7027 20.7637 32.7114C20.6346 32.72 20.5051 32.703 20.3827 32.6612C20.2603 32.6194 20.1474 32.5537 20.0506 32.4679C19.9538 32.3821 19.875 32.278 19.8187 32.1615C19.7609 32.0457 19.7267 31.9197 19.718 31.7906C19.7093 31.6616 19.7264 31.5321 19.7682 31.4096C19.81 31.2872 19.8757 31.1743 19.9615 31.0775C20.0473 30.9807 20.1514 30.9019 20.2679 30.8457L22.1501 29.9204C22.266 29.8627 22.3921 29.8286 22.5213 29.8201C22.6505 29.8116 22.7801 29.8289 22.9025 29.8709C23.0249 29.9129 23.1378 29.9789 23.2345 30.0649C23.3312 30.1509 23.4099 30.2554 23.4659 30.3721Z" fill="#E0E0E0"/>
<path d="M27.5109 38.7112L30.1377 37.4198L29.4541 36.0283L28.1383 36.6728L27.7111 35.7989L29.0245 35.1544L27.8991 32.8621L26.9763 33.3162L26.5467 32.4422L27.4694 31.9882L26.7883 30.604L24.1616 31.8954L27.5109 38.7112Z" fill="#E0E0E0"/>
<path d="M11.9875 15.5555L13.0448 17.707L16.7738 15.8746L15.7165 13.7231L11.9875 15.5555Z" fill="#E0E0E0"/>
<path d="M8.00819 8.13029C8.04926 8.21458 8.09574 8.29612 8.14734 8.37441C7.21804 8.94429 6.53484 9.84043 6.23143 10.8875C5.92802 11.9345 6.02624 13.0571 6.50686 14.0355C7.02202 15.0744 7.92696 15.8676 9.02444 16.2421C10.1219 16.6166 11.3229 16.5421 12.3657 16.0349L15.654 14.4164C16.17 14.163 16.6311 13.8104 17.0108 13.3789C17.3906 12.9473 17.6816 12.4451 17.8672 11.9011C18.0529 11.357 18.1296 10.7817 18.0929 10.208C18.0562 9.63431 17.9068 9.07347 17.6534 8.5575C17.1644 7.56382 16.317 6.79242 15.2819 6.39876C14.2468 6.0051 13.1009 6.01844 12.0752 6.4361C12.0435 6.35066 12.0093 6.26522 11.9703 6.19198C11.7113 5.66658 11.2542 5.26557 10.6995 5.07718C10.1449 4.88879 9.53815 4.92845 9.01274 5.18743C8.48734 5.44641 8.08634 5.90349 7.89795 6.45813C7.70956 7.01277 7.74921 7.61953 8.00819 8.14494V8.13029ZM12.7051 7.97161C13.11 7.77247 13.5582 7.6776 14.0091 7.6956C14.4599 7.7136 14.8992 7.84391 15.2869 8.0747C15.6746 8.30549 15.9986 8.62945 16.2294 9.01719C16.4602 9.40493 16.5905 9.84416 16.6085 10.295C16.6265 10.7459 16.5317 11.1941 16.3325 11.599C16.1334 12.0039 15.8363 12.3527 15.4682 12.6137C15.1001 12.8747 14.6726 13.0396 14.2246 13.0935C13.7767 13.1474 13.3223 13.0886 12.9028 12.9224C12.7533 13.4491 12.4477 13.9182 12.0264 14.2679C11.605 14.6175 11.0876 14.8313 10.5423 14.8811C9.99699 14.9309 9.44941 14.8143 8.9717 14.5467C8.49399 14.2791 8.10856 13.873 7.86619 13.382C7.62382 12.891 7.53588 12.3381 7.61396 11.7962C7.69205 11.2542 7.93249 10.7486 8.30361 10.346C8.67473 9.94341 9.15911 9.66269 9.69293 9.54082C10.2268 9.41896 10.785 9.46168 11.294 9.66336C11.3972 9.2981 11.5762 8.95867 11.8193 8.66718C12.0625 8.3757 12.3642 8.13869 12.7051 7.97161ZM10.8693 6.56548C10.9592 6.75235 10.9918 6.96166 10.9629 7.16701C10.9339 7.37236 10.8449 7.56455 10.7068 7.71932C10.5688 7.87409 10.3881 7.98452 10.1873 8.03667C9.98663 8.08881 9.77497 8.08034 9.57907 8.01232C9.38317 7.9443 9.21181 7.81977 9.0866 7.65446C8.96139 7.48915 8.88796 7.29046 8.87556 7.08345C8.86315 6.87645 8.91234 6.67041 9.01692 6.49133C9.12149 6.31226 9.27677 6.16817 9.46315 6.07724C9.71444 5.95609 10.0035 5.93945 10.267 6.03096C10.5306 6.12246 10.7471 6.31467 10.8693 6.56548Z" fill="#E0E0E0"/>
<path d="M92.9762 88.8391L99.318 57.7238C99.4258 57.1953 99.0847 56.6797 98.5563 56.572L98.1305 56.4852C97.602 56.3775 97.0864 56.7185 96.9787 57.247L90.6369 88.3623C90.5291 88.8908 90.8702 89.4065 91.3986 89.5142L91.8244 89.6009C92.3529 89.7086 92.8685 89.3676 92.9762 88.8391Z" fill="#E0E0E0"/>
<path d="M95.4551 65.9972L96.7437 59.675L95.1625 59.3528L93.874 65.6749L95.4551 65.9972Z" fill="#E0E0E0"/>
<path d="M98.1901 69.785L98.2711 69.3879C98.3722 68.8926 98.0525 68.409 97.5571 68.308L94.8231 67.7503C94.3278 67.6492 93.8443 67.9689 93.7432 68.4643L93.6622 68.8613C93.5611 69.3567 93.8808 69.8402 94.3762 69.9413L97.1102 70.499C97.6056 70.6001 98.0891 70.2804 98.1901 69.785Z" fill="#E0E0E0"/>
<path d="M95.8669 58.3531L92.6054 57.6866L92.2515 59.415L93.8822 59.7495L93.6625 60.8333L92.0318 60.5013L91.4508 63.3453L92.5957 63.5797L92.3735 64.6636L91.2286 64.4317L90.8795 66.1503L94.141 66.8143L95.8669 58.3531Z" fill="#E0E0E0"/>
<path d="M93.7399 89.996L94.2844 87.3241L89.6559 86.3807L89.1113 89.0526L93.7399 89.996Z" fill="#E0E0E0"/>
<path d="M92.1514 99.4359C92.1732 99.3312 92.1878 99.2252 92.1953 99.1186C93.4281 99.2513 94.6661 98.9196 95.6673 98.1882C96.6686 97.4569 97.3612 96.3785 97.6099 95.1638C97.8734 93.8699 97.6124 92.5243 96.884 91.4229C96.1557 90.3214 95.0197 89.5544 93.7259 89.2903L89.6394 88.4578C88.9988 88.3274 88.3389 88.3243 87.6972 88.4489C87.0555 88.5735 86.4446 88.8232 85.8994 89.1839C85.3542 89.5445 84.8854 90.009 84.5198 90.5509C84.1541 91.0927 83.8988 91.7013 83.7683 92.3418C83.5159 93.5764 83.7415 94.8608 84.3994 95.9356C85.0573 97.0104 86.0986 97.7955 87.3129 98.1323C87.2809 98.2309 87.254 98.3312 87.2323 98.4326C87.1665 98.7556 87.1648 99.0884 87.2276 99.412C87.2903 99.7356 87.4162 100.044 87.598 100.319C87.7798 100.594 88.014 100.83 88.2872 101.015C88.5603 101.199 88.8672 101.328 89.1902 101.394C89.8425 101.527 90.5209 101.395 91.0763 101.028C91.6316 100.661 92.0183 100.088 92.1514 99.4359ZM87.8158 96.3112C87.3131 96.2088 86.844 95.9825 86.451 95.6529C86.058 95.3232 85.7535 94.9007 85.5652 94.4235C85.3768 93.9464 85.3106 93.4298 85.3725 92.9205C85.4344 92.4113 85.6225 91.9256 85.9197 91.5075C86.2169 91.0894 86.6138 90.7521 87.0743 90.5263C87.5349 90.3004 88.0446 90.1932 88.5571 90.2142C89.0696 90.2352 89.5688 90.3839 90.0093 90.6467C90.4498 90.9096 90.8177 91.2782 91.0797 91.7193C91.5814 91.3518 92.1825 91.1447 92.8041 91.1253C93.4257 91.1059 94.0387 91.2751 94.5623 91.6106C95.0859 91.9461 95.4958 92.4323 95.7379 93.0051C95.98 93.5779 96.0432 94.2106 95.9189 94.82C95.7947 95.4293 95.489 95.9868 95.0419 96.4192C94.5949 96.8515 94.0275 97.1384 93.4143 97.2422C92.8011 97.346 92.1709 97.2617 91.6065 97.0006C91.0421 96.7394 90.5699 96.3136 90.2521 95.779C89.9056 96.0327 89.5098 96.2112 89.0902 96.3028C88.6707 96.3945 88.2365 96.3973 87.8158 96.3112ZM88.4896 98.8549C88.5368 98.6236 88.6517 98.4115 88.8195 98.2454C88.9874 98.0793 89.2007 97.9668 89.4325 97.922C89.6644 97.8771 89.9043 97.9021 90.1219 97.9936C90.3396 98.0851 90.5252 98.2392 90.6553 98.4362C90.7854 98.6332 90.8541 98.8644 90.8528 99.1006C90.8515 99.3367 90.7803 99.5671 90.648 99.7627C90.5157 99.9583 90.3284 100.11 90.1098 100.199C89.8911 100.289 89.651 100.311 89.4197 100.263C89.1096 100.2 88.8374 100.016 88.6629 99.7518C88.4885 99.4876 88.4262 99.165 88.4896 98.8549Z" fill="#E0E0E0"/>
<path d="M90.4779 7.15805L88.2614 7.17004L88.321 18.1992L90.5376 18.1872L90.4779 7.15805Z" fill="#E0E0E0"/>
<path d="M74.7986 7.18672L69.0594 7.21777L69.0924 13.306L74.8316 13.275L74.7986 7.18672Z" fill="#EBEBEB"/>
<path d="M80.5107 7.15584L74.7715 7.18689L74.8044 13.2751L80.5436 13.2441L80.5107 7.15584Z" fill="#F5F5F5"/>
<path d="M69.0675 8.90418C72.8822 8.93673 76.7003 8.91964 80.5216 8.85292C80.5377 8.85292 80.5533 8.84649 80.5647 8.83504C80.5762 8.8236 80.5826 8.80807 80.5826 8.79189C80.5826 8.7757 80.5762 8.76018 80.5647 8.74873C80.5533 8.73729 80.5377 8.73086 80.5216 8.73086C76.7084 8.70889 72.8831 8.73086 69.0699 8.79921C69.0579 8.80181 69.0472 8.80844 69.0395 8.81799C69.0318 8.82753 69.0276 8.83943 69.0276 8.8517C69.0276 8.86396 69.0318 8.87586 69.0395 8.88541C69.0472 8.89496 69.0579 8.90158 69.0699 8.90418H69.0675Z" fill="#E0E0E0"/>
<path d="M75.9101 13.1762L65.4814 13.2327L65.5083 18.1955L75.9369 18.1391L75.9101 13.1762Z" fill="#EBEBEB"/>
<path d="M86.2896 13.1201L75.861 13.1765L75.8878 18.1394L86.3165 18.083L86.2896 13.1201Z" fill="#F5F5F5"/>
<path d="M65.4886 14.6167C72.4167 14.6948 79.3692 14.6167 86.2974 14.5117C86.3135 14.5117 86.3291 14.5052 86.3405 14.4938C86.352 14.4824 86.3584 14.4668 86.3584 14.4507C86.3584 14.4345 86.352 14.4189 86.3405 14.4075C86.3291 14.396 86.3135 14.3896 86.2974 14.3896C79.3692 14.353 72.4167 14.3579 65.4886 14.5117C65.4766 14.5143 65.4659 14.5209 65.4582 14.5305C65.4505 14.54 65.4463 14.5519 65.4463 14.5642C65.4463 14.5764 65.4505 14.5883 65.4582 14.5979C65.4659 14.6074 65.4766 14.6141 65.4886 14.6167Z" fill="#E0E0E0"/>
<path d="M101.992 18.1978H61.5875V19.9749H101.992V18.1978Z" fill="#E0E0E0"/>
<path d="M69.8437 19.0522H68.2032V25.1186H69.8437V19.0522Z" fill="#E0E0E0"/>
<path d="M94.3265 19.0522H92.686V25.1186H94.3265V19.0522Z" fill="#E0E0E0"/>
<path d="M92.6834 2.58782L90.4668 2.60999L90.6185 17.7796L92.8351 17.7574L92.6834 2.58782Z" fill="#EBEBEB"/>
<path d="M96.1052 5.87028L92.6608 5.88892L92.7273 18.1826L96.1718 18.164L96.1052 5.87028Z" fill="#F5F5F5"/>
<path d="M96.0817 8.24255C95.5093 8.30213 94.9334 8.3217 94.3583 8.30114C93.7839 8.32176 93.2088 8.30218 92.6372 8.24255C93.7841 8.16443 94.9349 8.16443 96.0817 8.24255Z" fill="#E0E0E0"/>
<path d="M96.0817 7.72753C95.5092 7.78565 94.9334 7.80522 94.3583 7.78612C93.7839 7.80527 93.2089 7.78569 92.6372 7.72753C93.7839 7.64616 94.935 7.64616 96.0817 7.72753Z" fill="#E0E0E0"/>
<path d="M96.0817 16.3181C94.9349 16.3962 93.7841 16.3962 92.6372 16.3181C93.7839 16.2367 94.935 16.2367 96.0817 16.3181Z" fill="#E0E0E0"/>
<path d="M96.0817 15.8005C94.935 15.8819 93.7839 15.8819 92.6372 15.8005C93.7841 15.7224 94.9349 15.7224 96.0817 15.8005Z" fill="#E0E0E0"/>
<path d="M94.4144 14.6752C94.3802 14.6752 94.3534 13.4351 94.3534 11.9044C94.3534 10.3738 94.3802 9.13367 94.4144 9.13367C94.4486 9.13367 94.473 10.3738 94.473 11.9044C94.473 13.4351 94.4462 14.6752 94.4144 14.6752Z" fill="#E0E0E0"/>
<path d="M99.868 8.89197H96.1183V18.171H99.868V8.89197Z" fill="#EBEBEB"/>
<path d="M92.1367 5.64033C92.1367 5.76634 92.0994 5.88953 92.0294 5.99431C91.9593 6.09909 91.8598 6.18075 91.7434 6.22898C91.627 6.2772 91.4989 6.28982 91.3753 6.26524C91.2517 6.24065 91.1382 6.17997 91.049 6.09086C90.9599 6.00175 90.8993 5.88822 90.8747 5.76463C90.8501 5.64103 90.8627 5.51292 90.9109 5.3965C90.9592 5.28007 91.0408 5.18056 91.1456 5.11055C91.2504 5.04054 91.3736 5.00317 91.4996 5.00317C91.6686 5.00317 91.8306 5.0703 91.9501 5.18979C92.0696 5.30928 92.1367 5.47134 92.1367 5.64033Z" fill="#E0E0E0"/>
<path d="M91.6949 7.39307H91.3019V16.4157H91.6949V7.39307Z" fill="#E0E0E0"/>
<path d="M19.7284 61.9905L16.921 73.303H18.0562L20.971 61.9905H19.7284Z" fill="#EBEBEB"/>
<path d="M27.8673 61.9905L30.6747 73.303H29.5371L26.6223 61.9905H27.8673Z" fill="#EBEBEB"/>
<path d="M24.3228 58.9146H22.9996V73.3005H24.3228V58.9146Z" fill="#EBEBEB"/>
<path d="M32.9695 47.3774H14.287V59.3466H32.9695V47.3774Z" fill="#E0E0E0"/>
<path d="M28.3239 61.8074H18.9473V62.9621H28.3239V61.8074Z" fill="#EBEBEB"/>
<path d="M15.5295 57.7843C15.5409 57.857 15.545 57.9306 15.5417 58.004H15.5173C15.4978 57.4181 15.4832 55.4798 15.4832 53.1802C15.4832 51.7936 15.4832 50.5389 15.4978 49.6161C15.4978 49.1693 15.4978 48.8032 15.5124 48.5346C15.5124 48.4158 15.5124 48.3182 15.5124 48.2417C15.5082 48.2076 15.5082 48.1732 15.5124 48.1392C15.5167 48.1732 15.5167 48.2076 15.5124 48.2417C15.5124 48.3182 15.5124 48.4158 15.5124 48.5346C15.5124 48.8032 15.5124 49.1693 15.5271 49.6161C15.5271 50.5389 15.5271 51.7936 15.5417 53.1802C15.5417 55.4798 15.5271 57.4181 15.5076 58.004H15.4832C15.4911 57.9294 15.5066 57.8558 15.5295 57.7843Z" fill="#F5F5F5"/>
<path d="M16.921 57.7843C16.9251 57.8575 16.9251 57.9309 16.921 58.004H16.9088C16.8917 57.4181 16.8771 55.4798 16.8771 53.1802C16.8771 51.7936 16.8771 50.5389 16.8771 49.6161C16.8771 49.1693 16.8771 48.8032 16.8917 48.5346C16.8917 48.415 16.8917 48.3174 16.8917 48.2417C16.8859 48.2078 16.8859 48.1731 16.8917 48.1392C16.8949 48.1733 16.8949 48.2076 16.8917 48.2417C16.8917 48.3174 16.8917 48.415 16.8917 48.5346C16.8917 48.8032 16.8917 49.1693 16.9064 49.6161C16.9064 50.5389 16.9064 51.7936 16.9064 53.1802C16.9064 55.4798 16.9064 57.4181 16.8746 58.004H16.9088C16.906 57.9306 16.9101 57.857 16.921 57.7843Z" fill="#F5F5F5"/>
<path d="M18.3101 57.7843C18.3215 57.857 18.3256 57.9306 18.3223 58.004H18.2978C18.2783 57.4181 18.2637 55.4798 18.2637 53.1802C18.2637 51.7936 18.2637 50.5389 18.2783 49.6161C18.2783 49.1693 18.2783 48.8032 18.293 48.5346C18.293 48.4158 18.293 48.3182 18.293 48.2417C18.2903 48.2076 18.2903 48.1733 18.293 48.1392C18.2988 48.1731 18.2988 48.2078 18.293 48.2417C18.293 48.3174 18.293 48.415 18.293 48.5346C18.293 48.8032 18.293 49.1693 18.3076 49.6161C18.3076 50.5389 18.3076 51.7936 18.3198 53.1802C18.3198 55.4798 18.3052 57.4181 18.2856 58.004H18.2612C18.2716 57.9296 18.288 57.8561 18.3101 57.7843Z" fill="#F5F5F5"/>
<path d="M19.7015 57.7843C19.7072 57.8574 19.7072 57.9309 19.7015 58.004H19.6771C19.6576 57.4181 19.6429 55.4798 19.6429 53.1802C19.6429 51.7936 19.6429 50.5389 19.6429 49.6161C19.6429 49.1693 19.6429 48.8032 19.6576 48.5346C19.6576 48.415 19.6576 48.3174 19.6576 48.2417C19.6533 48.2076 19.6533 48.1732 19.6576 48.1392C19.6603 48.1733 19.6603 48.2076 19.6576 48.2417C19.6576 48.3182 19.6576 48.4158 19.6576 48.5346C19.6576 48.8032 19.6576 49.1693 19.6722 49.6161C19.6722 50.5389 19.6722 51.7936 19.6869 53.1802C19.6869 55.4798 19.6722 57.4181 19.6527 58.004H19.6283C19.6449 57.9284 19.6694 57.8548 19.7015 57.7843Z" fill="#F5F5F5"/>
<path d="M21.0906 57.7843C21.1023 57.8569 21.1072 57.9305 21.1052 58.004H21.0784C21.0588 57.4181 21.0466 55.4798 21.0466 53.1802C21.0466 51.7936 21.0466 50.5389 21.0466 49.6161C21.0466 49.1693 21.0466 48.8032 21.0613 48.5346C21.0613 48.415 21.0613 48.3174 21.0613 48.2417C21.0581 48.2076 21.0581 48.1733 21.0613 48.1392C21.0671 48.1731 21.0671 48.2078 21.0613 48.2417C21.0613 48.3174 21.0613 48.415 21.0613 48.5346C21.0613 48.8032 21.0613 49.1693 21.0759 49.6161C21.0759 50.5389 21.0759 51.7936 21.0759 53.1802C21.0759 55.4798 21.0613 57.4181 21.0442 58.004H21.0173C21.0375 57.9294 21.0619 57.8561 21.0906 57.7843Z" fill="#F5F5F5"/>
<path d="M22.4821 57.7843C22.4894 57.8574 22.4894 57.931 22.4821 58.004H22.4576C22.4381 57.4181 22.4235 55.4798 22.4235 53.1802C22.4235 51.7936 22.4235 50.5389 22.4381 49.6161C22.4381 49.1693 22.4381 48.8032 22.4528 48.5346C22.4528 48.4158 22.4528 48.3182 22.4528 48.2417C22.4485 48.2076 22.4485 48.1732 22.4528 48.1392C22.457 48.1732 22.457 48.2076 22.4528 48.2417C22.4528 48.3182 22.4528 48.4158 22.4528 48.5346C22.4528 48.8032 22.4528 49.1693 22.4674 49.6161C22.4674 50.5389 22.4674 51.7936 22.4821 53.1802C22.4821 55.4798 22.4674 57.4181 22.4479 58.004H22.4235C22.4353 57.929 22.455 57.8553 22.4821 57.7843Z" fill="#F5F5F5"/>
<path d="M23.8737 57.7843C23.8818 57.8573 23.8858 57.9306 23.8859 58.004H23.859C23.8395 57.4181 23.8273 55.4798 23.8273 53.1802C23.8273 51.7936 23.8273 50.5389 23.8273 49.6161C23.8273 49.1693 23.8395 48.8032 23.8419 48.5346C23.8419 48.415 23.8419 48.3174 23.8419 48.2417C23.8361 48.2078 23.8361 48.1731 23.8419 48.1392C23.8451 48.1733 23.8451 48.2076 23.8419 48.2417C23.8419 48.3174 23.8419 48.415 23.8419 48.5346C23.8419 48.8032 23.8419 49.1693 23.8566 49.6161C23.8566 50.5389 23.8566 51.7936 23.8688 53.1802C23.8688 55.4798 23.8566 57.4181 23.837 58.004H23.8102C23.8242 57.9289 23.8455 57.8553 23.8737 57.7843Z" fill="#F5F5F5"/>
<path d="M25.2627 57.7843C25.2741 57.857 25.2782 57.9306 25.2749 58.004H25.2505C25.231 57.4181 25.2163 55.4798 25.2163 53.1802C25.2163 51.7936 25.2163 50.5389 25.231 49.6161C25.231 49.1693 25.231 48.8032 25.2456 48.5346C25.2456 48.4158 25.2456 48.3182 25.2456 48.2417C25.2429 48.2076 25.2429 48.1733 25.2456 48.1392C25.2499 48.1732 25.2499 48.2076 25.2456 48.2417C25.2456 48.3174 25.2456 48.415 25.2456 48.5346C25.2456 48.8032 25.2456 49.1693 25.2456 49.6161C25.2456 50.5389 25.2456 51.7936 25.2603 53.1802C25.2603 55.4798 25.2456 57.4181 25.2261 58.004H25.2017C25.2161 57.9293 25.2365 57.8558 25.2627 57.7843Z" fill="#F5F5F5"/>
<path d="M26.654 57.7843C26.6638 57.8571 26.6679 57.9306 26.6663 58.004H26.6418C26.6223 57.4181 26.6077 55.4798 26.6077 53.1802C26.6077 51.7936 26.6077 50.5389 26.6199 49.6161C26.6199 49.1693 26.6321 48.8032 26.6345 48.5346C26.6345 48.415 26.6345 48.3174 26.6345 48.2417C26.6287 48.2078 26.6287 48.1731 26.6345 48.1392C26.6372 48.1733 26.6372 48.2076 26.6345 48.2417C26.6345 48.3174 26.6345 48.415 26.6345 48.5346C26.6345 48.8032 26.6345 49.1693 26.6492 49.6161C26.6492 50.5389 26.6492 51.7936 26.6638 53.1802C26.6638 55.4798 26.6492 57.4181 26.6296 58.004H26.6052C26.6139 57.9293 26.6303 57.8557 26.654 57.7843Z" fill="#F5F5F5"/>
<path d="M28.0431 57.7843C28.0548 57.8569 28.0597 57.9305 28.0577 58.004H28.0309C28.0113 57.4181 27.9967 55.4798 27.9967 53.1802C27.9967 51.7936 28.0089 50.5389 28.0113 49.6161C28.0113 49.1693 28.0236 48.8032 28.026 48.5346C28.026 48.415 28.026 48.3174 28.026 48.2417C28.0228 48.2076 28.0228 48.1733 28.026 48.1392C28.0318 48.1731 28.0318 48.2078 28.026 48.2417C28.026 48.3174 28.026 48.415 28.026 48.5346C28.026 48.8032 28.026 49.1693 28.0406 49.6161C28.0406 50.5389 28.0406 51.7936 28.0528 53.1802C28.0528 55.4798 28.0382 57.4181 28.0211 58.004H27.9943C28.0064 57.9299 28.0227 57.8566 28.0431 57.7843Z" fill="#F5F5F5"/>
<path d="M29.4346 57.7843C29.4443 57.8571 29.4484 57.9306 29.4468 58.004H29.4224C29.4028 57.4181 29.3882 55.4798 29.3882 53.1802C29.3882 51.7936 29.3882 50.5389 29.4028 49.6161C29.4028 49.1693 29.4028 48.8032 29.4175 48.5346C29.4175 48.4158 29.4175 48.3182 29.4175 48.2417C29.4132 48.2076 29.4132 48.1732 29.4175 48.1392C29.4201 48.1733 29.4201 48.2076 29.4175 48.2417C29.4175 48.3182 29.4175 48.4158 29.4175 48.5346C29.4175 48.8032 29.4175 49.1693 29.4321 49.6161C29.4321 50.5389 29.4321 51.7936 29.4468 53.1802C29.4468 55.4798 29.4321 57.4181 29.4126 58.004H29.3882C29.3961 57.9294 29.4116 57.8558 29.4346 57.7843Z" fill="#F5F5F5"/>
<path d="M30.8236 57.7843C30.8317 57.8573 30.8358 57.9306 30.8358 58.004H30.8236C30.8041 57.4181 30.7919 55.4798 30.7919 53.1802C30.7919 51.7936 30.7919 50.5389 30.8041 49.6161C30.8041 49.1693 30.8041 48.8032 30.8187 48.5346C30.8187 48.415 30.8187 48.3174 30.8187 48.2417C30.8129 48.2078 30.8129 48.1731 30.8187 48.1392C30.8219 48.1733 30.8219 48.2076 30.8187 48.2417C30.8187 48.3174 30.8187 48.415 30.8187 48.5346C30.8187 48.8032 30.8187 49.1693 30.8334 49.6161C30.8334 50.5389 30.8334 51.7936 30.8456 53.1802C30.8456 55.4798 30.8334 57.4181 30.8138 58.004H30.8236C30.8168 57.931 30.8168 57.8574 30.8236 57.7843Z" fill="#F5F5F5"/>
<path d="M32.2151 57.7843C32.2265 57.857 32.2306 57.9306 32.2273 58.004H32.2029C32.1833 57.4181 32.1687 55.4798 32.1687 53.1802C32.1687 51.7936 32.1687 50.5389 32.1834 49.6161C32.1834 49.1693 32.1834 48.8032 32.198 48.5346C32.198 48.4158 32.198 48.3182 32.198 48.2417C32.1953 48.2076 32.1953 48.1733 32.198 48.1392C32.2023 48.1732 32.2023 48.2076 32.198 48.2417C32.198 48.3182 32.198 48.4158 32.198 48.5346C32.198 48.8032 32.198 49.1693 32.2126 49.6161C32.2126 50.5389 32.2126 51.7936 32.2273 53.1802C32.2273 55.4798 32.2126 57.4181 32.1931 58.004H32.1687C32.1783 57.9297 32.1938 57.8562 32.2151 57.7843Z" fill="#F5F5F5"/>
<path d="M55.3674 71.9041H6.66553V94.3655H55.3674V71.9041Z" fill="#F5F5F5"/>
<path d="M54.2079 93.3061H7.78125V73.0881H54.2079V93.3061ZM8.08396 93.0034H53.9052V73.3908H8.08396V93.0034Z" fill="#E0E0E0"/>
<path d="M67.2658 71.9041H55.3674V94.3655H67.2658V71.9041Z" fill="#E0E0E0"/>
<path d="M7.93249 79.345H54.0564C54.0726 79.345 54.0882 79.3385 54.0996 79.3271C54.111 79.3156 54.1175 79.3001 54.1175 79.2839C54.1175 79.2677 54.111 79.2522 54.0996 79.2408C54.0882 79.2293 54.0726 79.2229 54.0564 79.2229H7.93249C7.9163 79.2229 7.90078 79.2293 7.88934 79.2408C7.87789 79.2522 7.87146 79.2677 7.87146 79.2839C7.87146 79.3001 7.87789 79.3156 7.88934 79.3271C7.90078 79.3385 7.9163 79.345 7.93249 79.345Z" fill="#E0E0E0"/>
<path d="M31.1459 79.2838C31.273 77.2516 31.2779 75.2136 31.1606 73.1808C31.1577 73.1664 31.15 73.1535 31.1386 73.1442C31.1273 73.1349 31.113 73.1298 31.0983 73.1298C31.0837 73.1298 31.0694 73.1349 31.0581 73.1442C31.0467 73.1535 31.039 73.1664 31.0361 73.1808C30.9184 75.2136 30.9241 77.2517 31.0532 79.2838C31.0532 79.2961 31.0581 79.3079 31.0668 79.3166C31.0755 79.3253 31.0873 79.3302 31.0996 79.3302C31.1119 79.3302 31.1237 79.3253 31.1324 79.3166C31.1411 79.3079 31.1459 79.2961 31.1459 79.2838Z" fill="#E0E0E0"/>
<path d="M43.5593 76.2324C43.5593 76.3565 43.5225 76.4778 43.4536 76.5809C43.3847 76.6841 43.2867 76.7645 43.172 76.812C43.0574 76.8595 42.9313 76.8719 42.8096 76.8477C42.6879 76.8235 42.5761 76.7637 42.4883 76.676C42.4006 76.5883 42.3408 76.4765 42.3166 76.3548C42.2924 76.2331 42.3048 76.1069 42.3523 75.9923C42.3998 75.8776 42.4802 75.7797 42.5834 75.7107C42.6866 75.6418 42.8079 75.605 42.932 75.605C43.0982 75.6056 43.2574 75.6719 43.3749 75.7894C43.4924 75.907 43.5587 76.0662 43.5593 76.2324Z" fill="#E0E0E0"/>
<path d="M19.3501 76.2324C19.3506 76.357 19.3141 76.4791 19.2452 76.5829C19.1762 76.6868 19.078 76.7679 18.963 76.816C18.848 76.864 18.7212 76.8769 18.5989 76.8528C18.4766 76.8288 18.3641 76.769 18.2758 76.681C18.1875 76.593 18.1272 76.4808 18.1027 76.3586C18.0782 76.2363 18.0906 76.1096 18.1382 75.9944C18.1858 75.8791 18.2665 75.7806 18.3701 75.7113C18.4737 75.642 18.5956 75.605 18.7203 75.605C18.8869 75.605 19.0467 75.671 19.1648 75.7886C19.2828 75.9062 19.3495 76.0658 19.3501 76.2324Z" fill="#E0E0E0"/>
<path d="M31.6243 83.1971C31.6248 83.3218 31.5882 83.4438 31.5193 83.5477C31.4504 83.6516 31.3522 83.7327 31.2372 83.7807C31.1221 83.8288 30.9954 83.8416 30.8731 83.8176C30.7507 83.7935 30.6383 83.7337 30.55 83.6457C30.4616 83.5578 30.4014 83.4455 30.3769 83.3233C30.3524 83.2011 30.3647 83.0743 30.4123 82.9591C30.4599 82.8438 30.5407 82.7453 30.6443 82.676C30.7479 82.6067 30.8698 82.5697 30.9944 82.5697C31.1611 82.5697 31.3209 82.6357 31.4389 82.7533C31.557 82.8709 31.6236 83.0305 31.6243 83.1971Z" fill="#E0E0E0"/>
<path d="M12.4903 94.3656L10.1394 107.929H11.5504L16.0154 94.3656H12.4903Z" fill="#E0E0E0"/>
<path d="M51.9229 94.3656L54.0175 107.929H52.6089L48.3954 94.3656H51.9229Z" fill="#E0E0E0"/>
<path d="M61.3361 94.3656L63.831 107.929H62.42L57.811 94.3656H61.3361Z" fill="#E0E0E0"/>
<path d="M31.5803 89.5539C31.5803 89.6786 31.5433 89.8004 31.474 89.9041C31.4047 90.0077 31.3062 90.0884 31.191 90.136C31.0757 90.1836 30.949 90.196 30.8267 90.1715C30.7045 90.1469 30.5923 90.0867 30.5043 89.9984C30.4163 89.9101 30.3565 89.7976 30.3325 89.6753C30.3085 89.5529 30.3213 89.4262 30.3693 89.3112C30.4174 89.1961 30.4985 89.0979 30.6024 89.029C30.7063 88.9601 30.8283 88.9236 30.9529 88.9241C31.0355 88.9241 31.1173 88.9404 31.1936 88.9721C31.2699 89.0038 31.3392 89.0502 31.3974 89.1087C31.4557 89.1672 31.5019 89.2367 31.5333 89.3131C31.5647 89.3895 31.5807 89.4713 31.5803 89.5539Z" fill="#E0E0E0"/>
<path d="M7.93249 86.2998H54.0564C54.0726 86.2998 54.0882 86.2934 54.0996 86.2819C54.111 86.2705 54.1175 86.255 54.1175 86.2388C54.1175 86.2226 54.111 86.2071 54.0996 86.1956C54.0882 86.1842 54.0726 86.1777 54.0564 86.1777H7.93249C7.9163 86.1777 7.90078 86.1842 7.88934 86.1956C7.87789 86.2071 7.87146 86.2226 7.87146 86.2388C7.87146 86.255 7.87789 86.2705 7.88934 86.2819C7.90078 86.2934 7.9163 86.2998 7.93249 86.2998Z" fill="#E0E0E0"/>
<path d="M106.471 36.9218H94.595V40.0636H106.471V36.9218Z" fill="#F5F5F5"/>
<path d="M101.45 43.3739C101.449 43.3552 101.449 43.3364 101.45 43.3177V43.1566C101.45 43.0077 101.45 42.8026 101.45 42.5365C101.45 41.9946 101.45 41.2158 101.43 40.232L101.467 40.2687L89.5906 40.2931L89.6516 40.232V41.0303C89.6516 41.2964 89.6516 41.5625 89.6516 41.8237V43.369L89.593 43.3104L98.0566 43.3372L100.554 43.3543H101.23H101.406H101.469C101.469 43.3543 101.452 43.3543 101.416 43.3543H101.245H100.583L98.0981 43.3714L89.593 43.3983H89.5344V43.3397C89.5344 42.8352 89.5344 42.3201 89.5344 41.7944V40.2028L89.5955 40.1417L101.472 40.1661H101.508V40.2028C101.508 41.1963 101.494 41.9824 101.489 42.5292C101.489 42.7904 101.489 42.9955 101.489 43.1395C101.489 43.203 101.489 43.2542 101.489 43.2957C101.489 43.3372 101.452 43.3763 101.45 43.3739Z" fill="#E0E0E0"/>
<path d="M82.8724 70.9203C82.8702 70.9017 82.8702 70.8828 82.8724 70.8642V70.7031C82.8724 70.5542 82.8724 70.3491 82.8724 70.083C82.8724 69.5411 82.8602 68.7623 82.8504 67.7785L82.8895 67.8151L71.0131 67.8395C71.0399 67.8127 70.952 67.9006 71.0716 67.7785V70.9155L71.0106 70.8569L79.4742 70.8837L81.974 70.9008H82.6502H82.826H82.8895H82.8333H82.6649H82.0009L79.5157 70.9179L71.0106 70.9447H70.952V67.7834C71.0741 67.6613 70.9862 67.7492 71.0155 67.7224L82.8919 67.7468H82.9285V67.7834C82.9285 68.777 82.9114 69.563 82.9066 70.1099C82.9066 70.3711 82.9066 70.5761 82.9066 70.7202C82.9066 70.7836 82.9066 70.8349 82.9066 70.8764C82.8966 70.8921 82.8851 70.9068 82.8724 70.9203Z" fill="#E0E0E0"/>
<path d="M17.4874 38.179H5.61096V41.3208H17.4874V38.179Z" fill="#F5F5F5"/>
<path d="M12.4659 44.6311C12.4642 44.6116 12.4642 44.592 12.4659 44.5725C12.4659 44.531 12.4659 44.4773 12.4659 44.4114C12.4659 44.2649 12.4659 44.0574 12.4659 43.7938C12.4659 43.2518 12.4659 42.4706 12.4464 41.4868L12.483 41.5234L0.606561 41.5479C0.633414 41.521 0.54553 41.6089 0.665149 41.4868V44.6286L0.606561 44.5676L9.07019 44.5945L11.5675 44.6116H12.2437H12.4195C12.4405 44.6081 12.462 44.6081 12.483 44.6116H12.4268H12.2584H11.5944L9.09704 44.6628L0.591913 44.6897H0.528442V41.4893C0.648061 41.3697 0.562619 41.4575 0.589472 41.4307L12.4659 41.4527H12.5147V41.4893C12.5147 42.4828 12.5001 43.2689 12.4952 43.8182C12.4952 44.0794 12.4952 44.282 12.4952 44.4285C12.4952 44.4919 12.4952 44.5432 12.4952 44.5823C12.4866 44.5992 12.4768 44.6155 12.4659 44.6311Z" fill="#E0E0E0"/>
<path d="M57.2862 6.35556C57.284 6.33691 57.284 6.31807 57.2862 6.29941V6.13829C57.2862 5.98938 57.2862 5.78432 57.2862 5.52067C57.2862 4.97628 57.274 4.19754 57.2667 3.21374L57.3033 3.25036L45.4269 3.27477C45.4537 3.24792 45.3658 3.3358 45.4855 3.21374V6.35556L45.4269 6.29697L53.8905 6.32382L56.3878 6.34091H57.0641H57.2398H57.3033H57.2471H57.0787H56.4147L53.932 6.35556L45.4269 6.38485H45.3658V3.21862L45.4269 3.15759L57.3033 3.18201H57.3399V3.21862C57.3399 4.21219 57.3253 4.99825 57.3204 5.54752C57.3204 5.80629 57.3204 6.01135 57.3204 6.15538V6.31162C57.3104 6.32729 57.2989 6.342 57.2862 6.35556Z" fill="#E0E0E0"/>
<path d="M58.8974 3.21372C58.8939 3.19435 58.8939 3.17451 58.8974 3.15513C58.8974 3.10875 58.8974 3.05504 58.8974 2.98669C58.8974 2.83289 58.8974 2.62295 58.8974 2.35686C58.8974 1.80759 58.8852 1.02885 58.8754 0.0719017L58.9194 0.115843L51.7618 0.142697C51.7056 0.196403 51.8326 0.0694608 51.8204 0.0816667V1.69774C51.8204 2.2226 51.8204 2.73281 51.8204 3.22104L51.7618 3.1649L56.8663 3.19175L58.3555 3.2064H58.7558H58.8998C58.8568 3.20973 58.8135 3.20973 58.7705 3.2064H58.3799L56.9151 3.22349L51.7715 3.25034H51.7154V3.19175C51.7154 2.70351 51.7154 2.1933 51.7154 1.66844V0.074343C51.7008 0.086549 51.8301 -0.0403932 51.7764 0.0133131L58.912 0.0304019H58.956V0.074343C58.956 1.05082 58.9389 1.82956 58.934 2.38616C58.934 2.64736 58.934 2.85487 58.9218 3.00622C58.9096 3.15757 58.8974 3.21616 58.8974 3.21372Z" fill="#E0E0E0"/>
<path d="M102.575 107.929C102.575 107.965 80.6045 107.992 53.5292 107.992C26.4539 107.992 4.47827 107.965 4.47827 107.929C4.47827 107.892 26.4344 107.865 53.5292 107.865C80.624 107.865 102.575 107.895 102.575 107.929Z" fill="#464547"/>
<path d="M41.5649 21.3078L40.5884 19.3402C41.1952 17.6874 41.1619 15.8674 40.4949 14.238C39.828 12.6085 38.5757 11.2874 36.9841 10.5345C35.3926 9.78147 33.577 9.65101 31.8941 10.1687C30.2113 10.6864 28.783 11.8149 27.8899 13.3322C26.9968 14.8496 26.7036 16.6461 27.0679 18.3687C27.4322 20.0913 28.4276 21.6153 29.8585 22.6412C31.2894 23.6671 33.0523 24.1207 34.8006 23.9128C36.549 23.7049 38.1564 22.8506 39.3068 21.5178L41.5649 21.3078Z" fill="white"/>
<path d="M41.5649 21.3079L41.4233 21.3249L40.9985 21.3713L39.3165 21.5471C39.3103 21.5468 39.3043 21.5445 39.2995 21.5405C39.2947 21.5366 39.2912 21.5312 39.2897 21.5251C39.2897 21.5251 39.2897 21.5251 39.2897 21.5105L39.3312 21.5373C38.5682 22.4295 37.595 23.1175 36.4994 23.5391C36.1623 23.6691 35.8153 23.772 35.4619 23.8467C35.0771 23.9244 34.687 23.9725 34.295 23.9907C33.4352 24.0313 32.5754 23.913 31.7586 23.6416C30.8212 23.3292 29.959 22.8252 29.2269 22.1616C28.4948 21.498 27.9087 20.6893 27.506 19.787C27.0551 18.7632 26.8524 17.6474 26.9143 16.5305C26.9763 15.4135 27.3011 14.327 27.8624 13.3593L28.087 12.9858L28.3458 12.6343L28.4752 12.4585L28.6168 12.2974L28.9048 11.9752C29.0025 11.8726 29.1123 11.7799 29.2173 11.6822C29.3175 11.5816 29.4243 11.4878 29.5371 11.4015C29.7564 11.2238 29.9872 11.0607 30.2279 10.9132C31.1287 10.343 32.1477 9.9857 33.2074 9.86853C34.2671 9.75135 35.3395 9.87738 36.3431 10.237C38.0727 10.8464 39.4983 12.1031 40.3198 13.7426C40.4952 14.0943 40.643 14.4591 40.7617 14.8338C40.8645 15.1866 40.946 15.5453 41.0058 15.9079C41.1718 17.0675 41.0442 18.2501 40.6348 19.3476V19.3305C40.9424 19.9725 41.1816 20.4681 41.3427 20.8074C41.4208 20.9685 41.4794 21.0955 41.5209 21.1834C41.5624 21.2712 41.5795 21.3079 41.5795 21.3079C41.5795 21.3079 41.5526 21.2615 41.5111 21.1785L41.3183 20.8001L40.5859 19.35C40.5848 19.3473 40.5842 19.3444 40.5842 19.3415C40.5842 19.3385 40.5848 19.3356 40.5859 19.3329C40.9791 18.2391 41.0957 17.065 40.9253 15.9153C40.8653 15.5575 40.7838 15.2037 40.6811 14.8558C40.5623 14.4859 40.4146 14.1259 40.2393 13.7792C39.6017 12.5212 38.6 11.4843 37.3647 10.8037C36.1294 10.1231 34.7177 9.8304 33.3136 9.96362C32.2384 10.0761 31.2031 10.4327 30.2865 11.006C30.0496 11.1533 29.8229 11.3164 29.6079 11.4942C29.4965 11.5796 29.3905 11.6717 29.2905 11.7701C29.1904 11.8677 29.083 11.9581 28.9854 12.0606L28.7022 12.378L28.5606 12.5366L28.4337 12.7075L28.1895 13.0542L27.9674 13.4228C27.3972 14.3948 27.0752 15.4923 27.03 16.6183C26.9653 18.135 27.3957 19.6315 28.2561 20.8822C29.1166 22.1328 30.3605 23.0696 31.8001 23.5513C32.6059 23.8194 33.4537 23.9393 34.3023 23.9053C34.6891 23.8869 35.0742 23.8412 35.4545 23.7686C35.8094 23.6951 36.1579 23.5939 36.4969 23.4659C37.5831 23.0566 38.5515 22.3859 39.3165 21.5129C39.3215 21.5083 39.328 21.5057 39.3348 21.5057C39.3416 21.5057 39.3482 21.5083 39.3531 21.5129C39.3562 21.5176 39.3578 21.5232 39.3578 21.5288C39.3578 21.5344 39.3562 21.5399 39.3531 21.5446L39.3287 21.5105L40.9961 21.3664L41.4306 21.3298L41.5649 21.3079Z" fill="#464547"/>
<path d="M30.7382 17.3823L31.6487 16.4693L33.4064 18.0317L36.8582 14.7117L37.7029 15.6247L33.277 19.7894L30.7382 17.3823Z" fill="#6F2877"/>
<path d="M37.2587 98.8475L33.0208 102.871C33.0208 102.871 37.2099 107.653 36.6826 108.642L26.454 102.749L32.7767 95.6447L37.2587 98.8475Z" fill="#455A64"/>
<g opacity="0.6">
<path d="M30.1988 100.498C30.0845 100.468 29.9634 100.481 29.858 100.534C29.7525 100.587 29.6698 100.677 29.6251 100.786C29.5901 100.899 29.5997 101.022 29.6518 101.128C29.704 101.235 29.7948 101.318 29.9058 101.359C30.0276 101.391 30.1568 101.377 30.2688 101.32C30.3809 101.263 30.4681 101.167 30.5137 101.049C30.5361 100.928 30.5116 100.802 30.445 100.698C30.3783 100.594 30.2747 100.519 30.1548 100.488" fill="white"/>
</g>
<g opacity="0.6">
<path d="M26.454 102.748L27.096 102.016L36.6167 107.965C36.6896 108.08 36.7327 108.21 36.7421 108.345C36.7515 108.481 36.7268 108.616 36.6704 108.739L26.454 102.748Z" fill="white"/>
</g>
<path d="M33.2088 102.917C33.1771 102.963 32.9183 102.834 32.5814 102.839C32.2445 102.844 31.9858 102.971 31.954 102.922C31.9223 102.873 32.1689 102.639 32.579 102.639C32.9891 102.639 33.2479 102.883 33.2088 102.917Z" fill="#464547"/>
<path d="M33.9827 104.013C33.9657 104.067 33.702 104.013 33.4066 104.118C33.1112 104.223 32.9184 104.409 32.8793 104.377C32.8403 104.345 32.9745 104.05 33.3431 103.928C33.7118 103.806 34.012 103.964 33.9827 104.013Z" fill="#464547"/>
<path d="M33.7899 105.639C33.7411 105.622 33.8265 105.336 34.117 105.151C34.4075 104.965 34.7053 104.999 34.7005 105.053C34.6956 105.107 34.4563 105.163 34.2269 105.319C33.9974 105.475 33.8436 105.663 33.7899 105.639Z" fill="#464547"/>
<path d="M33.8606 101.696C33.8118 101.728 33.6312 101.521 33.3431 101.367C33.055 101.213 32.7865 101.164 32.7865 101.106C32.7865 101.047 33.1039 101.003 33.4383 101.191C33.7727 101.379 33.907 101.667 33.8606 101.696Z" fill="#464547"/>
<path d="M34.5295 100.664C34.5173 100.683 34.3074 100.593 34.0413 100.346C33.8806 100.202 33.7387 100.038 33.619 99.8582C33.5477 99.7522 33.484 99.6412 33.4285 99.5262C33.3921 99.4597 33.3657 99.3881 33.3504 99.3138C33.339 99.2589 33.3469 99.2017 33.3727 99.152C33.3985 99.1022 33.4406 99.0628 33.492 99.0404C33.5379 99.0222 33.5873 99.0149 33.6365 99.0191C33.6856 99.0234 33.7331 99.039 33.7752 99.0648C33.839 99.103 33.8966 99.1508 33.9461 99.2064C34.1902 99.4571 34.3673 99.7652 34.4612 100.102C34.535 100.29 34.5487 100.497 34.5002 100.693C34.4685 100.693 34.4514 100.471 34.3269 100.146C34.2527 99.9579 34.1559 99.7792 34.0388 99.6141C33.9684 99.5188 33.8909 99.429 33.8069 99.3455C33.719 99.2503 33.6287 99.1942 33.5628 99.2235C33.4969 99.2528 33.536 99.243 33.5384 99.2869C33.5495 99.3414 33.5684 99.3941 33.5945 99.4432C33.6461 99.5518 33.7031 99.6577 33.7654 99.7605C33.8721 99.9343 33.9947 100.098 34.1316 100.249C34.3684 100.505 34.5466 100.637 34.5295 100.664Z" fill="#464547"/>
<path d="M34.4221 100.693C34.418 100.491 34.4778 100.293 34.593 100.127C34.7009 99.9368 34.8404 99.7667 35.0055 99.6237C35.1038 99.5376 35.211 99.4623 35.3253 99.3991C35.3936 99.3504 35.4732 99.3201 35.5566 99.3112C35.64 99.3022 35.7243 99.3148 35.8013 99.3479C35.8452 99.3763 35.8801 99.4167 35.9017 99.4643C35.9233 99.5119 35.9309 99.5647 35.9234 99.6164C35.9124 99.6914 35.8911 99.7645 35.8599 99.8337C35.7148 100.163 35.4454 100.421 35.1105 100.551C34.7516 100.688 34.5124 100.62 34.5197 100.6C34.7005 100.552 34.8782 100.492 35.0519 100.422C35.2283 100.334 35.3833 100.208 35.506 100.053C35.5765 99.9634 35.634 99.864 35.6768 99.758C35.7281 99.6433 35.7428 99.531 35.6964 99.5139C35.6487 99.5023 35.5991 99.5013 35.551 99.511C35.5029 99.5207 35.4575 99.5408 35.4181 99.57C35.3144 99.6246 35.2162 99.6892 35.1251 99.7629C34.9677 99.8876 34.8295 100.035 34.715 100.2C34.5173 100.488 34.4538 100.703 34.4221 100.693Z" fill="#464547"/>
<path d="M69.1945 99.1941L70.2052 104.653C70.2052 104.653 76.2495 106.628 76.2886 107.755L64.7881 107.892L63.9386 99.1941H69.1945Z" fill="#455A64"/>
<g opacity="0.6">
<path d="M65.7329 104.484C65.6197 104.517 65.5223 104.59 65.4586 104.689C65.3949 104.788 65.3692 104.907 65.3863 105.024C65.4132 105.139 65.4834 105.24 65.5825 105.305C65.6816 105.37 65.8019 105.394 65.9184 105.373C66.0392 105.339 66.1432 105.262 66.2104 105.156C66.2775 105.05 66.3031 104.923 66.2822 104.799C66.24 104.683 66.1553 104.587 66.0452 104.531C65.9351 104.475 65.8078 104.462 65.689 104.496" fill="white"/>
</g>
<g opacity="0.6">
<path d="M64.7882 107.892L64.6075 107.057L75.9078 107.201C76.0288 107.263 76.1325 107.354 76.2096 107.465C76.2868 107.577 76.3349 107.706 76.3497 107.841L64.7882 107.892Z" fill="white"/>
</g>
<path d="M70.3979 104.596C70.3979 104.655 70.1074 104.672 69.8194 104.841C69.5313 105.009 69.3751 105.256 69.3311 105.234C69.2872 105.212 69.3726 104.877 69.7266 104.67C70.0806 104.462 70.4126 104.545 70.3979 104.596Z" fill="#464547"/>
<path d="M71.621 105.141C71.6332 105.197 71.3769 105.287 71.1791 105.527C70.9814 105.766 70.9155 106.015 70.8569 106.015C70.7983 106.015 70.7715 105.683 71.0278 105.392C71.2841 105.102 71.621 105.085 71.621 105.141Z" fill="#464547"/>
<path d="M72.2851 106.637C72.2338 106.649 72.1606 106.359 72.3168 106.049C72.4731 105.739 72.7441 105.617 72.7685 105.666C72.7929 105.715 72.6196 105.881 72.4951 106.137C72.3706 106.393 72.3437 106.632 72.2851 106.637Z" fill="#464547"/>
<path d="M69.9195 103.325C69.895 103.376 69.6338 103.29 69.3067 103.305C68.9796 103.32 68.7257 103.415 68.6964 103.364C68.6671 103.312 68.9161 103.12 69.3018 103.105C69.6875 103.09 69.9488 103.281 69.9195 103.325Z" fill="#464547"/>
<path d="M42.6489 59.5175C42.4585 59.6468 42.0239 66.1966 42.6489 67.632L41.0597 79.4352C41.0597 79.4352 36.7925 86.2095 35.9332 87.1957C35.0739 88.182 29.5031 97.7905 29.5031 97.7905L35.794 103.215C35.794 103.215 46.7257 88.9339 48.4882 86.3975C51.2395 82.4305 54.5033 67.5197 54.5033 67.5197L54.9281 60.118L42.6489 59.5175Z" fill="#464547"/>
<path d="M51.2395 68.9599C51.4299 69.309 59.9424 82.3865 59.9424 82.3865C59.9424 82.3865 61.2338 89.317 61.5194 92.3734C61.805 95.4298 63.8995 103.29 63.8995 103.29L70.7471 102.753C70.7471 102.753 68.8967 82.5159 67.7493 78.5733C66.6019 74.6308 63.4186 67.007 63.4186 67.007L60.7333 59.8762L52.9923 60.0203L51.2395 68.9599Z" fill="#464547"/>
<path d="M56.0852 62.022C56.0761 62.0938 56.0614 62.1648 56.0413 62.2344L55.8948 62.8349C55.7605 63.3671 55.5677 64.1165 55.3333 65.032C54.8451 66.8897 54.1908 69.4554 53.4194 72.2774C52.648 75.0995 51.8937 77.6481 51.32 79.4765C51.0319 80.392 50.7951 81.1317 50.6242 81.6394L50.4265 82.2253C50.4067 82.2943 50.3806 82.3613 50.3484 82.4255C50.3606 82.355 50.3785 82.2856 50.4021 82.218L50.5779 81.6248C50.7365 81.0999 50.9587 80.3602 51.2345 79.4497C51.7863 77.6139 52.5235 75.0677 53.2974 72.2457C54.0712 69.4237 54.745 66.8751 55.2503 65.0076C55.4944 64.0921 55.7044 63.3451 55.8508 62.8105L56.0193 62.2148C56.037 62.1492 56.059 62.0847 56.0852 62.022Z" fill="#455A64"/>
<path d="M77.1187 31.1458C77.1187 31.1458 77.8388 30.577 78.0707 30.5941C78.3026 30.6112 79.7527 30.8212 79.7527 30.8212C79.7527 30.8212 79.843 31.4315 79.428 31.6316C79.0991 31.7636 78.7496 31.8371 78.3954 31.8489L78.0512 32.093L77.1187 31.1458Z" fill="#FFCAAE"/>
<path d="M58.2238 33.15L69.5656 42.053L75.1803 36.7703L75.3341 35.7425C75.3801 35.4504 75.4621 35.165 75.5782 34.893L77.0259 31.4485L80.4167 36.9461C80.4167 36.9461 72.08 47.8314 70.6153 48.2122C68.6892 48.7151 59.1026 42.2239 59.1026 42.2239L58.2238 33.15Z" fill="#FFCAAE"/>
<path d="M76.9624 34.4829C77.3113 34.8514 77.563 35.3011 77.6947 35.7912C77.8264 36.2813 77.834 36.7965 77.7167 37.2903C77.7272 36.7981 77.6788 36.3063 77.5727 35.8256C77.4234 35.3553 77.2185 34.9046 76.9624 34.4829Z" fill="#FF9A6C"/>
<path d="M50.8855 17.1504L50.6634 28.7705C50.5853 30.7552 50.4803 33.6919 53.6221 33.6724C56.3465 33.4478 57.1374 30.8968 57.2082 29.0341C57.2424 28.1577 57.2717 27.4254 57.2815 27.3253C57.2815 27.3253 60.2622 27.1617 60.5917 24.2323C60.7504 22.814 60.8358 19.8699 60.892 17.2065C60.9123 15.8299 60.415 14.4958 59.4987 13.4682C58.5823 12.4407 57.3136 11.7946 55.9437 11.6577L55.6605 11.6308C52.5895 11.5039 50.927 14.0769 50.8855 17.1504Z" fill="#FFCAAE"/>
<path d="M57.2887 27.3448C55.9336 27.2062 54.6466 26.6818 53.5806 25.8337C53.5806 25.8337 54.2983 28.0699 57.2424 28.0992L57.2887 27.3448Z" fill="#FF935C"/>
<path d="M55.9681 18.7177C55.9022 18.7323 55.619 18.5004 55.1454 18.3661C54.6718 18.2319 54.2812 18.2587 54.2397 18.2099C54.1982 18.1611 54.2959 18.1489 54.4668 18.1342C54.7139 18.118 54.9619 18.1461 55.1991 18.2172C55.4316 18.2819 55.6495 18.3904 55.8412 18.537C55.9681 18.6395 55.9974 18.7103 55.9681 18.7177Z" fill="#464547"/>
<path d="M55.387 19.2962C55.3771 19.3994 55.3275 19.4947 55.2488 19.5621C55.17 19.6295 55.0682 19.6637 54.9647 19.6575C54.9138 19.6566 54.8637 19.6455 54.8172 19.6248C54.7707 19.6042 54.7288 19.5745 54.694 19.5374C54.6592 19.5003 54.6321 19.4566 54.6145 19.4089C54.5968 19.3612 54.5889 19.3104 54.5912 19.2596C54.6011 19.1564 54.6507 19.0611 54.7295 18.9937C54.8082 18.9263 54.9101 18.8921 55.0135 18.8983C55.0644 18.8992 55.1146 18.9103 55.1611 18.931C55.2076 18.9516 55.2494 18.9813 55.2843 19.0184C55.3191 19.0555 55.3461 19.0992 55.3638 19.1469C55.3814 19.1946 55.3893 19.2454 55.387 19.2962Z" fill="#464547"/>
<path d="M57.0569 21.7545C57.3016 21.7032 57.5518 21.6836 57.8015 21.6959C57.9186 21.6959 58.0309 21.6837 58.0578 21.6056C58.0789 21.4874 58.0636 21.3657 58.0138 21.2565C57.9333 20.9684 57.8503 20.6657 57.7697 20.3459C57.4206 19.0496 57.1814 17.9901 57.2327 17.9755C57.2839 17.9608 57.611 19.0032 57.965 20.2971L58.2091 21.2125C58.267 21.3592 58.2722 21.5214 58.2238 21.6715C58.2025 21.7102 58.1729 21.7437 58.137 21.7695C58.101 21.7953 58.0598 21.8127 58.0163 21.8204C57.9506 21.8286 57.8842 21.8286 57.8185 21.8204C57.5629 21.8316 57.3068 21.8094 57.0569 21.7545Z" fill="#464547"/>
<path d="M55.7556 16.4425C55.7044 16.5499 55.3138 16.4571 54.8402 16.4694C54.3666 16.4816 53.9784 16.5743 53.9247 16.4694C53.9028 16.4181 53.9784 16.3204 54.142 16.2252C54.3563 16.1112 54.595 16.0509 54.8377 16.0495C55.0798 16.043 55.3197 16.0967 55.5359 16.2057C55.6995 16.2936 55.7776 16.3912 55.7556 16.4425Z" fill="#464547"/>
<path d="M60.4061 17.4751C60.35 17.5606 59.9691 17.4532 59.5053 17.4263C59.0415 17.3995 58.6509 17.4483 58.6045 17.3531C58.585 17.3091 58.6631 17.231 58.8267 17.1651C59.0481 17.0833 59.2847 17.0508 59.52 17.0699C59.7565 17.0844 59.9876 17.1475 60.1986 17.2554C60.3622 17.3482 60.4281 17.4361 60.4061 17.4751Z" fill="#464547"/>
<path d="M50.9075 19.389C50.8562 19.3621 48.8325 18.6053 48.7446 20.7194C48.6567 22.8335 50.7976 22.4868 50.8049 22.4282C50.8123 22.3697 50.9075 19.389 50.9075 19.389Z" fill="#FFCAAE"/>
<path d="M50.1923 21.5982C50.1923 21.5982 50.1532 21.6226 50.0898 21.6495C50.0012 21.6849 49.9025 21.6849 49.8139 21.6495C49.5942 21.5592 49.4209 21.1954 49.4258 20.8146C49.428 20.6334 49.4705 20.4549 49.5503 20.2922C49.5728 20.2266 49.611 20.1677 49.6617 20.1204C49.7123 20.0731 49.7738 20.0391 49.8408 20.0212C49.8834 20.0115 49.9282 20.0173 49.967 20.0374C50.0059 20.0575 50.0364 20.0906 50.0532 20.1311C50.08 20.1896 50.0532 20.2311 50.0751 20.236C50.0971 20.2409 50.1215 20.2019 50.1093 20.114C50.0997 20.0615 50.072 20.014 50.0312 19.9797C49.9747 19.9326 49.9018 19.9098 49.8286 19.9162C49.7411 19.9301 49.6587 19.9661 49.589 20.0208C49.5194 20.0755 49.4649 20.1471 49.4306 20.2287C49.3335 20.408 49.2815 20.6082 49.2793 20.8122C49.2793 21.2394 49.477 21.647 49.7675 21.7496C49.8237 21.7685 49.8835 21.7743 49.9423 21.7667C50.0011 21.7591 50.0573 21.7382 50.1069 21.7056C50.185 21.6495 50.1996 21.6031 50.1923 21.5982Z" fill="#FF935C"/>
<path d="M57.0959 23.1581C57.0959 23.102 56.6906 23.0849 56.3318 22.7944C56.179 22.6668 56.0444 22.5189 55.9314 22.355C55.8362 22.2281 55.7703 22.1499 55.7508 22.1621C55.7313 22.1743 55.763 22.2671 55.8338 22.4063C55.9275 22.6027 56.0633 22.7761 56.2317 22.914C56.4041 23.0484 56.6102 23.1329 56.8274 23.1581C56.9909 23.1972 57.0934 23.1752 57.0959 23.1581Z" fill="#464547"/>
<path d="M60.3134 18.4833C60.2646 18.5297 59.9033 18.4833 59.4273 18.6151C58.9512 18.747 58.6314 18.9667 58.5728 18.9496C58.5142 18.9325 58.5899 18.8715 58.7291 18.7714C58.9349 18.6308 59.1637 18.5275 59.4053 18.4662C59.6365 18.3989 59.8785 18.3765 60.1181 18.4003C60.2768 18.4198 60.3378 18.4516 60.3134 18.4833Z" fill="#464547"/>
<path d="M59.6787 19.5184C59.6687 19.6216 59.6192 19.7169 59.5404 19.7842C59.4616 19.8516 59.3598 19.8858 59.2563 19.8797C59.2055 19.8787 59.1553 19.8676 59.1088 19.847C59.0623 19.8264 59.0204 19.7966 58.9856 19.7595C58.9508 19.7225 58.9238 19.6788 58.9061 19.6311C58.8885 19.5833 58.8805 19.5326 58.8828 19.4818C58.8928 19.3786 58.9423 19.2833 59.0211 19.2159C59.0999 19.1485 59.2017 19.1143 59.3052 19.1205C59.356 19.1214 59.4062 19.1325 59.4527 19.1531C59.4992 19.1738 59.5411 19.2035 59.5759 19.2406C59.6107 19.2777 59.6377 19.3214 59.6554 19.3691C59.673 19.4168 59.681 19.4676 59.6787 19.5184Z" fill="#464547"/>
<path d="M64.9419 14.697C64.9084 14.5777 64.8307 14.4756 64.7247 14.4114C64.4922 14.3 64.2347 14.2511 63.9776 14.2698C63.3383 14.2397 62.714 14.0653 62.1516 13.7596C62.3536 13.6682 62.5398 13.5455 62.7033 13.3959C62.8763 13.244 63.0046 13.0478 63.0743 12.8284C63.144 12.609 63.1525 12.3747 63.0988 12.1509C63.0903 12.1089 63.0723 12.0694 63.046 12.0355C63.0197 12.0016 62.986 11.9743 62.9475 11.9556C62.8181 11.9116 62.7033 12.0361 62.6057 12.1362C62.4869 12.2889 62.3294 12.407 62.1495 12.4783C61.9696 12.5495 61.774 12.5714 61.5828 12.5415C61.3155 12.5176 61.057 12.4341 60.8261 12.2973L60.8016 12.2681L60.5038 11.9507C59.7715 11.1817 59.1343 10.6447 58.4728 10.3566C57.4963 9.93671 55.868 9.73165 54.8378 9.97333C53.8076 10.215 52.8702 11.0182 52.6993 12.063C52.1378 11.5748 51.2785 11.543 50.573 11.8042H50.556C49.7699 12.0483 49.3061 12.871 49.0571 13.6571C49.0424 13.6986 49.0302 13.7425 49.018 13.7865C48.7443 14.1986 48.376 14.5392 47.9439 14.78C47.8682 14.8215 47.7803 14.8728 47.7681 14.9607C47.7559 15.0486 47.8267 15.1194 47.895 15.1706C48.0792 15.3086 48.2919 15.4037 48.5176 15.4489C48.4425 15.636 48.3519 15.8165 48.2466 15.9884C48.1538 16.1349 48.044 16.3107 48.1172 16.4767C48.1512 16.5342 48.2018 16.5801 48.2623 16.6084C48.3229 16.6368 48.3906 16.6461 48.4565 16.6354C48.5878 16.6097 48.7125 16.5574 48.8227 16.4816L48.5468 17.0967C48.828 17.1513 49.1181 17.1396 49.3939 17.0626C49.5152 17.8035 49.6783 18.537 49.8822 19.2596C50.2069 19.2596 50.5169 19.2011 50.7122 19.3866C50.9783 19.6307 51.0881 20.1019 51.5446 19.9383C51.7888 19.8553 52.0011 19.3793 52.0841 19.1449C52.6336 17.5932 52.8418 15.9411 52.6944 14.3016C53.0263 13.9656 53.4201 13.697 53.854 13.5106L53.8174 13.5399C54.6474 13.2787 55.5824 13.0224 56.3514 13.4276C56.947 13.7425 57.2863 14.3797 57.7233 14.8923C58.1059 15.3596 58.5815 15.7421 59.1198 16.0157C59.6582 16.2893 60.2475 16.4479 60.8505 16.4816C60.9432 17.3726 60.8163 18.4931 60.8505 19.3231L61.6512 18.0097C61.7068 17.9157 61.7573 17.8187 61.8025 17.7192L61.8172 17.6899C61.8953 17.5337 61.9685 17.3775 62.0613 17.2237C62.1554 17.3037 62.2751 17.3474 62.3986 17.3468C62.5221 17.3463 62.6414 17.3016 62.7349 17.2209C62.8283 17.1401 62.8898 17.0285 62.9082 16.9064C62.9266 16.7842 62.9007 16.6595 62.8352 16.5548C62.7675 16.4566 62.6851 16.3693 62.591 16.296C62.6899 16.3967 62.8131 16.47 62.9487 16.5089C63.0843 16.5479 63.2277 16.551 63.3649 16.5182C63.5007 16.4803 63.6204 16.3988 63.7055 16.2864C63.7906 16.1739 63.8364 16.0367 63.8361 15.8957C63.8261 15.804 63.7935 15.7162 63.741 15.6403C63.6886 15.5645 63.618 15.5029 63.5358 15.4611C63.8989 15.5011 64.2656 15.4305 64.5879 15.2585C64.7954 15.1462 65.0005 14.9583 64.9419 14.697Z" fill="#464547"/>
<path d="M53.6025 12.4219C53.4945 12.5003 53.3933 12.5877 53.2998 12.6831C53.0604 12.9579 52.8964 13.2902 52.8238 13.6474C52.7662 13.8915 52.7343 14.1411 52.7286 14.3919C52.7286 14.6629 52.7286 14.9534 52.7457 15.2585C52.7657 15.5837 52.7657 15.9098 52.7457 16.235C52.7318 16.4053 52.7048 16.5742 52.6651 16.7403C52.6351 16.9193 52.5594 17.0875 52.4454 17.2286C52.3926 17.2847 52.3262 17.3261 52.2526 17.3488C52.179 17.3715 52.1007 17.3747 52.0255 17.358C51.8823 17.3264 51.7535 17.2483 51.6593 17.1358C51.505 16.9128 51.4139 16.6521 51.3957 16.3815H51.4567C51.3632 16.6003 51.2382 16.8043 51.0857 16.9869C50.937 17.1562 50.729 17.2619 50.5046 17.2823C50.4008 17.291 50.2966 17.2698 50.2044 17.2213C50.1175 17.1748 50.0475 17.1022 50.0042 17.0138C49.9623 16.9333 49.9429 16.8431 49.9481 16.7526C49.9542 16.6676 49.9895 16.5874 50.0481 16.5255L50.0799 16.5548C49.8987 16.7496 49.6793 16.905 49.4354 17.0113C49.3708 17.0385 49.3048 17.0622 49.2377 17.0821C49.2148 17.0902 49.191 17.0951 49.1669 17.0968L49.2328 17.0699C49.2792 17.0528 49.3426 17.0284 49.4256 16.9894C49.6628 16.8792 49.8747 16.7213 50.0481 16.5255L50.0774 16.5548C50.0278 16.6156 49.9984 16.6903 49.9931 16.7686C49.9879 16.8469 50.0071 16.9249 50.0481 16.9918C50.0879 17.0701 50.151 17.1341 50.2288 17.1749C50.3137 17.2164 50.4079 17.2349 50.5022 17.2286C50.7109 17.2066 50.9032 17.1052 51.0393 16.9454C51.1876 16.7661 51.3093 16.5663 51.4006 16.3522L51.4445 16.2594L51.4616 16.362C51.4781 16.6193 51.5624 16.8677 51.7057 17.0821C51.7901 17.1834 51.9062 17.2531 52.0353 17.2799C52.0985 17.2945 52.1645 17.2922 52.2266 17.2734C52.2887 17.2546 52.3448 17.2197 52.3892 17.1724C52.4948 17.0399 52.5653 16.8829 52.5943 16.7159C52.6317 16.5552 52.6578 16.3921 52.6724 16.2277C52.6919 15.909 52.6919 15.5894 52.6724 15.2708C52.6724 14.9656 52.6505 14.6727 52.6724 14.3992C52.6814 14.1449 52.7165 13.8921 52.7774 13.6449C52.855 13.2799 53.0295 12.9426 53.2827 12.6684C53.3749 12.5691 53.483 12.4857 53.6025 12.4219Z" fill="#455A64"/>
<path d="M62.6155 15.5222L62.5911 15.5417L62.5178 15.5929C62.4837 15.6149 62.4422 15.6418 62.3909 15.6686C62.3327 15.7026 62.2724 15.7328 62.2103 15.759C61.8111 15.9267 61.3767 15.9929 60.9457 15.9518C60.3052 15.891 59.6958 15.6469 59.1905 15.2487C58.5814 14.7563 58.0788 14.145 57.7136 13.452C57.5085 13.0907 57.345 12.7197 57.1619 12.3779C56.9955 12.0459 56.7826 11.7392 56.5296 11.4673C56.3001 11.2218 56.0132 11.0373 55.6947 10.9303C55.5509 10.8857 55.4009 10.8642 55.2504 10.8668C55.1113 10.8715 54.9734 10.8944 54.8403 10.9351C54.429 11.061 54.0803 11.3374 53.8638 11.709C53.7952 11.8481 53.7404 11.9937 53.7002 12.1435C53.6992 12.1338 53.6992 12.124 53.7002 12.1142L53.7149 12.0239C53.7425 11.9097 53.7835 11.799 53.837 11.6944C53.9251 11.5309 54.0397 11.3832 54.1763 11.2574C54.3592 11.0907 54.5756 10.965 54.811 10.8888C54.9485 10.8442 55.0914 10.8188 55.2358 10.8131C55.4013 10.8089 55.5664 10.8328 55.724 10.8839C56.053 10.9901 56.3495 11.1783 56.5857 11.4307C56.8407 11.7042 57.0546 12.0135 57.2205 12.3486C57.406 12.6928 57.5695 13.0614 57.7722 13.4203C58.1359 14.1058 58.6341 14.7111 59.2369 15.1999C59.7321 15.5951 60.3302 15.8399 60.9604 15.9054C61.3837 15.9497 61.8114 15.8919 62.2078 15.737C62.4763 15.6198 62.6106 15.5222 62.6155 15.5222Z" fill="#455A64"/>
<path d="M62.9182 14.2405C62.8825 14.2653 62.844 14.2858 62.8035 14.3015C62.7017 14.3594 62.5956 14.4092 62.4861 14.4504C62.3279 14.5139 62.1646 14.5638 61.9979 14.5994C61.5799 14.6856 61.1488 14.6856 60.7309 14.5994C60.5603 14.5657 60.3928 14.5175 60.2304 14.4553C60.1205 14.4141 60.0136 14.3652 59.9106 14.3088C59.8727 14.2896 59.8367 14.2667 59.8032 14.2405C59.8032 14.2405 59.9692 14.3162 60.2451 14.4089C60.4044 14.4636 60.5676 14.5061 60.7333 14.5359C60.9388 14.5721 61.1471 14.5901 61.3558 14.5896C61.5646 14.5874 61.7728 14.5678 61.9783 14.531C62.1438 14.4978 62.3069 14.4537 62.4666 14.3992C62.7522 14.3186 62.9109 14.2283 62.9182 14.2405Z" fill="#455A64"/>
<path d="M54.8451 29.0977L57.8649 30.3183C58.5972 30.5306 60.018 31.7341 60.8651 32.5471L64.3804 37.2342L59.0098 43.779L54.8451 29.0977Z" fill="#455A64"/>
<path d="M50.6317 26.886L50.1434 27.6525C50.1434 27.6525 43.0444 29.5029 42.4537 30.9262C41.6285 32.9231 42.7124 39.1261 42.7124 39.1261L44.2113 52.4892L42.1607 59.8836L60.9579 60.2059C60.9579 60.2059 59.8179 40.8179 59.5518 38.7673C59.2857 36.7167 57.4963 29.7568 57.4963 29.7568L50.6317 26.886Z" fill="#455A64"/>
<path d="M59.2417 34.9834C59.2417 34.9834 59.2417 35.0054 59.2417 35.0469C59.2417 35.0884 59.2564 35.1543 59.2661 35.23C59.2824 35.4008 59.3068 35.6352 59.3393 35.933C59.4028 36.5433 59.4834 37.4295 59.5835 38.5231C59.769 40.7202 59.9814 43.7375 60.1913 47.082C60.4013 50.4264 60.5966 53.4535 60.7601 55.6432C60.8431 56.732 60.909 57.6133 60.9554 58.2358C60.9774 58.5361 60.9945 58.7704 61.0067 58.9413C61.0067 59.017 61.0067 59.078 61.0067 59.1268C61.0083 59.1471 61.0083 59.1675 61.0067 59.1879C60.9989 59.1684 60.9948 59.1477 60.9945 59.1268C60.9945 59.078 60.9798 59.0194 60.9701 58.9437C60.9538 58.781 60.9294 58.5466 60.8968 58.2407C60.8334 57.6304 60.7528 56.7442 60.6527 55.6506C60.4672 53.4535 60.2548 50.4362 60.0473 47.0893C59.8398 43.7424 59.6396 40.7202 59.4761 38.5305C59.3931 37.4417 59.3271 36.5604 59.2808 35.9379C59.2588 35.6376 59.2417 35.4033 59.2295 35.2324C59.2295 35.1567 59.2295 35.0957 59.2295 35.0469C59.231 35.0253 59.2351 35.004 59.2417 34.9834Z" fill="#464547"/>
<path opacity="0.3" d="M43.0688 56.6026L44.9632 57.3203L46.0154 54.01C46.0154 54.01 47.8219 55.3942 49.0864 55.2136C50.3509 55.0329 52.155 54.01 52.155 54.01L56.2489 54.7717L60.7309 56.2901L60.4013 50.751L48.5444 50.1505L44.9632 50.5704L43.0688 56.6026Z" fill="#464547"/>
<path d="M31.6685 61.3019L34.7249 59.8372C35.0081 58.8924 35.2937 57.9453 35.6062 56.9078L39.2679 58.536L40.5008 54.7082L44.1625 56.2975L45.3539 52.4477C46.4109 52.9359 47.3068 53.4046 48.2442 53.722C48.7556 53.8954 49.3099 53.8954 49.8212 53.722C51.1419 53.1898 52.4065 52.5136 53.7272 51.874C53.9176 52.2377 54.0372 52.4501 54.1422 52.6698C54.7695 53.9856 54.8135 54.0052 56.1561 53.3875C57.5867 52.7309 59.0197 52.0791 60.4331 51.3931C61.0337 51.1001 61.4926 51.149 62.1029 51.4956C66.7656 54.115 71.4551 54.2591 75.9616 51.2076C80.2288 48.3147 82.0963 44.1452 81.4665 39.0626C80.8366 33.98 77.956 30.4842 73.1932 28.7071C65.6841 25.907 57.5305 30.765 56.2806 38.6915C56.1757 39.3458 55.9364 39.6949 55.3383 39.9439C54.1177 40.4541 52.9191 41.0302 51.7156 41.5844C49.6943 42.512 49.6967 42.512 50.3388 44.6578C49.9335 44.8751 49.6064 45.0802 49.2451 45.2413C44.5653 47.3822 32.0982 52.9457 28.0067 54.7619L26.5835 59.6126L31.6685 61.3019ZM78.3466 39.5753C77.972 40.5469 77.3175 41.3855 76.466 41.9849C75.6144 42.5842 74.6042 42.9174 73.5632 42.9422C72.5221 42.967 71.4972 42.6822 70.6181 42.124C69.739 41.5659 69.0453 40.7593 68.6249 39.8066C68.2046 38.8539 68.0764 37.7979 68.2566 36.7723C68.4368 35.7467 68.9174 34.7976 69.6374 34.0454C70.3574 33.2931 71.2845 32.7714 72.3013 32.5464C73.318 32.3214 74.3786 32.4032 75.3488 32.7814C75.9944 33.0282 76.5847 33.4006 77.0855 33.8769C77.5863 34.3533 77.9877 34.9242 78.2664 35.5567C78.5452 36.1891 78.6958 36.8706 78.7096 37.5616C78.7234 38.2526 78.6 38.9395 78.3466 39.5826V39.5753Z" fill="#6F2877"/>
<path opacity="0.3" d="M50.8831 48.1609L29.774 57.313C29.6041 57.3864 29.4119 57.3894 29.2398 57.3212C29.0676 57.253 28.9296 57.1192 28.8562 56.9492C28.7827 56.7793 28.7797 56.5871 28.8479 56.4149C28.9161 56.2428 29.0499 56.1048 29.2199 56.0313L50.3265 46.8817C50.4104 46.8449 50.5008 46.8251 50.5925 46.8234C50.6841 46.8216 50.7752 46.838 50.8605 46.8716C50.9458 46.9052 51.0236 46.9553 51.0895 47.019C51.1554 47.0827 51.208 47.1589 51.2444 47.243C51.2811 47.327 51.301 47.4174 51.3027 47.509C51.3045 47.6007 51.2881 47.6918 51.2545 47.7771C51.2209 47.8624 51.1708 47.9402 51.1071 48.0061C51.0433 48.0719 50.9672 48.1246 50.8831 48.1609Z" fill="#464547"/>
<path d="M52.0402 48.2341C52.0402 48.2341 52.0207 48.2488 51.9792 48.2707L51.7912 48.3611L51.0588 48.7004L48.3735 49.921C46.1105 50.9536 42.9858 52.3622 39.5217 53.9221C36.0577 55.482 32.9085 56.8516 30.6163 57.8036C29.4713 58.2919 28.5388 58.6702 27.8943 58.929L27.162 59.222L26.9667 59.2976L26.9008 59.3172C26.9008 59.3172 26.9203 59.305 26.9618 59.2854L27.1522 59.2L27.8846 58.8826L30.5918 57.7231C32.8744 56.7466 36.0162 55.3527 39.4802 53.8171L48.3467 49.8478L51.032 48.6565L51.7643 48.3415L51.9572 48.261L52.0402 48.2341Z" fill="#464547"/>
<path d="M54.3618 52.8724C54.33 52.887 53.3682 50.9487 52.2111 48.5417C51.054 46.1347 50.1458 44.172 50.1751 44.1476C50.2044 44.1232 51.1711 46.0688 52.3258 48.4782C53.4805 50.8877 54.3935 52.8724 54.3618 52.8724Z" fill="#464547"/>
<path d="M80.8683 40.7104C80.8683 40.7104 80.8683 40.6445 80.8537 40.5175C80.839 40.3906 80.8341 40.1977 80.817 39.9536C80.817 39.8283 80.8097 39.6892 80.7951 39.5362C80.778 39.3848 80.7462 39.2188 80.7194 39.0479C80.6925 38.8771 80.6608 38.6744 80.6291 38.4694C80.5887 38.2503 80.5365 38.0335 80.4728 37.82C80.1971 36.7071 79.7534 35.6428 79.157 34.6636C78.3793 33.3591 77.3563 32.2176 76.1446 31.302L75.6344 30.9212C75.4537 30.8016 75.2633 30.6942 75.0778 30.5794C74.8923 30.4647 74.7043 30.3353 74.4992 30.245L73.884 29.9496L73.5716 29.8007L73.2444 29.6811L72.5682 29.437C72.3412 29.3613 72.1044 29.3124 71.8701 29.249C71.6352 29.1803 71.3963 29.1265 71.1548 29.0879C70.6606 28.9952 70.1606 28.9373 69.6583 28.9145C69.402 28.9145 69.1457 28.8804 68.8869 28.8828L68.1033 28.9243C67.9715 28.9243 67.8396 28.9243 67.7078 28.9487L67.3123 29.0097C67.0487 29.0537 66.7826 29.0854 66.5165 29.1391C65.9812 29.2589 65.4544 29.4138 64.9395 29.603L64.5465 29.747C64.4806 29.7714 64.4146 29.7934 64.3512 29.8202L64.1608 29.9105L63.3967 30.2816C63.1525 30.4159 62.9084 30.5745 62.6643 30.721C62.5422 30.7967 62.4202 30.8651 62.2981 30.9505L61.9515 31.2117C61.4789 31.5612 61.0303 31.9421 60.6088 32.3517L60.0083 33.0157L59.8569 33.1817L59.7202 33.36L59.4492 33.7237L59.1709 34.0752L58.9268 34.4634L58.6827 34.8564L58.5631 35.0517C58.5265 35.1201 58.4947 35.1909 58.4606 35.2592L58.0602 36.0941C57.9528 36.3846 57.8454 36.6751 57.738 36.9705C56.9247 39.3916 56.9247 42.0121 57.738 44.4332C57.8454 44.7262 57.9528 45.0191 58.0578 45.3096C58.1627 45.6001 58.3263 45.8662 58.4606 46.1445L58.5606 46.352L58.6803 46.5473L58.9244 46.9403L59.1685 47.3285L59.4419 47.6922L59.7129 48.056L59.8472 48.2342L59.9985 48.4026C60.2011 48.6223 60.4013 48.8445 60.6015 49.0642C61.0221 49.4738 61.4699 49.8547 61.9417 50.2042L62.2908 50.4654C62.4055 50.5533 62.5349 50.6192 62.657 50.7095C62.9011 50.856 63.1452 51.0122 63.3893 51.1489L64.1534 51.5176L64.3438 51.6079L64.5391 51.6836L64.9322 51.8276C65.4471 52.016 65.9739 52.1701 66.5092 52.289C66.7753 52.3451 67.0438 52.3744 67.305 52.4184L67.7005 52.4794C67.8323 52.4965 67.9641 52.4965 68.096 52.5038L68.8796 52.5453C69.1384 52.5453 69.3947 52.5233 69.651 52.516C70.1532 52.4922 70.6531 52.4343 71.1475 52.3427C71.3888 52.302 71.6277 52.2474 71.8627 52.1791C72.1068 52.1157 72.3339 52.0668 72.5609 51.9936L73.2274 51.7495L73.5569 51.6299L73.8694 51.481L74.4821 51.1856C74.6872 51.0928 74.8703 50.961 75.0607 50.8536C75.2511 50.7461 75.4366 50.629 75.6173 50.5118L76.1299 50.1285C77.3469 49.2146 78.3756 48.0739 79.1595 46.7694C79.7523 45.784 80.1911 44.7138 80.4606 43.5959C80.524 43.3831 80.5762 43.1672 80.6169 42.949C80.6486 42.7415 80.6779 42.5486 80.7072 42.368C80.7365 42.1873 80.7658 42.0238 80.7829 41.8797C80.7999 41.7357 80.7975 41.5892 80.8048 41.4647C80.8219 41.2206 80.8317 41.0302 80.8414 40.9008C80.8512 40.7714 80.8561 40.708 80.8561 40.708C80.8561 40.708 80.8561 40.7714 80.8561 40.9008C80.8561 41.0302 80.8439 41.2206 80.8341 41.4647C80.8341 41.5917 80.8219 41.7308 80.817 41.8822C80.8122 42.0335 80.7707 42.202 80.7462 42.3704C80.7218 42.5388 80.6925 42.7439 80.6608 42.9514C80.623 43.1712 80.5733 43.3888 80.5119 43.6032C80.2415 44.7209 79.8028 45.791 79.2107 46.7768C78.4332 48.0982 77.4069 49.2563 76.1885 50.1871L75.6734 50.5728C75.4928 50.6924 75.3024 50.8023 75.1144 50.9195C74.9264 51.0367 74.7385 51.1636 74.5334 51.2564L73.9133 51.5566L73.5984 51.7055L73.2689 51.8276L72.5975 52.0717C72.3681 52.1498 72.1313 52.1987 71.8945 52.2621C71.6541 52.3328 71.4095 52.3882 71.1621 52.4281C70.663 52.5214 70.1581 52.5809 69.651 52.6063C69.4069 52.6063 69.1359 52.643 68.8747 52.6381L68.0838 52.599C67.9495 52.599 67.8177 52.599 67.6834 52.5746L67.2855 52.5136C67.0194 52.4696 66.7484 52.4403 66.4823 52.3842C65.9413 52.2648 65.4088 52.1099 64.8882 51.9204L64.4903 51.7739C64.4244 51.7495 64.3561 51.7275 64.2926 51.7007L64.0997 51.6079L63.3283 51.2368C63.0842 51.1001 62.8401 50.9414 62.5837 50.7925C62.4592 50.7144 62.3396 50.6485 62.2127 50.5606L61.8612 50.297C61.3831 49.9441 60.9296 49.5592 60.5038 49.1447L59.896 48.4783L59.7422 48.3098L59.6055 48.1267L59.3321 47.7606L59.0562 47.3944L58.8121 47.0014L58.568 46.6034L58.4459 46.4057L58.3434 46.1958L57.9381 45.3535C57.8307 45.0606 57.7209 44.7652 57.6135 44.4674C56.79 42.0204 56.79 39.3711 57.6135 36.9241C57.7233 36.6287 57.8307 36.3333 57.9381 36.0404C58.0456 35.7474 58.2091 35.4765 58.3458 35.1957C58.38 35.1274 58.4117 35.0566 58.4484 34.9882L58.568 34.7881L58.8121 34.3926L59.0562 33.9995L59.3321 33.6334L59.6055 33.2672L59.7446 33.0841L59.896 32.9157C60.101 32.6935 60.3037 32.4689 60.5038 32.2492C60.9308 31.836 61.3842 31.4511 61.8612 31.097L62.2127 30.8333C62.3299 30.7454 62.4568 30.6795 62.5837 30.5892C62.8279 30.4403 63.072 30.2816 63.3283 30.1449L64.0997 29.7738L64.2926 29.6811C64.3561 29.6542 64.4244 29.6322 64.4903 29.6078L64.8882 29.4638C65.4079 29.2735 65.9397 29.1177 66.4799 28.9975C66.7484 28.9438 67.0194 28.9121 67.2855 28.8682L67.6834 28.8096C67.8152 28.7925 67.9495 28.7925 68.0838 28.7827L68.8723 28.7437C69.1335 28.7437 69.3947 28.7656 69.651 28.7754C70.1581 28.8009 70.663 28.8605 71.1621 28.9536C71.4092 28.9947 71.6538 29.0501 71.8945 29.1196C72.1386 29.1855 72.3681 29.2343 72.5975 29.31L73.2689 29.5541L73.5984 29.6762L73.9133 29.8251L74.5334 30.1254C74.7385 30.2206 74.9215 30.3524 75.1144 30.4647C75.3073 30.577 75.4928 30.6893 75.6734 30.8089L76.1885 31.1971C77.4045 32.123 78.4293 33.2763 79.2058 34.5928C79.7996 35.578 80.2392 36.6482 80.5094 37.7663C80.5703 37.9809 80.62 38.1984 80.6584 38.4181C80.6901 38.6256 80.7169 38.8209 80.7438 39.0016C80.7706 39.1822 80.7999 39.3458 80.8146 39.4898C80.8292 39.6338 80.8268 39.7827 80.8317 39.9072C80.8317 40.1514 80.8488 40.3418 80.8537 40.4736C80.8585 40.6054 80.8683 40.7104 80.8683 40.7104Z" fill="#464547"/>
<path d="M79.2303 37.6883C79.2225 37.6571 79.2184 37.6252 79.2181 37.5931L79.1985 37.3123C79.1985 37.2521 79.1937 37.1837 79.1839 37.1073C79.1839 37.0316 79.1595 36.951 79.1448 36.8631C79.1188 36.6585 79.0772 36.4561 79.0203 36.2577C78.8823 35.7077 78.6617 35.1817 78.3661 34.6978C77.5868 33.4156 76.3479 32.4788 74.9019 32.0783C73.4558 31.6778 71.9115 31.8437 70.5836 32.5422C70.3341 32.6781 70.095 32.8323 69.8683 33.0036C69.6355 33.1758 69.4145 33.3634 69.2067 33.5651C69.0008 33.7769 68.8099 34.0029 68.6355 34.2413C68.2717 34.7286 67.9897 35.272 67.8006 35.85C67.4003 37.0445 67.4003 38.3369 67.8006 39.5314C67.9899 40.1081 68.271 40.6505 68.633 41.1377C68.809 41.3764 69.0007 41.6031 69.2067 41.8163C69.4145 42.018 69.6355 42.2056 69.8683 42.3778C70.0956 42.5482 70.3346 42.7024 70.5836 42.8392C70.8289 42.9691 71.0835 43.0809 71.3452 43.1736C72.3262 43.5307 73.3847 43.6192 74.4114 43.43C75.2271 43.2773 76.0012 42.9536 76.6828 42.4803C77.3644 42.0069 77.9381 41.3946 78.3661 40.6836C78.6617 40.1997 78.8823 39.6737 79.0203 39.1237C79.0772 38.9253 79.1188 38.7229 79.1448 38.5183C79.1595 38.4279 79.1766 38.3474 79.1839 38.2741L79.1985 38.0691L79.2181 37.7884C79.2184 37.7562 79.2225 37.7243 79.2303 37.6931C79.2335 37.7248 79.2335 37.7567 79.2303 37.7884C79.2303 37.8591 79.2303 37.9519 79.2303 38.0691C79.2303 38.1326 79.2303 38.2009 79.2303 38.2766C79.2303 38.3523 79.2108 38.4353 79.1985 38.5207C79.1761 38.7276 79.1377 38.9324 79.0838 39.1334C78.953 39.6916 78.7364 40.226 78.4418 40.7178C78.0129 41.4431 77.4349 42.0691 76.7459 42.5543C76.057 43.0395 75.2729 43.373 74.4455 43.5325C73.4 43.731 72.3204 43.6467 71.3184 43.2884C71.0521 43.1931 70.7928 43.0798 70.5421 42.949C70.2869 42.8107 70.0422 42.6541 69.8097 42.4803C69.572 42.3041 69.3461 42.1124 69.1335 41.9066C68.9228 41.6907 68.7271 41.4607 68.5476 41.2182C68.1735 40.7181 67.8825 40.1608 67.6859 39.568C67.2758 38.3475 67.2758 37.0265 67.6859 35.8061C67.8807 35.2174 68.1683 34.6636 68.5378 34.1656C68.7179 33.9228 68.9136 33.692 69.1237 33.4748C69.3364 33.2698 69.5623 33.0789 69.7999 32.9035C70.0324 32.7298 70.2772 32.5731 70.5323 32.4348C70.783 32.3041 71.0424 32.1907 71.3086 32.0955C72.3107 31.7371 73.3902 31.6528 74.4358 31.8514C75.2621 32.0095 76.0453 32.3416 76.7335 32.8256C77.4216 33.3097 77.999 33.9345 78.4271 34.6587C78.7218 35.1505 78.9383 35.6849 79.0692 36.2431C79.1231 36.4441 79.1614 36.6489 79.1839 36.8558C79.1839 36.9461 79.2108 37.0291 79.2156 37.0999C79.2205 37.1707 79.2156 37.244 79.2156 37.3074C79.2156 37.4246 79.2156 37.5174 79.2156 37.5882C79.2241 37.6209 79.229 37.6545 79.2303 37.6883Z" fill="#464547"/>
<path opacity="0.3" d="M63.4186 29.1538V52.1694C64.4657 52.6689 65.5712 53.0355 66.7093 53.2607L66.4652 28.1456C65.4086 28.342 64.3837 28.6812 63.4186 29.1538Z" fill="white"/>
<path d="M61.7488 51.3247C61.7122 51.3247 61.6853 46.5986 61.6853 40.769C61.6853 34.9394 61.7122 30.2133 61.7488 30.2133C61.7854 30.2133 61.8122 34.9394 61.8122 40.769C61.8122 46.5986 61.7829 51.3247 61.7488 51.3247Z" fill="white"/>
<path d="M59.232 32.691C59.1802 32.7934 59.1189 32.8907 59.0489 32.9815C58.922 33.1622 58.7462 33.4307 58.5436 33.77C58.3042 34.1652 58.0859 34.5726 57.8893 34.9906C57.6496 35.5023 57.4394 36.0272 57.2595 36.5628C57.0869 37.1013 56.9443 37.649 56.8323 38.2033C56.7371 38.7159 56.6712 39.1797 56.637 39.5728C56.6028 39.9658 56.5809 40.2856 56.576 40.5078C56.5796 40.6222 56.5714 40.7367 56.5516 40.8495C56.5333 40.7357 56.5251 40.6205 56.5272 40.5053C56.5272 40.2856 56.5272 39.9634 56.5467 39.5654C56.5784 39.1013 56.6355 38.6392 56.7176 38.1813C56.924 37.0575 57.2821 35.9669 57.7819 34.9394C57.9877 34.5205 58.2159 34.1131 58.4655 33.7188C58.6827 33.3843 58.8683 33.1231 59.0074 32.9498C59.0742 32.8569 59.1494 32.7703 59.232 32.691Z" fill="white"/>
<path d="M55.6459 40.7031C54.9429 41.109 54.2193 41.4781 53.4781 41.809C52.7546 42.1788 52.0123 42.5104 51.2542 42.8026C51.9567 42.3952 52.6803 42.0253 53.4219 41.6943C54.1457 41.3258 54.888 40.995 55.6459 40.7031Z" fill="white"/>
<path d="M49.3304 45.8687C49.3304 45.8687 49.3158 45.8809 49.2816 45.9004L49.1351 45.9761L48.559 46.2617C48.0586 46.5058 47.3384 46.8573 46.4278 47.2821C44.6262 48.1341 42.1216 49.2863 39.3484 50.5167C36.5752 51.7471 34.0266 52.8187 32.181 53.5779C31.2582 53.9588 30.5112 54.2615 29.9839 54.4665L29.3858 54.6985L29.2296 54.757L29.1759 54.7717C29.1759 54.7717 29.1905 54.7595 29.2247 54.7448L29.3761 54.674L29.9669 54.4299L32.1395 53.5047C33.9753 52.726 36.5068 51.6396 39.2898 50.4117C42.0727 49.1838 44.5798 48.0413 46.3937 47.2113L48.5395 46.2348L49.1254 45.9712L49.2792 45.9053L49.3304 45.8687Z" fill="white"/>
<path d="M73.5179 31.2605C73.5179 31.2849 73.0956 31.1995 72.4169 31.2239C71.5322 31.2531 70.6662 31.4864 69.8866 31.9056C69.1069 32.3249 68.4348 32.9187 67.9227 33.6407C67.5272 34.1924 67.3685 34.5903 67.3466 34.5781C67.3695 34.4812 67.4048 34.3877 67.4515 34.2998C67.5633 34.0519 67.6964 33.8142 67.8495 33.5894C68.353 32.8403 69.0323 32.2259 69.8281 31.7999C70.6239 31.374 71.5119 31.1494 72.4145 31.1458C72.6866 31.1436 72.9584 31.1632 73.2274 31.2044C73.3262 31.211 73.4238 31.2299 73.5179 31.2605Z" fill="white"/>
<path d="M75.3903 29.9959C75.2851 29.9606 75.1837 29.9148 75.0876 29.8592C74.8996 29.7616 74.6213 29.6322 74.2722 29.4809C73.9231 29.3295 73.5008 29.1757 73.0248 29.0243C72.5044 28.869 71.9754 28.7443 71.4404 28.6508C70.9048 28.5628 70.3643 28.5073 69.8219 28.4848C69.3791 28.4698 68.9358 28.4779 68.4939 28.5093C68.1155 28.5361 67.8079 28.5678 67.598 28.5971C67.4897 28.6199 67.3791 28.6305 67.2684 28.6289C67.3729 28.5914 67.4808 28.5644 67.5907 28.5483C67.8006 28.5044 68.1058 28.458 68.4841 28.4189C68.9303 28.375 69.3786 28.3579 69.8268 28.3677C70.3747 28.3855 70.921 28.4377 71.4624 28.5239C72.0023 28.6191 72.5356 28.7488 73.0589 28.9121C73.4851 29.0492 73.9025 29.2123 74.3088 29.4003C74.6555 29.5614 74.9289 29.7054 75.112 29.8153C75.2103 29.8664 75.3035 29.9269 75.3903 29.9959Z" fill="white"/>
<path opacity="0.3" d="M45.964 47.7973L46.7965 43.5838L47.7778 43.5447L48.2685 38.0618L47.2139 42.4266L46.1422 42.1874L45.1292 47.6264L45.964 47.7973Z" fill="#464547"/>
<path d="M54.5595 49.4816C54.5595 49.4816 56.0242 48.4173 56.5125 48.2391C57.0007 48.0609 58.7096 47.7508 59.3077 47.3334C59.3772 47.3651 59.4374 47.4144 59.4822 47.4764C59.527 47.5384 59.5549 47.6109 59.5633 47.687C59.5717 47.763 59.5602 47.8399 59.5299 47.9101C59.4996 47.9804 59.4517 48.0416 59.3907 48.0877C58.9002 48.5573 58.3186 48.9212 57.6818 49.1569C57.2522 49.2839 57.3889 49.5939 57.6965 49.7013C58.0041 49.8087 60.1987 50.1896 60.1987 50.1896C60.1987 50.1896 62.7497 50.2457 62.9597 50.5045C63.0005 50.5581 63.0287 50.6202 63.0421 50.6862C63.0555 50.7523 63.0538 50.8205 63.0371 50.8857C63.0205 50.951 62.9893 51.0117 62.9458 51.0632C62.9024 51.1147 62.8479 51.1557 62.7864 51.1831C62.635 51.2368 60.4452 51.3833 60.4452 51.3833L59.3199 51.2491C59.3199 51.2491 62.8181 51.896 63.0183 52.1889C63.0568 52.2357 63.0837 52.2909 63.0969 52.3501C63.1101 52.4092 63.1092 52.4707 63.0942 52.5294C63.0793 52.5881 63.0506 52.6425 63.0107 52.6881C62.9708 52.7337 62.9207 52.7693 62.8645 52.7919C62.6863 52.8993 61.1434 52.599 61.1434 52.599L59.0416 52.3378L62.8669 53.4339C62.8669 53.4339 63.2136 53.5828 63.1403 53.8709C63.0671 54.159 62.5935 54.22 62.5935 54.22L58.5484 53.4339C58.5484 53.4339 60.5331 54.8254 60.6064 54.9963C60.6991 55.2404 60.2915 55.4601 60.1352 55.36C59.979 55.2599 57.4499 54.1712 57.4499 54.1712L54.5473 52.8505L52.6261 52.8724L53.461 49.3132L54.5595 49.4816Z" fill="#FFCAAE"/>
<path d="M45.864 52.9725L54.1128 52.8504L53.9542 49.4157L45.1292 47.6263L46.4011 41.14L40.3835 39.751C39.6785 42.822 39.2125 45.9431 38.9896 49.0861C38.9896 49.0861 38.5771 51.686 41.5211 52.4086C42.9509 52.715 44.4034 52.9036 45.864 52.9725Z" fill="#FFCAAE"/>
<path d="M38.9139 40.5713L47.214 42.4266C47.214 42.4266 48.6641 37.0218 48.7129 35.5229C48.7617 34.024 46.7087 29.2808 43.8134 30.2401C43.8134 30.2401 42.9395 30.0644 42.1412 31.2337C41.8214 31.7049 38.9139 40.5713 38.9139 40.5713Z" fill="#455A64"/>
<path d="M48.3516 34.7442C48.3747 34.34 48.3443 33.9345 48.2613 33.5382C48.1616 33.1147 48.0107 32.7048 47.8121 32.3176C47.5999 31.8257 47.2634 31.3975 46.8356 31.0751C46.3987 30.7714 45.8973 30.5734 45.3709 30.4965C44.937 30.4336 44.4979 30.4132 44.06 30.4355C43.7643 30.4452 43.4701 30.4819 43.1812 30.5453C42.9761 30.5917 42.8687 30.6356 42.8638 30.6259C42.8589 30.6161 42.8882 30.6063 42.9395 30.5844C43.0136 30.5492 43.0903 30.5198 43.169 30.4965C43.4572 30.4143 43.7535 30.3635 44.0527 30.3451C44.4978 30.31 44.9455 30.3222 45.388 30.3818C45.9364 30.4543 46.4595 30.6568 46.9138 30.9725C47.3538 31.3092 47.698 31.7553 47.9122 32.2664C48.1097 32.6666 48.2542 33.0908 48.3418 33.5285C48.4018 33.8239 48.4215 34.1261 48.4004 34.4268C48.3946 34.5087 48.384 34.5902 48.3687 34.6709C48.3638 34.7149 48.3565 34.7442 48.3516 34.7442Z" fill="#464547"/>
<path d="M48.3516 37.4319C48.3516 37.4319 48.3516 37.4661 48.3394 37.532C48.3272 37.5979 48.3077 37.7004 48.2857 37.8127C48.232 38.0739 48.1588 38.4255 48.066 38.86C47.8658 39.7681 47.59 41.0107 47.2726 42.4412V42.4998H47.2116L45.5491 42.1312L40.8523 41.0619L39.4315 40.7251L39.0482 40.6274C39.0018 40.6182 38.9568 40.6035 38.9139 40.5835C38.9608 40.5836 39.0076 40.5893 39.0531 40.6006L39.4437 40.6762L40.8718 40.9741L45.5784 42.0091L47.2262 42.3777L47.153 42.4241L47.9903 38.8551C48.0953 38.4255 48.1832 38.0739 48.2466 37.8152L48.3199 37.5393C48.3256 37.5022 48.3363 37.4661 48.3516 37.4319Z" fill="#464547"/>
<path d="M80.9659 36.7606C81.0555 36.7852 81.15 36.785 81.2394 36.76C81.3288 36.7351 81.4098 36.6863 81.4737 36.619C81.7422 36.3749 82.189 35.7646 81.9961 35.5326C81.8013 35.3635 81.5642 35.2505 81.3101 35.2055C81.3101 35.2055 81.6666 34.7563 81.5128 34.4268C81.4878 34.3649 81.4509 34.3085 81.4041 34.261C81.3573 34.2135 81.3015 34.1757 81.24 34.1498C81.1785 34.1239 81.1124 34.1105 81.0457 34.1102C80.979 34.11 80.9129 34.123 80.8512 34.1485C80.9147 34.0128 80.9487 33.8651 80.9508 33.7153C80.9529 33.5654 80.9231 33.4169 80.8634 33.2794C80.8369 33.2069 80.796 33.1406 80.7431 33.0844C80.6902 33.0281 80.6265 32.9832 80.5558 32.9523L80.1311 32.7668C80.1311 32.7668 80.5094 32.2004 80.0773 31.7293C79.9832 31.6275 79.8705 31.5446 79.7453 31.4851C79.4803 31.3426 79.1763 31.2894 78.8785 31.3334C78.5808 31.3774 78.3052 31.5162 78.0927 31.7293C78.4344 32.0686 78.825 32.447 78.7347 32.7277C78.7347 32.7277 76.9404 33.9166 77.4042 34.5464C77.7021 34.9541 78.0145 34.771 78.0145 34.771C78.0145 34.771 77.5702 35.1762 77.8046 35.4448C77.8794 35.5242 77.9779 35.5773 78.0853 35.5961C78.1979 35.6303 78.3167 35.6393 78.4331 35.6225C78.5496 35.6056 78.6609 35.5632 78.7591 35.4985L79.0545 35.3325C79.0195 35.4324 79.0124 35.5399 79.034 35.6435C79.0555 35.7472 79.1047 35.843 79.1765 35.9208C79.1973 35.9379 79.2194 35.9534 79.2425 35.9672C79.351 36.0331 79.4764 36.0661 79.6033 36.0622C79.7303 36.0583 79.8534 36.0176 79.9577 35.9452L80.6242 35.54L80.6828 35.8671C80.6828 35.8671 80.2897 36.3089 80.9659 36.7606Z" fill="#FFCAAE"/>
<path d="M80.966 36.7605C80.882 36.7145 80.8054 36.6561 80.7389 36.5872C80.6556 36.5048 80.5951 36.4021 80.5632 36.2894C80.5432 36.2097 80.5417 36.1266 80.5586 36.0462C80.5755 35.9659 80.6105 35.8904 80.6608 35.8255V35.8499C80.6413 35.7474 80.6218 35.6376 80.5998 35.5228L80.651 35.5448L80.2531 35.8133L80.0359 35.9598C79.9577 36.0181 79.8702 36.0626 79.7771 36.0916C79.6744 36.1235 79.5656 36.1302 79.4597 36.1111C79.3539 36.0919 79.2543 36.0476 79.1692 35.9818C79.0763 35.9073 79.0138 35.8013 78.9935 35.6839C78.9732 35.566 78.9799 35.445 79.013 35.33L79.0862 35.3886C78.9422 35.4667 78.8104 35.5546 78.6444 35.6327C78.4719 35.7046 78.2805 35.7175 78.1 35.6693C78.0019 35.6515 77.9092 35.6114 77.829 35.5521C77.7849 35.5193 77.7491 35.4766 77.7245 35.4274C77.7 35.3782 77.6872 35.3239 77.6874 35.2689C77.695 35.1639 77.7304 35.0628 77.79 34.976C77.8446 34.8875 77.9093 34.8055 77.9828 34.7319L78.0512 34.8246C77.9882 34.856 77.9189 34.8724 77.8486 34.8724C77.7782 34.8724 77.7089 34.856 77.6459 34.8246C77.5219 34.765 77.4177 34.6709 77.3457 34.5537C77.3081 34.492 77.2847 34.4229 77.2771 34.3511C77.2695 34.2793 77.2779 34.2068 77.3017 34.1387C77.3435 34.0077 77.407 33.8847 77.4897 33.7749C77.8345 33.3445 78.2467 32.9727 78.7103 32.6739L78.6859 32.7081C78.7015 32.5929 78.6708 32.4761 78.6004 32.3834C78.529 32.2719 78.4473 32.1673 78.3563 32.071C78.2611 31.9684 78.1635 31.8708 78.0658 31.7731L78.0219 31.7316L78.0634 31.6853C78.2711 31.4587 78.552 31.3126 78.8568 31.2727C79.1487 31.2355 79.4454 31.2767 79.7161 31.3923C79.8538 31.4395 79.9795 31.5165 80.0841 31.6177C80.1888 31.719 80.2698 31.8421 80.3215 31.9782C80.36 32.1135 80.3688 32.2556 80.3473 32.3946C80.3258 32.5337 80.2746 32.6664 80.197 32.7838L80.1726 32.6984L80.6096 32.8912C80.6864 32.9275 80.7551 32.9788 80.8117 33.0421C80.8683 33.1054 80.9116 33.1795 80.9391 33.2598C80.9954 33.4041 81.022 33.5582 81.0174 33.713C81.0128 33.8677 80.977 34.02 80.9123 34.1606L80.8488 34.085C80.9244 34.0552 81.0055 34.0417 81.0867 34.0455C81.1679 34.0493 81.2474 34.0702 81.3199 34.1069C81.453 34.1868 81.552 34.3128 81.5982 34.4609C81.6289 34.602 81.6135 34.7492 81.5543 34.8808C81.5057 35.0014 81.4408 35.1147 81.3614 35.2177L81.337 35.1493C81.5309 35.1882 81.7167 35.26 81.8863 35.3617C81.9722 35.4078 82.0407 35.4807 82.0816 35.5692C82.1022 35.6577 82.0963 35.7502 82.0645 35.8353C81.9608 36.0935 81.8054 36.3277 81.608 36.5237C81.4954 36.6588 81.3357 36.7461 81.1613 36.7678C81.1168 36.7753 81.0714 36.7753 81.027 36.7678C80.9977 36.7678 80.9831 36.7532 80.9831 36.7507C81.0413 36.7597 81.1006 36.7597 81.1588 36.7507C81.3252 36.7192 81.474 36.627 81.5763 36.492C81.76 36.2969 81.9042 36.0681 82.001 35.8182C82.0228 35.7458 82.0228 35.6685 82.001 35.5961C81.9651 35.5236 81.9069 35.4646 81.835 35.4276C81.6723 35.3345 81.4948 35.2701 81.3102 35.2372L81.2467 35.2226L81.2858 35.1689C81.3653 35.0761 81.425 34.968 81.4611 34.8513C81.4972 34.7346 81.509 34.6117 81.4957 34.4902C81.4532 34.3664 81.3662 34.2629 81.2516 34.1997C81.192 34.1702 81.1268 34.1536 81.0603 34.1511C80.9938 34.1485 80.9276 34.1601 80.8659 34.185L80.7389 34.2314L80.8024 34.1094C80.8557 33.9809 80.8832 33.8432 80.8832 33.7041C80.8832 33.5651 80.8557 33.4273 80.8024 33.2989C80.7804 33.2329 80.7449 33.1721 80.6983 33.1205C80.6516 33.0688 80.5948 33.0273 80.5314 32.9986L80.0945 32.8082L80.0334 32.7814L80.0701 32.7203C80.1365 32.6178 80.1804 32.5023 80.1989 32.3815C80.2174 32.2608 80.2101 32.1374 80.1775 32.0197C80.1306 31.9006 80.0583 31.7932 79.9655 31.7051C79.8727 31.6169 79.7617 31.5502 79.6404 31.5095C79.3894 31.4036 79.1149 31.3657 78.8446 31.3996C78.5689 31.436 78.3148 31.5682 78.1269 31.7731V31.6853C78.2269 31.7829 78.3246 31.883 78.4222 31.9855C78.5201 32.0888 78.6084 32.2007 78.6859 32.32C78.731 32.3805 78.763 32.4497 78.7798 32.5233C78.7966 32.5968 78.7979 32.6731 78.7835 32.7472V32.7692L78.764 32.7838C78.3152 33.0742 77.9148 33.4334 77.5776 33.8482C77.4311 34.0483 77.3115 34.3071 77.436 34.4926C77.4947 34.5895 77.5793 34.6681 77.6801 34.7197C77.7266 34.742 77.7775 34.7535 77.829 34.7535C77.8806 34.7535 77.9315 34.742 77.9779 34.7197L78.3197 34.5463L78.0463 34.8124C77.9105 34.9255 77.8189 35.0828 77.7875 35.2567C77.7753 35.413 77.9486 35.5179 78.1073 35.5472C78.2681 35.5953 78.4404 35.5866 78.5956 35.5228C78.7396 35.4569 78.8861 35.3641 79.0277 35.2787L79.1326 35.2226L79.0985 35.3373C79.0599 35.4297 79.0507 35.5317 79.0721 35.6296C79.0935 35.7274 79.1445 35.8162 79.2181 35.8841C79.291 35.9428 79.3772 35.9827 79.469 36.0006C79.5609 36.0185 79.6558 36.0137 79.7454 35.9867C79.9078 35.919 80.0612 35.8312 80.2019 35.7254L80.6047 35.4667L80.6462 35.4374V35.4862C80.6633 35.6034 80.6828 35.7132 80.6999 35.8158C80.6536 35.8737 80.6206 35.9412 80.6033 36.0133C80.586 36.0855 80.5848 36.1605 80.5998 36.2332C80.6286 36.3406 80.6831 36.4395 80.7585 36.5213C80.8854 36.7117 80.9708 36.7605 80.966 36.7605Z" fill="#FF9A6C"/>
<path d="M80.2214 32.5958C80.2185 32.751 80.1765 32.903 80.0993 33.0377C79.9356 33.3754 79.7047 33.6761 79.4207 33.9214C79.1406 34.1641 78.8353 34.376 78.5101 34.5537C78.3826 34.6382 78.2437 34.7039 78.0975 34.7489C78.2067 34.6417 78.3298 34.5497 78.4637 34.4755C78.769 34.2797 79.0602 34.0627 79.3352 33.8262C79.6068 33.5896 79.8377 33.31 80.0188 32.9986C80.153 32.7569 80.2018 32.5885 80.2214 32.5958Z" fill="#FF9A6C"/>
<path d="M80.8682 34.0386C80.8853 34.0386 80.8512 34.1924 80.6754 34.334C80.4996 34.4755 80.2628 34.6318 79.9943 34.8222C79.6793 35.0585 79.3396 35.2598 78.9812 35.4227C79.2687 35.154 79.5847 34.9174 79.9235 34.7172C80.192 34.5366 80.4459 34.3803 80.6217 34.268C80.7113 34.1999 80.7939 34.1231 80.8682 34.0386Z" fill="#FF9A6C"/>
<path d="M81.3566 35.1859C81.3761 35.2128 81.2248 35.3543 80.9977 35.4544C80.7707 35.5545 80.5632 35.5716 80.5559 35.5374C80.5486 35.5033 80.7292 35.4325 80.9465 35.3373C81.1637 35.242 81.3419 35.1566 81.3566 35.1859Z" fill="#FF9A6C"/>
<path d="M81.2516 35.54C81.2516 35.5766 81.0831 35.6108 80.9171 35.7304C80.7511 35.85 80.6608 35.994 80.6266 35.9745C80.5924 35.955 80.6437 35.7621 80.8439 35.6205C81.0441 35.4789 81.2564 35.5156 81.2516 35.54Z" fill="#FF9A6C"/>
</svg>
