<svg width="289" height="216" viewBox="0 0 289 216" fill="none" xmlns="http://www.w3.org/2000/svg">
<path d="M288.152 189.45H0V189.595H288.152V189.45Z" fill="#EBEBEB"/>
<path d="M259.279 198.723H240.192V198.867H259.279V198.723Z" fill="#EBEBEB"/>
<path d="M173.721 198.798H168.713V198.942H173.721V198.798Z" fill="#EBEBEB"/>
<path d="M239.61 193.375H204.201V193.519H239.61V193.375Z" fill="#EBEBEB"/>
<path d="M129.749 196.775H122.436V196.919H129.749V196.775Z" fill="#EBEBEB"/>
<path d="M117.306 196.775H96.0812V196.919H117.306V196.775Z" fill="#EBEBEB"/>
<path d="M44.8882 194.343H30.2328V194.487H44.8882V194.343Z" fill="#EBEBEB"/>
<path d="M91.5054 194.343H48.3461V194.487H91.5054V194.343Z" fill="#EBEBEB"/>
<path d="M136.584 163.747H25.3055C24.4337 163.746 23.5982 163.398 22.9823 162.781C22.3664 162.165 22.0205 161.328 22.0205 160.457V4.03067C22.0281 3.16393 22.3774 2.33518 22.9924 1.72444C23.6075 1.11369 24.4387 0.770284 25.3055 0.768799H136.584C137.457 0.768799 138.294 1.1155 138.911 1.73262C139.528 2.34974 139.875 3.18674 139.875 4.05949V160.457C139.875 161.329 139.528 162.166 138.911 162.784C138.294 163.401 137.457 163.747 136.584 163.747ZM25.3055 0.88406C24.4719 0.885587 23.6731 1.21778 23.0842 1.80772C22.4953 2.39766 22.1646 3.19714 22.1646 4.03067V160.457C22.1646 161.29 22.4953 162.09 23.0842 162.68C23.6731 163.27 24.4719 163.602 25.3055 163.603H136.584C137.418 163.602 138.217 163.27 138.807 162.68C139.397 162.09 139.729 161.291 139.73 160.457V4.03067C139.729 3.19661 139.397 2.39714 138.807 1.80736C138.217 1.21759 137.418 0.885583 136.584 0.88406H25.3055Z" fill="#EBEBEB"/>
<path d="M261.244 163.747H149.96C149.088 163.746 148.251 163.399 147.635 162.782C147.018 162.165 146.671 161.329 146.669 160.457V4.03067C146.678 3.1634 147.029 2.33466 147.645 1.72407C148.261 1.11349 149.092 0.770267 149.96 0.768799H261.244C262.11 0.771798 262.939 1.11588 263.553 1.72646C264.167 2.33704 264.516 3.16492 264.523 4.03067V160.457C264.523 161.327 264.178 162.163 263.563 162.779C262.949 163.396 262.115 163.744 261.244 163.747ZM149.96 0.88406C149.126 0.885583 148.326 1.21759 147.737 1.80736C147.147 2.39714 146.815 3.19661 146.813 4.03067V160.457C146.815 161.291 147.147 162.09 147.737 162.68C148.326 163.27 149.126 163.602 149.96 163.603H261.244C262.078 163.602 262.877 163.27 263.467 162.68C264.057 162.09 264.389 161.291 264.391 160.457V4.03067C264.389 3.19661 264.057 2.39714 263.467 1.80736C262.877 1.21759 262.078 0.885583 261.244 0.88406H149.96Z" fill="#EBEBEB"/>
<path d="M109.947 112.865L250.012 112.865V10.5544L109.947 10.5544V112.865Z" fill="#E6E6E6"/>
<path d="M103.758 112.865L248.577 112.865V10.5544L103.758 10.5544V112.865Z" fill="#F0F0F0"/>
<path d="M239.903 104.198V19.2219L112.419 19.2219V104.198L239.903 104.198Z" fill="#FAFAFA"/>
<path d="M208.916 104.192L179.893 19.2219H152.179L181.201 104.192H208.916Z" fill="white"/>
<path d="M175.248 104.192L146.225 19.2219H135.425L164.448 104.192H175.248Z" fill="white"/>
<path d="M113.526 104.198V19.2219H112.425V104.198H113.526Z" fill="#E6E6E6"/>
<path d="M37.2119 85.0356H86.6702L86.6702 14.9168H37.2119L37.2119 85.0356Z" fill="#E0E0E0"/>
<path d="M33.7137 85.0356H84.6935L84.6935 14.9168H33.7137L33.7137 85.0356Z" fill="#F5F5F5"/>
<path d="M79.6624 79.5034V20.4381L38.7449 20.4381L38.7449 79.5034H79.6624Z" fill="white"/>
<path d="M56.4373 134.125C60.1084 125.066 68.8394 121.695 71.8592 115.972C75.8069 108.48 75.7838 97.2363 72.4355 93.1849C69.5079 89.6579 59.826 113.494 58.7368 116.156C55.7485 123.342 53.8788 130.943 53.1927 138.696C53.2734 133.1 53.3483 127.959 53.4117 123.994C53.6192 111.062 53.8728 106.901 53.988 105.622C54.3915 104.993 54.8698 104.267 55.1406 103.893C57.4862 100.59 62.6845 96.6543 65.2836 91.8537C69.0757 84.84 68.4648 76.4491 65.8023 73.3255C63.0187 70.0579 58.1028 77.7803 55.4922 85.4279C52.8815 93.0754 53.9938 100.412 53.2619 106.751C53.1121 107.996 52.9507 112.727 52.8066 119.297C52.0113 112.232 50.4323 107.5 47.5104 103.086C43.9143 97.6628 40.808 91.0584 37.8458 91.9113C34.8836 92.7642 36.4742 101.507 38.8197 107.639C40.9175 113.102 51.2045 118.554 52.7202 122.945C52.5415 131.843 52.3802 143.116 52.2707 153.622C51.4581 148.199 52.0171 147.744 48.6861 139.439C46.7093 134.506 38.6123 128.42 37.6326 131.809C36.6528 135.197 38.1339 141.606 41.1941 146.101C43.6665 149.72 49.1471 149.714 50.415 151.962C50.7089 152.487 51.6886 154.498 52.2476 155.65C52.1151 168.467 52.0574 179.786 52.1208 183.641L52.651 183.682C52.651 182.685 52.6914 176.19 52.7951 167.545C54.1264 162.935 63.0879 160.278 65.8541 155.501C68.7356 150.504 70.8334 144.672 69.5886 140.77C68.5512 137.514 60.3677 141.923 57.077 147.334C54.8698 150.93 53.5212 154.763 52.8931 159.915C52.968 154.037 53.0544 147.72 53.1351 141.762C53.8094 140.263 55.3251 136.84 56.4373 134.125Z" fill="#E6E6E6"/>
<path d="M61.699 189.451H42.8654C42.3677 189.45 41.8854 189.278 41.5001 188.963C41.1147 188.648 40.8499 188.209 40.7504 187.722L39.4134 181.152H65.1568L63.8198 187.739C63.7146 188.223 63.4469 188.657 63.0611 188.969C62.6754 189.28 62.1947 189.45 61.699 189.451Z" fill="#F0F0F0"/>
<path d="M65.6986 183.681H38.8716C38.5609 183.681 38.2613 183.566 38.0297 183.359C37.7981 183.151 37.6506 182.866 37.6153 182.558L37.039 177.688C37.0196 177.511 37.0376 177.332 37.0918 177.163C37.1461 176.994 37.2353 176.837 37.3538 176.705C37.4723 176.572 37.6174 176.466 37.7796 176.393C37.9418 176.32 38.1175 176.282 38.2953 176.282H66.2115C66.3896 176.281 66.5657 176.319 66.7284 176.391C66.891 176.464 67.0365 176.57 67.1551 176.703C67.2738 176.836 67.363 176.992 67.4169 177.162C67.4708 177.332 67.4881 177.511 67.4678 177.688L66.8915 182.558C66.8578 182.856 66.7194 183.132 66.501 183.338C66.2826 183.544 65.9982 183.666 65.6986 183.681Z" fill="#F0F0F0"/>
<path d="M233.766 185.249H239.523V123.302H233.766V185.249Z" fill="#F0F0F0"/>
<path d="M116.448 189.376L237.316 189.376V185.249L116.448 185.249V189.376Z" fill="#F0F0F0"/>
<path d="M233.772 123.302H114.241V185.249H233.772V123.302Z" fill="#F5F5F5"/>
<path d="M235.126 123.302H241.073V119.395H235.126V123.302Z" fill="#E0E0E0"/>
<path d="M235.126 119.395H112.69V123.302H235.126V119.395Z" fill="#EBEBEB"/>
<path d="M225.19 150.031H122.816C121.593 150.031 120.421 149.546 119.556 148.681C118.691 147.816 118.206 146.644 118.206 145.421V132.166C118.206 130.943 118.691 129.77 119.556 128.906C120.421 128.041 121.593 127.555 122.816 127.555H225.19C226.413 127.555 227.586 128.041 228.451 128.906C229.315 129.77 229.801 130.943 229.801 132.166V145.421C229.801 146.644 229.315 147.816 228.451 148.681C227.586 149.546 226.413 150.031 225.19 150.031ZM122.816 128.708C121.899 128.708 121.019 129.072 120.371 129.721C119.722 130.369 119.358 131.249 119.358 132.166V145.421C119.358 146.338 119.722 147.217 120.371 147.866C121.019 148.514 121.899 148.879 122.816 148.879H225.19C226.108 148.879 226.987 148.514 227.635 147.866C228.284 147.217 228.648 146.338 228.648 145.421V132.166C228.648 131.249 228.284 130.369 227.635 129.721C226.987 129.072 226.108 128.708 225.19 128.708H122.816Z" fill="white"/>
<path d="M225.19 177.803H122.816C121.593 177.803 120.421 177.318 119.556 176.453C118.691 175.588 118.206 174.416 118.206 173.193V159.938C118.206 158.715 118.691 157.543 119.556 156.678C120.421 155.813 121.593 155.328 122.816 155.328H225.19C226.413 155.328 227.586 155.813 228.451 156.678C229.315 157.543 229.801 158.715 229.801 159.938V173.193C229.801 174.416 229.315 175.588 228.451 176.453C227.586 177.318 226.413 177.803 225.19 177.803ZM122.816 156.434C121.899 156.434 121.019 156.798 120.371 157.447C119.722 158.095 119.358 158.975 119.358 159.892V173.147C119.358 174.064 119.722 174.944 120.371 175.592C121.019 176.24 121.899 176.605 122.816 176.605H225.19C226.108 176.605 226.987 176.24 227.635 175.592C228.284 174.944 228.648 174.064 228.648 173.147V159.892C228.648 158.975 228.284 158.095 227.635 157.447C226.987 156.798 226.108 156.434 225.19 156.434H122.816Z" fill="white"/>
<path d="M201.925 140.811H146.081C145.685 140.811 145.305 140.654 145.024 140.374C144.743 140.094 144.584 139.714 144.583 139.318V138.223C144.584 137.827 144.743 137.447 145.024 137.167C145.305 136.888 145.685 136.73 146.081 136.73H201.925C202.322 136.73 202.702 136.888 202.983 137.167C203.263 137.447 203.422 137.827 203.423 138.223V139.318C203.422 139.714 203.263 140.094 202.983 140.374C202.702 140.654 202.322 140.811 201.925 140.811ZM146.081 137.929C145.991 137.931 145.905 137.967 145.84 138.03C145.776 138.093 145.739 138.179 145.736 138.269V139.364C145.739 139.454 145.776 139.54 145.84 139.603C145.905 139.667 145.991 139.703 146.081 139.704H201.925C202.016 139.704 202.103 139.669 202.168 139.605C202.232 139.541 202.269 139.455 202.271 139.364V138.269C202.269 138.178 202.232 138.092 202.168 138.028C202.103 137.965 202.016 137.929 201.925 137.929H146.081Z" fill="white"/>
<path d="M201.925 168.583H146.081C145.685 168.583 145.305 168.426 145.024 168.146C144.743 167.866 144.584 167.486 144.583 167.09V165.995C144.584 165.599 144.743 165.219 145.024 164.939C145.305 164.66 145.685 164.502 146.081 164.502H201.925C202.322 164.502 202.702 164.66 202.983 164.939C203.263 165.219 203.422 165.599 203.423 165.995V167.09C203.422 167.486 203.263 167.866 202.983 168.146C202.702 168.426 202.322 168.583 201.925 168.583ZM146.081 165.655C145.991 165.656 145.905 165.693 145.84 165.756C145.776 165.819 145.739 165.905 145.736 165.995V167.09C145.739 167.18 145.776 167.266 145.84 167.329C145.905 167.393 145.991 167.429 146.081 167.43H201.925C202.016 167.43 202.103 167.394 202.168 167.331C202.232 167.267 202.269 167.181 202.271 167.09V165.995C202.269 165.904 202.232 165.818 202.168 165.754C202.103 165.691 202.016 165.655 201.925 165.655H146.081Z" fill="white"/>
<path d="M141.194 215.476C202.906 215.476 252.934 212.555 252.934 208.952C252.934 205.349 202.906 202.429 141.194 202.429C79.4823 202.429 29.4549 205.349 29.4549 208.952C29.4549 212.555 79.4823 215.476 141.194 215.476Z" fill="#F5F5F5"/>
<path d="M215.993 65.7487L215.773 69.1418L216.349 69.179L216.568 65.7859L215.993 65.7487Z" fill="#6F2877"/>
<path d="M216.867 51.9678L216.148 63.1191L216.723 63.1562L217.442 52.0049L216.867 51.9678Z" fill="#6F2877"/>
<path d="M210.028 35.7734H142.283C140.544 35.8039 138.878 36.4815 137.611 37.6738C136.344 38.8662 135.567 40.4878 135.431 42.2222L126.677 177.365C126.613 178.194 126.722 179.026 126.997 179.81C127.272 180.594 127.707 181.313 128.275 181.92C128.842 182.527 129.529 183.009 130.293 183.336C131.057 183.663 131.88 183.828 132.711 183.82H200.444C202.187 183.791 203.856 183.114 205.126 181.92C206.396 180.727 207.176 179.103 207.314 177.365L216.062 42.2222C216.126 41.3941 216.017 40.5617 215.742 39.778C215.467 38.9943 215.032 38.2764 214.464 37.6699C213.897 37.0634 213.209 36.5815 212.445 36.2551C211.682 35.9286 210.858 35.7645 210.028 35.7734Z" fill="#6F2877"/>
<path opacity="0.7" d="M207.878 35.7734H142.283C140.544 35.8039 138.878 36.4815 137.611 37.6738C136.344 38.8662 135.567 40.4878 135.431 42.2222L126.677 177.365C126.613 178.194 126.722 179.026 126.997 179.81C127.272 180.594 127.707 181.313 128.275 181.92C128.842 182.527 129.529 183.009 130.293 183.336C131.057 183.663 131.88 183.828 132.711 183.82H198.294C200.037 183.791 201.706 183.114 202.977 181.92C204.247 180.727 205.027 179.103 205.164 177.365L213.912 42.2222C213.976 41.3941 213.867 40.5617 213.592 39.778C213.317 38.9943 212.882 38.2764 212.315 37.6699C211.747 37.0634 211.06 36.5815 210.296 36.2551C209.532 35.9286 208.709 35.7645 207.878 35.7734Z" fill="white"/>
<path d="M202.346 173.833H130.193C129.923 173.833 129.656 173.778 129.408 173.672C129.16 173.565 128.937 173.408 128.752 173.211C128.567 173.015 128.425 172.782 128.334 172.528C128.242 172.274 128.204 172.004 128.222 171.735L136.14 49.4435C136.172 48.9441 136.393 48.4756 136.758 48.1331C137.123 47.7906 137.605 47.5998 138.105 47.5994H210.264C210.534 47.5996 210.802 47.6552 211.049 47.7627C211.297 47.8702 211.52 48.0274 211.705 48.2245C211.89 48.4216 212.032 48.6545 212.123 48.9088C212.214 49.163 212.252 49.4333 212.235 49.7029L204.317 171.989C204.284 172.489 204.063 172.958 203.696 173.301C203.33 173.644 202.847 173.834 202.346 173.833Z" fill="white"/>
<path d="M186.313 43.5998H160.085C159.951 43.601 159.817 43.5741 159.693 43.5209C159.569 43.4677 159.457 43.3893 159.365 43.2907C159.273 43.1921 159.202 43.0754 159.158 42.948C159.113 42.8207 159.095 42.6855 159.106 42.5509C159.132 42.2714 159.26 42.0112 159.465 41.8191C159.67 41.6271 159.937 41.5164 160.218 41.5078H186.446C186.58 41.5058 186.714 41.5319 186.838 41.5845C186.962 41.637 187.074 41.7149 187.166 41.813C187.258 41.9112 187.329 42.0275 187.373 42.1546C187.418 42.2816 187.436 42.4166 187.425 42.5509C187.4 42.8314 187.273 43.093 187.068 43.2863C186.863 43.4795 186.595 43.5911 186.313 43.5998Z" fill="white"/>
<path d="M165.843 178.968C165.801 179.658 165.498 180.307 164.997 180.784C164.495 181.261 163.832 181.53 163.14 181.538C162.808 181.541 162.478 181.475 162.172 181.346C161.866 181.216 161.59 181.024 161.362 180.783C161.133 180.542 160.956 180.256 160.843 179.944C160.729 179.632 160.682 179.299 160.702 178.968C160.746 178.278 161.049 177.63 161.55 177.154C162.051 176.679 162.714 176.41 163.405 176.403C163.737 176.399 164.066 176.464 164.372 176.593C164.678 176.722 164.954 176.913 165.183 177.154C165.412 177.395 165.588 177.68 165.702 177.992C165.815 178.304 165.863 178.636 165.843 178.968Z" fill="white"/>
<path opacity="0.2" d="M194.485 81.4512H132.872L128.954 141.905H194.485C196.195 141.902 197.834 141.222 199.044 140.014C200.253 138.805 200.935 137.166 200.94 135.457V87.9231C200.941 86.2091 200.262 84.5647 199.052 83.3512C197.842 82.1376 196.199 81.4542 194.485 81.4512Z" fill="#6F2877"/>
<path d="M188.745 76.0974H113.238C109.673 76.0974 106.783 78.9872 106.783 82.552V130.103C106.783 133.668 109.673 136.557 113.238 136.557H188.745C192.31 136.557 195.2 133.668 195.2 130.103V82.552C195.2 78.9872 192.31 76.0974 188.745 76.0974Z" fill="#6F2877"/>
<path d="M104.72 75.4002C104.569 75.3995 104.424 75.3395 104.317 75.233L103.279 74.2015C103.171 74.0929 103.11 73.9458 103.11 73.7923C103.11 73.6388 103.171 73.4916 103.279 73.3831C103.388 73.2746 103.535 73.2136 103.688 73.2136C103.842 73.2136 103.989 73.2746 104.098 73.3831L105.129 74.4205C105.237 74.5284 105.297 74.6745 105.297 74.8268C105.297 74.979 105.237 75.1251 105.129 75.233C105.075 75.2865 105.011 75.3287 104.941 75.3574C104.871 75.3861 104.796 75.4006 104.72 75.4002Z" fill="#6F2877"/>
<path d="M103.158 79.0191H101.7C101.547 79.0191 101.401 78.9583 101.293 78.8503C101.185 78.7422 101.124 78.5956 101.124 78.4428C101.124 78.2899 101.185 78.1433 101.293 78.0352C101.401 77.9272 101.547 77.8665 101.7 77.8665H103.158C103.311 77.8665 103.458 77.9272 103.566 78.0352C103.674 78.1433 103.735 78.2899 103.735 78.4428C103.735 78.5956 103.674 78.7422 103.566 78.8503C103.458 78.9583 103.311 79.0191 103.158 79.0191Z" fill="#6F2877"/>
<path d="M108.391 73.844C108.245 73.8443 108.104 73.7892 107.997 73.6897C107.89 73.5902 107.825 73.4537 107.815 73.308L107.711 71.8499C107.706 71.7742 107.715 71.6982 107.739 71.6261C107.763 71.5541 107.801 71.4875 107.851 71.4302C107.901 71.3729 107.961 71.326 108.029 71.2922C108.097 71.2584 108.171 71.2384 108.247 71.2333C108.399 71.2238 108.549 71.2748 108.663 71.3753C108.777 71.4757 108.848 71.6173 108.858 71.7693L108.967 73.2273C108.973 73.303 108.963 73.3791 108.939 73.4511C108.915 73.5231 108.877 73.5897 108.828 73.647C108.778 73.7043 108.717 73.7512 108.649 73.785C108.581 73.8188 108.507 73.8388 108.431 73.844H108.391Z" fill="#6F2877"/>
<path d="M157.44 130.339L180.625 153.518V130.339H157.44Z" fill="#6F2877"/>
<path d="M163.797 120.184L162.644 115.292C162.353 114.005 162.353 112.671 162.644 111.384L164.246 104.417C164.902 101.446 164.547 98.3406 163.238 95.594C161.929 92.8474 159.74 90.6163 157.02 89.2543C157.071 89.1261 157.115 88.9953 157.152 88.8624C157.247 88.4397 157.257 88.0026 157.183 87.5759C157.108 87.1491 156.951 86.7413 156.719 86.3755C156.487 86.0097 156.185 85.6932 155.831 85.4441C155.476 85.1949 155.077 85.018 154.654 84.9234C154.231 84.8288 153.794 84.8184 153.367 84.8927C152.941 84.9671 152.533 85.1247 152.167 85.3567C151.801 85.5887 151.485 85.8905 151.235 86.2448C150.986 86.5991 150.809 86.999 150.715 87.4217C150.686 87.5564 150.669 87.6932 150.663 87.8308C147.621 87.9022 144.691 88.9861 142.335 90.911C139.979 92.8359 138.332 95.4917 137.656 98.4579L136.094 105.431C135.807 106.715 135.236 107.918 134.423 108.952L131.316 112.9C131.013 113.287 130.812 113.745 130.733 114.231C130.653 114.717 130.698 115.215 130.864 115.678C131.029 116.142 131.308 116.556 131.677 116.883C132.045 117.209 132.49 117.437 132.97 117.545L160.345 123.677C160.823 123.78 161.32 123.761 161.79 123.622C162.259 123.482 162.685 123.226 163.029 122.878C163.374 122.53 163.624 122.101 163.758 121.63C163.893 121.159 163.906 120.662 163.797 120.184Z" fill="white"/>
<path d="M143.125 121.694C142.917 121.649 142.7 121.655 142.495 121.712C142.29 121.77 142.102 121.877 141.948 122.025C141.794 122.173 141.679 122.356 141.613 122.559C141.547 122.761 141.532 122.977 141.569 123.187C141.726 124.113 142.155 124.971 142.802 125.653C143.449 126.334 144.283 126.807 145.2 127.012C146.117 127.218 147.073 127.145 147.949 126.805C148.824 126.464 149.578 125.871 150.115 125.1C150.238 124.927 150.316 124.726 150.343 124.515C150.369 124.304 150.344 124.089 150.268 123.891C150.192 123.692 150.069 123.515 149.909 123.375C149.748 123.235 149.556 123.137 149.349 123.089L143.125 121.694Z" fill="white"/>
<path d="M122.101 111.995C121.959 111.996 121.818 111.961 121.692 111.894C121.566 111.827 121.459 111.729 121.381 111.609C118.659 107.531 117.668 102.539 118.627 97.7305C119.586 92.9222 122.415 88.6916 126.493 85.9693C126.684 85.8424 126.917 85.7967 127.142 85.8421C127.367 85.8875 127.565 86.0203 127.691 86.2113C127.818 86.4024 127.864 86.636 127.819 86.8608C127.773 87.0856 127.64 87.2832 127.449 87.4101C123.758 89.8825 121.199 93.7191 120.334 98.0771C119.47 102.435 120.371 106.958 122.839 110.652C122.966 110.843 123.013 111.076 122.969 111.301C122.925 111.525 122.793 111.723 122.603 111.851C122.454 111.949 122.279 111.999 122.101 111.995Z" fill="white"/>
<path d="M125.761 109.54C125.619 109.539 125.48 109.504 125.355 109.436C125.231 109.369 125.125 109.272 125.046 109.154C122.975 106.048 122.221 102.246 122.95 98.5838C123.679 94.9217 125.832 91.6989 128.936 89.6232C129.031 89.56 129.137 89.5161 129.249 89.4939C129.36 89.4717 129.475 89.4718 129.587 89.494C129.698 89.5162 129.804 89.5601 129.899 89.6234C129.993 89.6866 130.075 89.7678 130.138 89.8624C130.201 89.957 130.245 90.0631 130.267 90.1747C130.289 90.2863 130.289 90.4012 130.267 90.5127C130.245 90.6243 130.201 90.7304 130.138 90.825C130.075 90.9196 129.993 91.0008 129.899 91.064C127.174 92.8821 125.284 95.7081 124.643 98.9201C124.002 102.132 124.663 105.467 126.481 108.192C126.609 108.382 126.655 108.615 126.611 108.84C126.567 109.065 126.435 109.263 126.245 109.39C126.102 109.486 125.933 109.538 125.761 109.54Z" fill="white"/>
<path d="M129.426 107.091C129.285 107.092 129.146 107.057 129.021 106.991C128.896 106.925 128.79 106.828 128.712 106.711C128.005 105.653 127.515 104.467 127.268 103.22C127.02 101.973 127.022 100.689 127.271 99.4427C127.52 98.1961 128.013 97.0108 128.721 95.9548C129.429 94.8988 130.339 93.9928 131.397 93.2886C131.587 93.1704 131.816 93.1307 132.035 93.1778C132.254 93.225 132.446 93.3553 132.571 93.5414C132.696 93.7275 132.744 93.9547 132.704 94.1752C132.665 94.3958 132.541 94.5924 132.36 94.7236C131.491 95.3032 130.746 96.0481 130.166 96.9159C129.585 97.7837 129.182 98.7572 128.978 99.781C128.774 100.805 128.774 101.859 128.977 102.883C129.181 103.907 129.584 104.88 130.164 105.748C130.29 105.939 130.336 106.172 130.291 106.396C130.247 106.62 130.116 106.818 129.928 106.947C129.779 107.045 129.604 107.095 129.426 107.091Z" fill="white"/>
<path d="M171.94 124.15C171.747 124.149 171.559 124.084 171.407 123.964C171.255 123.845 171.148 123.678 171.102 123.49C171.056 123.302 171.075 123.104 171.155 122.928C171.235 122.752 171.371 122.608 171.542 122.519C175.491 120.479 178.468 116.954 179.818 112.72C181.169 108.486 180.784 103.889 178.746 99.9391C178.684 99.8377 178.644 99.7246 178.628 99.6069C178.611 99.4892 178.619 99.3694 178.652 99.255C178.684 99.1406 178.739 99.0341 178.814 98.942C178.889 98.85 178.982 98.7744 179.088 98.72C179.194 98.6656 179.309 98.6335 179.428 98.6258C179.547 98.6181 179.665 98.635 179.777 98.6753C179.889 98.7156 179.991 98.7785 180.078 98.8601C180.164 98.9417 180.233 99.0402 180.279 99.1495C181.392 101.308 182.069 103.664 182.271 106.084C182.473 108.504 182.196 110.94 181.457 113.253C180.717 115.566 179.529 117.711 177.96 119.565C176.392 121.419 174.473 122.945 172.315 124.057C172.198 124.114 172.07 124.146 171.94 124.15Z" fill="white"/>
<path d="M169.917 120.237C169.724 120.236 169.536 120.171 169.384 120.051C169.233 119.932 169.125 119.765 169.079 119.577C169.034 119.389 169.052 119.191 169.132 119.015C169.212 118.839 169.348 118.695 169.52 118.606C170.962 117.862 172.243 116.842 173.29 115.602C174.338 114.363 175.131 112.93 175.624 111.384C176.117 109.838 176.3 108.21 176.163 106.594C176.027 104.977 175.573 103.403 174.827 101.962C174.722 101.758 174.702 101.52 174.771 101.301C174.841 101.083 174.995 100.9 175.199 100.795C175.403 100.689 175.641 100.669 175.86 100.739C176.078 100.809 176.261 100.963 176.366 101.167C177.215 102.809 177.733 104.604 177.888 106.446C178.044 108.289 177.835 110.145 177.273 111.907C176.711 113.669 175.807 115.303 174.613 116.715C173.419 118.128 171.959 119.291 170.315 120.139C170.193 120.204 170.056 120.238 169.917 120.237Z" fill="white"/>
<path d="M167.894 116.324C167.702 116.32 167.516 116.253 167.365 116.133C167.215 116.013 167.108 115.846 167.063 115.659C167.017 115.472 167.035 115.275 167.114 115.099C167.192 114.923 167.327 114.778 167.497 114.687C168.425 114.209 169.249 113.554 169.923 112.757C170.597 111.96 171.108 111.039 171.425 110.045C171.743 109.051 171.861 108.004 171.773 106.964C171.685 105.924 171.394 104.912 170.914 103.985C170.809 103.781 170.789 103.543 170.858 103.324C170.928 103.106 171.082 102.923 171.286 102.818C171.49 102.712 171.728 102.692 171.946 102.762C172.165 102.832 172.347 102.986 172.453 103.19C173.626 105.472 173.845 108.127 173.063 110.571C172.281 113.015 170.561 115.048 168.28 116.226C168.161 116.287 168.029 116.321 167.894 116.324Z" fill="white"/>
<path d="M117.197 41.6H112.794C112.68 41.6029 112.57 41.6461 112.485 41.7221C112.399 41.798 112.344 41.9017 112.327 42.0149L111.405 50.7978C111.399 50.8507 111.403 50.9044 111.419 50.9553C111.435 51.0062 111.462 51.0531 111.497 51.093C111.533 51.1328 111.576 51.1646 111.625 51.1862C111.674 51.2079 111.726 51.2189 111.78 51.2185H116.183C116.298 51.2153 116.408 51.1713 116.494 51.0941C116.579 51.017 116.634 50.9119 116.649 50.7978L117.572 42.0149C117.578 41.9622 117.573 41.9088 117.558 41.8582C117.542 41.8075 117.515 41.7609 117.479 41.7215C117.444 41.6821 117.4 41.6509 117.351 41.6299C117.303 41.6089 117.25 41.5987 117.197 41.6Z" fill="#6F2877"/>
<path opacity="0.4" d="M116.799 41.6H112.794C112.68 41.6029 112.57 41.6461 112.485 41.7221C112.399 41.798 112.344 41.9018 112.327 42.0149L111.405 50.7978C111.399 50.8507 111.403 50.9044 111.419 50.9553C111.435 51.0062 111.462 51.0532 111.497 51.093C111.533 51.1328 111.576 51.1646 111.625 51.1862C111.674 51.2079 111.726 51.2189 111.78 51.2185H115.814C115.928 51.2151 116.038 51.1709 116.122 51.0937C116.207 51.0165 116.261 50.9115 116.275 50.7978L117.197 42.0149C117.205 41.96 117.201 41.904 117.184 41.8511C117.167 41.7982 117.138 41.7498 117.1 41.7098C117.062 41.6697 117.015 41.639 116.962 41.6199C116.91 41.6009 116.855 41.5941 116.799 41.6Z" fill="white"/>
<path d="M95.1304 204.002C95.7067 204.002 96.283 203.916 96.4847 203.651C96.5338 203.579 96.56 203.495 96.56 203.408C96.56 203.322 96.5338 203.238 96.4847 203.166C96.4007 203.037 96.271 202.945 96.1216 202.907C95.3379 202.694 93.7473 203.627 93.6781 203.668C93.6601 203.679 93.6461 203.696 93.6378 203.715C93.6296 203.735 93.6276 203.757 93.632 203.777C93.6363 203.8 93.6474 203.821 93.6638 203.838C93.6803 203.854 93.7013 203.865 93.7242 203.87C94.1884 203.953 94.6588 203.997 95.1304 204.002ZM95.8335 203.097C95.9043 203.088 95.9759 203.088 96.0467 203.097C96.1383 203.12 96.2184 203.175 96.2715 203.253C96.3522 203.391 96.3291 203.46 96.2715 203.495C96.0698 203.8 94.8883 203.806 94.0181 203.685C94.577 203.368 95.1947 203.168 95.8335 203.097Z" fill="#6F2877"/>
<path d="M93.7126 203.87H93.7587C94.335 203.616 95.3839 202.608 95.2744 202.077C95.2744 201.956 95.1534 201.801 94.8479 201.772C94.7398 201.76 94.6304 201.77 94.5264 201.802C94.4224 201.834 94.3259 201.886 94.2428 201.956C93.6665 202.446 93.6031 203.685 93.5974 203.754C93.5966 203.775 93.601 203.795 93.6101 203.813C93.6191 203.831 93.6326 203.847 93.6492 203.858C93.6688 203.868 93.6908 203.872 93.7126 203.87ZM94.773 201.979H94.8364C95.0381 201.979 95.0554 202.077 95.0554 202.1C95.1246 202.417 94.3984 203.213 93.8394 203.558C93.8747 203.029 94.0764 202.525 94.4157 202.118C94.5156 202.032 94.6416 201.983 94.773 201.979Z" fill="#6F2877"/>
<path d="M93.2401 192.954H88.572V203.76H93.2401V192.954Z" fill="#FF8B7B"/>
<path d="M54.72 198.608L59.3823 199.115L62.4194 188.626L57.7571 188.119L54.72 198.608Z" fill="#FF8B7B"/>
<path d="M61.5492 200.17C62.1255 200.32 62.7018 200.383 62.9611 200.17C63.0245 200.111 63.0675 200.033 63.0841 199.948C63.1007 199.864 63.0899 199.776 63.0533 199.697C63.0296 199.625 62.992 199.559 62.9425 199.501C62.8931 199.444 62.8328 199.397 62.7652 199.363C62.0448 198.965 60.2583 199.467 60.1833 199.484C60.1614 199.49 60.1418 199.502 60.1274 199.52C60.1129 199.538 60.1043 199.559 60.1027 199.582C60.1026 199.605 60.1091 199.627 60.1214 199.647C60.1336 199.666 60.1511 199.682 60.1718 199.691C60.6165 199.89 61.0773 200.05 61.5492 200.17ZM62.4597 199.478C62.5297 199.495 62.5974 199.52 62.6614 199.553C62.7468 199.594 62.813 199.666 62.8459 199.755C62.892 199.91 62.8459 199.968 62.8459 200.003C62.5692 200.239 61.4109 199.956 60.5868 199.622C61.1961 199.455 61.8324 199.408 62.4597 199.484V199.478Z" fill="#6F2877"/>
<path d="M60.1948 199.703H60.2409C60.8172 199.594 62.1427 198.89 62.1658 198.36C62.1658 198.233 62.1197 198.061 61.8258 197.957C61.7222 197.92 61.6123 197.903 61.5024 197.909C61.3926 197.915 61.285 197.943 61.1861 197.991C60.506 198.32 60.1257 199.507 60.1084 199.553C60.0988 199.57 60.0937 199.589 60.0937 199.608C60.0937 199.627 60.0988 199.646 60.1084 199.663C60.1182 199.676 60.1312 199.687 60.1464 199.694C60.1615 199.701 60.1782 199.704 60.1948 199.703ZM61.6932 198.153H61.7624C61.9526 198.222 61.9468 198.303 61.9468 198.326C61.9468 198.648 61.0247 199.23 60.3908 199.421C60.5504 198.922 60.8654 198.488 61.2898 198.182C61.4164 198.124 61.5597 198.113 61.6932 198.153Z" fill="#6F2877"/>
<path d="M59.6301 198.683L54.5298 197.219C54.4422 197.193 54.3481 197.198 54.2639 197.234C54.1797 197.269 54.1107 197.334 54.0688 197.415L52.19 201.144C52.1461 201.238 52.1236 201.341 52.124 201.445C52.1243 201.549 52.1476 201.652 52.1922 201.746C52.2368 201.84 52.3015 201.923 52.3818 201.989C52.4621 202.055 52.556 202.103 52.6568 202.129C54.4434 202.607 55.3366 202.757 57.5785 203.397C58.9558 203.795 61.7624 204.751 63.67 205.299C65.5775 205.846 66.2806 204.054 65.543 203.662C62.235 201.904 61.1746 200.487 60.2986 199.173C60.1415 198.935 59.9043 198.761 59.6301 198.683Z" fill="#464547"/>
<path d="M93.1882 203.218H88.0937C88.002 203.217 87.9131 203.249 87.8432 203.309C87.7733 203.368 87.7272 203.45 87.7133 203.541L86.9699 207.662C86.9532 207.764 86.959 207.87 86.987 207.97C87.0149 208.07 87.0642 208.163 87.1316 208.243C87.199 208.322 87.2828 208.386 87.3773 208.43C87.4717 208.474 87.5746 208.497 87.6787 208.497C89.5171 208.463 92.1681 208.353 94.4791 208.353C97.182 208.353 98.6573 208.503 101.827 208.503C103.74 208.503 104.19 206.567 103.377 206.388C99.6947 205.593 97.5681 205.506 94.3293 203.558C93.9852 203.347 93.5918 203.23 93.1882 203.218Z" fill="#464547"/>
<path opacity="0.2" d="M93.2401 192.954H88.572V198.527H93.2401V192.954Z" fill="#464547"/>
<path opacity="0.2" d="M57.7571 188.125L62.4194 188.626L60.7308 194.447L56.1895 193.531L57.7571 188.125Z" fill="#464547"/>
<path d="M85.5637 85.4854C85.5637 85.4854 82.9876 120.721 80.6824 134.079C78.1409 148.712 63.353 193.513 63.353 193.513L54.8813 191.963C54.8813 191.963 65.5602 149.893 66.7417 135.405C68.0268 119.683 69.5713 87.2777 69.5713 87.2777L85.5637 85.4854Z" fill="#6F2877"/>
<path opacity="0.3" d="M81.2242 100.123C81.6852 98.187 82.7456 100.625 83.9789 104.849C83.0453 115.303 81.8293 127.411 80.6651 134.085C80.4058 135.578 80.0139 137.387 79.5125 139.439C79.9563 124.524 79.9736 105.362 81.2242 100.123Z" fill="#464547"/>
<path d="M94.3639 84.5288C94.3639 84.5288 97.7467 119.948 97.862 134.177C97.983 148.983 94.9344 197.45 94.9344 197.45H87.0217C87.0217 197.45 84.6474 149.847 83.6619 135.307C82.5842 119.459 78.0487 86.3211 78.0487 86.3211L94.3639 84.5288Z" fill="#6F2877"/>
<path d="M65.1223 190.661C65.1568 190.661 63.791 193.732 63.791 193.732L54.2589 192.003L54.8352 189.151L65.1223 190.661Z" fill="#464547"/>
<path d="M96.3175 194.297C96.3521 194.297 96.0121 197.582 96.0121 197.582H86.3993L86.0074 194.654L96.3175 194.297Z" fill="#464547"/>
<path d="M69.8018 52.9588C69.1679 54.1864 68.4706 55.4773 67.8366 56.7509L65.9003 60.5891C65.2721 61.8685 64.6554 63.1536 64.0619 64.4388C63.4683 65.7239 62.9092 67.0033 62.4309 68.2827L62.3848 66.2657C62.7217 67.3014 63.126 68.3141 63.595 69.297C63.8198 69.8042 64.108 70.2883 64.3558 70.7897C64.6036 71.291 64.9321 71.7694 65.226 72.2419C65.8375 73.2188 66.4992 74.1633 67.2085 75.0716C67.5658 75.5269 67.9231 75.9937 68.3034 76.4317C68.6838 76.8696 69.0987 77.3249 69.456 77.6995L69.5713 77.8263C69.8368 78.1179 69.9898 78.4944 70.003 78.8885C70.0161 79.2826 69.8885 79.6685 69.643 79.9771C69.3976 80.2857 69.0502 80.4968 68.6633 80.5726C68.2763 80.6484 67.875 80.584 67.5312 80.3909C66.9355 80.0554 66.3584 79.6879 65.8023 79.2901C65.226 78.9098 64.7188 78.5121 64.2002 78.0914C63.1619 77.2397 62.1872 76.3133 61.2841 75.3194C60.3621 74.3095 59.5237 73.2263 58.7772 72.0806C58.0101 70.9134 57.343 69.6834 56.7831 68.4038C56.5365 67.8607 56.4936 67.247 56.6621 66.6749L56.7428 66.404C57.1808 64.8998 57.6707 63.4418 58.2124 62.0126C58.7541 60.5833 59.3304 59.1829 59.9413 57.8055C60.5522 56.4282 61.1919 55.0681 61.8661 53.7253C62.5404 52.3825 63.2205 51.0686 63.9985 49.7258C64.4284 48.9573 65.1443 48.3895 65.9905 48.1458C66.8367 47.9021 67.7449 48.0022 68.5177 48.4243C69.2905 48.8464 69.8656 49.5564 70.1179 50.4001C70.3702 51.2438 70.2794 52.1529 69.8652 52.93L69.8018 52.9588Z" fill="#FF8B7B"/>
<path d="M73.1098 50.9072C73.3403 55.3044 68.3495 63.3784 68.3495 63.3784L58.074 58.2435C59.3228 54.6015 61.2553 51.2312 63.7679 48.3138C69.2025 42.3088 72.8966 46.8731 73.1098 50.9072Z" fill="#464547"/>
<path d="M66.148 79.5668L68.217 83.0246L72.522 80.2699C71.7701 78.9224 70.5925 77.8624 69.1736 77.2558C68.8455 77.151 68.4908 77.1672 68.1736 77.3015C67.8564 77.4358 67.5978 77.6792 67.4447 77.9877L66.148 79.5668Z" fill="#FF8B7B"/>
<path d="M69.9401 84.5001L71.9399 84.1255C72.1082 84.0944 72.2688 84.0302 72.4122 83.9367C72.5556 83.8433 72.6791 83.7223 72.7755 83.5809C72.872 83.4394 72.9394 83.2803 72.9741 83.1126C73.0087 82.945 73.0098 82.7721 72.9772 82.604L72.522 80.2988L68.217 83.0536L68.5051 83.7509C68.623 84.0207 68.8296 84.2421 69.0906 84.3784C69.3516 84.5146 69.6514 84.5576 69.9401 84.5001Z" fill="#FF8B7B"/>
<path d="M82.0828 28.8117C82.1232 29.1863 82.3594 29.4802 82.6015 29.4571C82.8435 29.4341 83.0049 29.1171 82.9588 28.7425C82.9127 28.3679 82.6822 28.074 82.4401 28.0913C82.1981 28.1086 82.0367 28.4313 82.0828 28.8117Z" fill="#464547"/>
<path d="M82.3249 29.4801C82.9078 30.5994 83.6343 31.6379 84.4861 32.5691C83.9098 33.2434 82.7571 33.0474 82.7571 33.0474L82.3249 29.4801Z" fill="#FF5652"/>
<path d="M80.4692 26.8234C80.4992 26.8279 80.5297 26.8255 80.5587 26.8165C80.5876 26.8076 80.6142 26.7922 80.6363 26.7715C80.8361 26.5844 81.0788 26.4492 81.3431 26.3779C81.6074 26.3066 81.8852 26.3012 82.152 26.3624C82.1792 26.3711 82.208 26.3741 82.2364 26.3711C82.2649 26.3682 82.2924 26.3594 82.3173 26.3454C82.3422 26.3313 82.3639 26.3122 82.3811 26.2894C82.3983 26.2665 82.4105 26.2403 82.4171 26.2125C82.4315 26.1553 82.4234 26.0946 82.3945 26.0432C82.3655 25.9917 82.3179 25.9533 82.2615 25.9359C81.9246 25.8555 81.5731 25.8586 81.2376 25.945C80.9021 26.0314 80.5929 26.1984 80.3367 26.4315C80.3152 26.452 80.2981 26.4766 80.2865 26.5038C80.2748 26.531 80.2688 26.5604 80.2688 26.59C80.2688 26.6196 80.2748 26.649 80.2865 26.6762C80.2981 26.7034 80.3152 26.728 80.3367 26.7485C80.3526 26.7692 80.3726 26.7865 80.3954 26.7993C80.4181 26.8122 80.4432 26.8204 80.4692 26.8234Z" fill="#464547"/>
<path d="M70.4646 32.9843C71.5653 36.321 73.0291 42.4702 70.9429 44.9368C70.9429 44.9368 72.3145 48.2966 78.6308 47.7607C85.5868 47.1844 81.5123 44.0435 81.5123 44.0435C77.605 43.4672 77.3399 40.6491 77.6626 37.9577L70.4646 32.9843Z" fill="#FF8B7B"/>
<path d="M69.4503 46.1526C68.7991 45.1095 68.0729 43.9166 69.3062 43.4728C70.6605 42.983 78.2677 42.1877 80.9763 42.8562C83.685 43.5247 83.1317 45.7377 83.1317 45.7377L69.4503 46.1526Z" fill="#6F2877"/>
<path d="M91.7244 47.5588C92.7156 48.4694 93.7876 49.4779 94.8537 50.4C95.9199 51.322 96.9976 52.2672 98.081 53.1777C99.1645 54.0883 100.271 54.947 101.383 55.7826C102.495 56.6183 103.625 57.379 104.755 58.0879L102.449 57.8689C103.407 57.6133 104.314 57.1941 105.129 56.6298C106.082 55.964 106.966 55.2053 107.769 54.3649C108.634 53.4796 109.444 52.5423 110.195 51.5583C110.581 51.057 110.967 50.5498 111.348 50.0254C111.728 49.5009 112.074 48.9477 112.391 48.4636L112.454 48.3714C112.673 48.0371 113.005 47.7926 113.389 47.6826C113.773 47.5725 114.184 47.6043 114.547 47.772C114.909 47.9397 115.199 48.2322 115.364 48.5961C115.529 48.9601 115.558 49.3712 115.445 49.7545C115.226 50.5037 114.996 51.1434 114.73 51.8119C114.465 52.4804 114.189 53.1374 113.877 53.7829C113.246 55.0995 112.508 56.362 111.67 57.5576C110.791 58.8255 109.765 59.986 108.616 61.0155C107.343 62.1513 105.867 63.0353 104.265 63.6204C103.921 63.7416 103.556 63.7933 103.192 63.7725C102.828 63.7517 102.472 63.6589 102.144 63.4993L101.954 63.4014C100.523 62.6981 99.1336 61.913 97.7929 61.05C96.4847 60.2029 95.2168 59.3211 93.995 58.376C92.7733 57.4309 91.5918 56.4742 90.4392 55.4945C89.2866 54.5148 88.1801 53.489 87.0563 52.3421C86.4583 51.7184 86.1251 50.8873 86.1266 50.0232C86.128 49.1591 86.464 48.3292 87.0641 47.7075C87.6642 47.0858 88.4818 46.7206 89.3453 46.6886C90.2087 46.6566 91.0511 46.9602 91.6956 47.5357L91.7244 47.5588Z" fill="#FF8B7B"/>
<path d="M88.2032 44.5678C88.2032 44.5678 94.0123 50.2041 94.6866 85.0646C85.3966 87.318 76.4581 88.1479 69.554 87.2719C69.2255 82.8977 68.7356 67.7179 64.2981 51.714C64.1075 51.0399 64.0591 50.3336 64.1559 49.6398C64.2528 48.946 64.4928 48.28 64.8608 47.6839C65.2287 47.0878 65.7166 46.5747 66.2933 46.1772C66.8701 45.7797 67.5232 45.5064 68.2112 45.3746C69.093 45.2017 70.0208 45.0461 70.9429 44.9251C74.4459 44.4241 77.9749 44.1258 81.5123 44.0319C83.7525 44.0501 85.9886 44.2293 88.2032 44.5678Z" fill="#464547"/>
<path d="M83.6965 50.642C84.2728 55.0046 91.7647 63.3899 91.7647 63.3899L100.657 54.169C98.0156 51.3958 95.1598 48.8348 92.1163 46.5099C85.5983 41.6402 83.1778 46.5964 83.6965 50.642Z" fill="#464547"/>
<path d="M114.869 51.2875L117.842 48.5616L114.281 44.9021C113.103 45.9052 112.292 47.2717 111.976 48.7864C111.941 49.1327 112.033 49.4798 112.234 49.7637C112.435 50.0476 112.732 50.2491 113.071 50.3309L114.869 51.2875Z" fill="#FF8B7B"/>
<path d="M118.937 46.579L118.171 44.6945C118.106 44.5328 118.009 44.3857 117.887 44.2621C117.764 44.1384 117.618 44.0407 117.456 43.9746C117.295 43.9085 117.122 43.8754 116.948 43.8773C116.774 43.8792 116.602 43.916 116.442 43.9856L114.258 44.9019L117.819 48.5614L118.442 48.1407C118.692 47.9773 118.877 47.7326 118.968 47.4481C119.058 47.1635 119.047 46.8566 118.937 46.579Z" fill="#FF8B7B"/>
<path d="M69.577 29.0076C70.4127 33.6181 70.6663 36.3497 73.2596 38.5455C77.1612 41.8477 82.5439 39.2774 83.0568 34.569C83.5409 30.3274 82.0943 23.4982 77.4032 22.0113C72.7121 20.5245 68.7414 24.3972 69.577 29.0076Z" fill="#FF8B7B"/>
<path d="M78.6654 30.6674C80.2848 31.0362 81.5469 29.1632 81.7198 28.633C80.9302 28.7079 79.5298 28.3045 79.2532 27.9472C80.1176 28.0221 80.9533 26.956 81.057 26.5468C80.1398 26.3697 79.3276 25.8426 78.7921 25.0772C80.1926 25.0484 81.8754 22.5818 80.3366 20.3746C78.7979 18.1673 72.3664 20.0173 71.4616 18.444C70.113 19.2277 71.3117 20.2708 71.3117 20.2708C71.3117 20.2708 62.2119 21.9998 66.4074 25.5094C63.3299 25.7861 62.8977 29.4225 65.4623 31.2725C68.0268 33.1224 68.1594 34.3442 67.1393 34.1943C67.5485 34.9781 69.3754 35.0818 69.4791 34.3211C69.9113 35.9175 71.1561 38.0786 74.0261 37.7271C76.8961 37.3755 79.7085 33.3587 78.6654 30.6674Z" fill="#464547"/>
<path d="M67.2027 24.9734C65.0358 25.2731 64.0503 24.0513 64.592 22.9736C61.9065 24.3452 64.8399 27.3766 67.2027 24.9734Z" fill="#464547"/>
<path d="M76.4235 29.9642C76.7965 30.93 77.4561 31.7586 78.3138 32.3386C79.4664 33.0993 80.5095 32.3386 80.3136 31.1859C80.1349 30.1255 79.3223 28.4485 78.1236 28.1488C77.8754 28.0674 77.609 28.0585 77.3559 28.1233C77.1028 28.188 76.8734 28.3238 76.6948 28.5145C76.5162 28.7052 76.3958 28.9429 76.3477 29.1998C76.2997 29.4566 76.326 29.7218 76.4235 29.9642Z" fill="#FF8B7B"/>
<path d="M222.902 192.401C218.638 182.339 216.915 170.501 221.796 170.991C226.804 171.475 226.216 189.318 227.029 191.277C225.467 192.62 222.902 192.401 222.902 192.401Z" fill="#6F2877"/>
<path d="M224.286 173.308C223.237 177.146 222.125 183.076 221.277 188.102C221.761 189.543 222.309 190.983 222.903 192.401C222.903 192.401 225.461 192.62 227.035 191.277C226.389 189.733 226.62 178.299 224.286 173.308Z" fill="#464547"/>
<path d="M224.309 190.557C222.972 169.176 226.614 149.357 236.204 150.25C244.433 151.023 232.435 187.018 232.665 191.168C228.896 192.632 224.309 190.557 224.309 190.557Z" fill="#6F2877"/>
<path d="M230.521 190.419C232.025 175.049 240.134 157.114 243.615 163.108C248.035 170.715 236.699 188.834 236.394 191.813C233.558 192.424 230.521 190.419 230.521 190.419Z" fill="#6F2877"/>
<path d="M229.006 155.961C228.032 155.8 227.49 155.195 227.553 154.336C227.622 153.368 228.418 152.406 229.155 152.394C229.513 152.394 230.112 152.578 230.262 153.91L229.686 153.979C229.616 153.345 229.426 152.97 229.173 152.97C228.781 152.97 228.181 153.685 228.135 154.377C228.095 154.953 228.418 155.276 229.104 155.391L229.006 155.961Z" fill="#6F2877"/>
<path d="M239.356 159.829C238.937 159.795 238.537 159.641 238.203 159.385L238.515 158.907C239.051 159.252 239.465 159.345 239.627 159.149C239.869 158.837 239.702 157.927 239.2 157.449C238.797 157.062 238.324 157.091 237.8 157.552L237.425 157.114C237.56 156.962 237.725 156.839 237.908 156.753C238.092 156.666 238.291 156.617 238.494 156.61C238.697 156.602 238.9 156.636 239.09 156.709C239.279 156.782 239.452 156.892 239.598 157.034C240.301 157.702 240.537 158.924 240.076 159.506C239.991 159.614 239.881 159.699 239.756 159.756C239.63 159.812 239.493 159.837 239.356 159.829Z" fill="#6F2877"/>
<path d="M225.231 168.531C224.882 168.556 224.536 168.452 224.258 168.24C223.98 168.028 223.789 167.721 223.721 167.378C223.49 166.439 223.951 165.28 224.654 165.038C224.983 164.929 225.617 164.917 226.17 166.145L225.64 166.387C225.381 165.811 225.064 165.499 224.839 165.586C224.47 165.713 224.119 166.571 224.263 167.24C224.395 167.816 224.839 168.012 225.496 167.908L225.582 168.485C225.467 168.51 225.349 168.525 225.231 168.531Z" fill="#6F2877"/>
<path d="M219.093 180.466C218.812 180.472 218.536 180.394 218.3 180.241C218.065 180.087 217.881 179.867 217.773 179.607C217.37 178.725 217.606 177.498 218.246 177.129C218.551 176.956 219.174 176.829 219.946 177.936L219.473 178.264C219.105 177.74 218.753 177.504 218.534 177.631C218.194 177.826 218.01 178.737 218.298 179.359C218.534 179.872 218.984 180.011 219.635 179.78L219.825 180.328C219.591 180.416 219.343 180.463 219.093 180.466Z" fill="#6F2877"/>
<path d="M229.305 163.067C229.246 163.067 229.187 163.049 229.138 163.015C228.78 162.817 228.506 162.496 228.366 162.112C228.226 161.727 228.23 161.305 228.377 160.923C228.544 160.541 228.83 160.222 229.192 160.014C229.555 159.807 229.974 159.721 230.389 159.771C230.746 159.834 231.582 160.151 231.639 161.684C231.639 161.761 231.609 161.834 231.555 161.888C231.501 161.942 231.428 161.972 231.351 161.972C231.275 161.972 231.201 161.942 231.147 161.888C231.093 161.834 231.063 161.761 231.063 161.684C231.028 160.883 230.758 160.399 230.285 160.313C229.998 160.29 229.711 160.357 229.465 160.504C229.218 160.652 229.023 160.873 228.908 161.137C228.7 161.627 228.908 162.122 229.484 162.531C229.534 162.567 229.572 162.617 229.592 162.675C229.612 162.733 229.612 162.797 229.594 162.855C229.575 162.914 229.538 162.965 229.488 163.001C229.438 163.037 229.378 163.056 229.317 163.056L229.305 163.067Z" fill="white"/>
<path d="M236.134 178.622C236.068 178.623 236.004 178.6 235.953 178.558C235.903 178.515 235.869 178.456 235.858 178.391C235.849 178.355 235.848 178.317 235.855 178.279C235.861 178.242 235.875 178.207 235.896 178.175C235.916 178.143 235.943 178.116 235.974 178.095C236.005 178.074 236.04 178.059 236.077 178.051C236.861 177.89 237.293 177.538 237.304 177.06C237.278 176.773 237.164 176.502 236.977 176.283C236.79 176.064 236.54 175.909 236.261 175.838C235.743 175.712 235.281 175.994 234.976 176.628C234.959 176.662 234.936 176.692 234.908 176.717C234.879 176.743 234.846 176.762 234.81 176.774C234.775 176.786 234.737 176.792 234.699 176.789C234.661 176.787 234.624 176.777 234.59 176.76C234.556 176.744 234.525 176.721 234.5 176.692C234.475 176.664 234.456 176.631 234.444 176.595C234.431 176.559 234.426 176.521 234.429 176.483C234.431 176.445 234.441 176.408 234.457 176.374C234.599 175.992 234.87 175.672 235.225 175.471C235.579 175.269 235.993 175.199 236.394 175.274C236.801 175.374 237.165 175.602 237.432 175.925C237.7 176.247 237.857 176.647 237.881 177.066C237.881 177.429 237.696 178.305 236.198 178.616L236.134 178.622Z" fill="white"/>
<path d="M244.237 173.763C243.903 173.763 243.459 173.568 242.964 172.824L243.442 172.501C243.799 173.032 244.139 173.274 244.364 173.153C244.71 172.968 244.94 172.058 244.635 171.424C244.416 170.911 243.966 170.761 243.309 170.974L243.131 170.427C244.064 170.121 244.825 170.427 245.165 171.199C245.551 172.086 245.292 173.308 244.641 173.66C244.518 173.729 244.379 173.765 244.237 173.763Z" fill="#6F2877"/>
<path d="M242.52 196.061C242.524 192.985 241.421 190.011 239.414 187.681C239.611 187.652 239.791 187.554 239.922 187.404C240.053 187.254 240.126 187.062 240.128 186.863C240.127 186.638 240.036 186.422 239.876 186.263C239.717 186.105 239.501 186.016 239.275 186.016H219.981C219.771 186.019 219.569 186.1 219.416 186.244C219.263 186.388 219.169 186.584 219.153 186.793C219.137 187.003 219.2 187.211 219.33 187.376C219.46 187.541 219.647 187.652 219.854 187.687C218.592 189.153 217.677 190.884 217.176 192.752C216.676 194.62 216.603 196.577 216.964 198.478C217.325 200.378 218.109 202.172 219.259 203.727C220.409 205.282 221.895 206.558 223.606 207.46C223.419 207.556 223.271 207.712 223.184 207.903C223.097 208.094 223.077 208.308 223.127 208.512C223.176 208.716 223.294 208.897 223.459 209.026C223.624 209.155 223.828 209.224 224.038 209.223H235.212C235.46 209.222 235.696 209.123 235.871 208.948C236.046 208.773 236.144 208.537 236.146 208.29C236.145 208.119 236.098 207.952 236.01 207.806C235.922 207.659 235.795 207.54 235.645 207.46C237.72 206.366 239.457 204.726 240.668 202.717C241.88 200.708 242.52 198.407 242.52 196.061Z" fill="#464547"/>
</svg>
