<svg width="181" height="135" viewBox="0 0 181 135" fill="none" xmlns="http://www.w3.org/2000/svg">
<path d="M180.749 118.354H0V118.445H180.749V118.354Z" fill="#EBEBEB"/>
<path d="M156.814 122.201H144.841V122.291H156.814V122.201Z" fill="#EBEBEB"/>
<path d="M113.174 122.157H110.033V122.248H113.174V122.157Z" fill="#EBEBEB"/>
<path d="M162.638 124.171H155.701V124.261H162.638V124.171Z" fill="#EBEBEB"/>
<path d="M41.4277 125.371H25.8146V125.461H41.4277V125.371Z" fill="#EBEBEB"/>
<path d="M40.0865 121.424H37.7982V121.514H40.0865V121.424Z" fill="#EBEBEB"/>
<path d="M89.8142 121.81H67.799V121.901H89.8142V121.81Z" fill="#EBEBEB"/>
<path d="M85.6751 102.232H15.8734C15.3266 102.231 14.8025 102.013 14.4162 101.626C14.0298 101.239 13.8129 100.714 13.8129 100.168V2.04608C13.8176 1.5024 14.0367 0.982544 14.4225 0.599443C14.8083 0.216341 15.3297 0.000931359 15.8734 0H85.6751C86.2225 0 86.7475 0.217473 87.1346 0.604577C87.5218 0.991681 87.7392 1.51671 87.7392 2.06415V100.168C87.7392 100.715 87.5218 101.24 87.1346 101.627C86.7475 102.014 86.2225 102.232 85.6751 102.232ZM15.8734 0.0722999C15.3506 0.0732575 14.8494 0.281631 14.4801 0.651682C14.1107 1.02173 13.9032 1.52323 13.9032 2.04608V100.168C13.9032 100.69 14.1107 101.192 14.4801 101.562C14.8494 101.932 15.3506 102.14 15.8734 102.141H85.6751C86.1982 102.14 86.6997 101.932 87.0697 101.562C87.4396 101.192 87.6479 100.691 87.6488 100.168V2.04608C87.6479 1.52289 87.4396 1.02141 87.0697 0.651462C86.6997 0.281513 86.1982 0.0732555 85.6751 0.0722999H15.8734Z" fill="#EBEBEB"/>
<path d="M163.871 102.232H94.0654C93.5183 102.231 92.9938 102.013 92.6069 101.626C92.22 101.239 92.0022 100.715 92.0013 100.168V2.04608C92.007 1.50207 92.2269 0.982218 92.6133 0.599217C92.9996 0.216215 93.5214 0.000921202 94.0654 0H163.871C164.414 0.00188142 164.934 0.217712 165.319 0.600711C165.704 0.983711 165.923 1.50302 165.928 2.04608V100.168C165.928 100.714 165.711 101.238 165.326 101.625C164.94 102.011 164.417 102.23 163.871 102.232ZM94.0654 0.0722999C93.5422 0.0732555 93.0408 0.281513 92.6708 0.651462C92.3009 1.02141 92.0926 1.52289 92.0917 2.04608V100.168C92.0926 100.691 92.3009 101.192 92.6708 101.562C93.0408 101.932 93.5422 102.14 94.0654 102.141H163.871C164.394 102.14 164.895 101.932 165.265 101.562C165.635 101.192 165.844 100.691 165.844 100.168V2.04608C165.844 1.52289 165.635 1.02141 165.265 0.651462C164.895 0.281513 164.394 0.0732555 163.871 0.0722999H94.0654Z" fill="#EBEBEB"/>
<path d="M155.043 14.9407H25.7061V68.7641H155.043V14.9407Z" fill="#F0F0F0"/>
<path d="M152.512 66.2373V17.4749L28.2366 17.4749V66.2373H152.512Z" fill="#FAFAFA"/>
<path d="M44.598 66.2337L57.3444 17.4712H66.7434L53.997 66.2337H44.598Z" fill="white"/>
<path d="M56.166 66.2337L68.9124 17.4712H73.1166L60.3702 66.2337H56.166Z" fill="white"/>
<path d="M76.7352 66.2337L89.4853 17.4712H98.8842L86.1342 66.2337H76.7352Z" fill="white"/>
<path d="M100.435 66.2337L113.181 17.4712H117.389L104.639 66.2337H100.435Z" fill="white"/>
<path d="M61.5306 66.2373V17.4749H60.8871V66.2373H61.5306Z" fill="#E0E0E0"/>
<path d="M28.8801 66.2373L28.8801 17.4749H28.2366L28.2366 66.2373H28.8801Z" fill="#E0E0E0"/>
<path d="M60.8871 66.2373V17.4749H58.3567V66.2373H60.8871Z" fill="#F0F0F0"/>
<path d="M92.905 66.2373V17.4749H92.2616V66.2373H92.905Z" fill="#E0E0E0"/>
<path d="M92.2615 66.2373V17.4749H89.731V66.2373H92.2615Z" fill="#F0F0F0"/>
<path d="M124.294 66.2337V17.4712H123.65V66.2337H124.294Z" fill="#E0E0E0"/>
<path d="M123.65 66.2337V17.4712H121.12V66.2337H123.65Z" fill="#F0F0F0"/>
<path d="M155.686 68.7641V14.9407H155.043V68.7641H155.686Z" fill="#E0E0E0"/>
<path d="M157.132 11.2461H23.6167C23.4683 11.2451 23.3264 11.1858 23.2215 11.0809C23.1166 10.976 23.0573 10.8341 23.0563 10.6858C23.0563 10.5368 23.1153 10.3939 23.2202 10.2883C23.3252 10.1826 23.4677 10.1228 23.6167 10.1218H157.132C157.281 10.1228 157.424 10.1826 157.529 10.2883C157.634 10.3939 157.693 10.5368 157.693 10.6858C157.692 10.8341 157.632 10.976 157.528 11.0809C157.423 11.1858 157.281 11.2451 157.132 11.2461Z" fill="#E0E0E0"/>
<g opacity="0.6">
<path d="M51.4557 9.03735H24.1409V107.246H51.4557V9.03735Z" fill="#F5F5F5"/>
<path d="M38.9406 108.048H36.6523L37.2958 9.83984H38.3189L38.9406 108.048Z" fill="#E6E6E6"/>
<path d="M31.36 108.048H30.2538L30.5647 9.83984H31.0599L31.36 108.048Z" fill="#E6E6E6"/>
<path d="M46.5429 108.048H45.4367L45.7476 9.83984H46.2428L46.5429 108.048Z" fill="#E6E6E6"/>
</g>
<g opacity="0.6">
<path d="M156.283 9.03735H128.968V107.246H156.283V9.03735Z" fill="#F5F5F5"/>
<path d="M139.672 108.048H137.384L138.027 9.83984H139.05L139.672 108.048Z" fill="#E6E6E6"/>
<path d="M134.622 108.048H133.519L133.827 9.83984H134.322L134.622 108.048Z" fill="#E6E6E6"/>
<path d="M146.309 108.048H145.207L145.517 9.83984H146.009L146.309 108.048Z" fill="#E6E6E6"/>
<path d="M151.934 108.048H150.831L151.139 9.83984H151.634L151.934 108.048Z" fill="#E6E6E6"/>
</g>
<path d="M117.563 117.74H122.696V88.3213H117.563V117.74Z" fill="#E6E6E6"/>
<path d="M58.0529 117.74L119.54 117.74V88.3213H58.0529L58.0529 117.74Z" fill="#F0F0F0"/>
<path d="M118.159 117.74H116.308H60.7064V118.355H116.308H118.159H120.043V117.74H118.159Z" fill="#E0E0E0"/>
<path opacity="0.5" d="M59.8062 102.033H117.787V90.1611H59.8062V102.033Z" fill="#FAFAFA"/>
<path opacity="0.5" d="M59.8062 115.82H117.787V103.949H59.8062V115.82Z" fill="#FAFAFA"/>
<path d="M68.5943 96.097C68.5943 96.3551 68.5177 96.6074 68.3743 96.822C68.2309 97.0366 68.0271 97.2039 67.7887 97.3027C67.5502 97.4014 67.2878 97.4273 67.0347 97.3769C66.7815 97.3266 66.549 97.2023 66.3665 97.0198C66.184 96.8373 66.0597 96.6047 66.0093 96.3516C65.959 96.0984 65.9848 95.8361 66.0836 95.5976C66.1824 95.3591 66.3496 95.1553 66.5642 95.0119C66.7788 94.8685 67.0312 94.792 67.2893 94.792C67.4606 94.792 67.6303 94.8257 67.7887 94.8913C67.947 94.9569 68.0909 95.053 68.212 95.1742C68.3332 95.2954 68.4293 95.4393 68.4949 95.5976C68.5605 95.7559 68.5943 95.9256 68.5943 96.097Z" fill="#E0E0E0"/>
<path d="M111.605 96.097C111.605 96.3551 111.529 96.6074 111.385 96.822C111.242 97.0366 111.038 97.2039 110.8 97.3027C110.561 97.4014 110.299 97.4273 110.046 97.3769C109.793 97.3266 109.56 97.2023 109.378 97.0198C109.195 96.8373 109.071 96.6047 109.02 96.3516C108.97 96.0984 108.996 95.8361 109.095 95.5976C109.193 95.3591 109.361 95.1553 109.575 95.0119C109.79 94.8685 110.042 94.792 110.3 94.792C110.472 94.792 110.641 94.8257 110.8 94.8913C110.958 94.9569 111.102 95.053 111.223 95.1742C111.344 95.2954 111.44 95.4393 111.506 95.5976C111.572 95.7559 111.605 95.9256 111.605 96.097Z" fill="#E0E0E0"/>
<path d="M67.2893 111.19C68.01 111.19 68.5943 110.605 68.5943 109.885C68.5943 109.164 68.01 108.58 67.2893 108.58C66.5685 108.58 65.9843 109.164 65.9843 109.885C65.9843 110.605 66.5685 111.19 67.2893 111.19Z" fill="#E0E0E0"/>
<path d="M111.605 109.895C111.605 110.153 111.529 110.406 111.385 110.62C111.242 110.835 111.038 111.002 110.8 111.101C110.561 111.2 110.299 111.226 110.046 111.175C109.793 111.125 109.56 111.001 109.378 110.818C109.195 110.636 109.071 110.403 109.02 110.15C108.97 109.897 108.996 109.634 109.095 109.396C109.193 109.157 109.361 108.954 109.575 108.81C109.79 108.667 110.042 108.59 110.3 108.59C110.646 108.59 110.978 108.728 111.223 108.973C111.468 109.217 111.605 109.549 111.605 109.895Z" fill="#E0E0E0"/>
<path d="M90.0998 96.097C90.0998 96.3551 90.0232 96.6074 89.8798 96.822C89.7364 97.0366 89.5326 97.2039 89.2942 97.3027C89.0557 97.4014 88.7933 97.4273 88.5402 97.3769C88.287 97.3266 88.0545 97.2023 87.872 97.0198C87.6895 96.8373 87.5652 96.6047 87.5148 96.3516C87.4645 96.0984 87.4903 95.8361 87.5891 95.5976C87.6879 95.3591 87.8551 95.1553 88.0697 95.0119C88.2843 94.8685 88.5366 94.792 88.7948 94.792C88.9661 94.792 89.1358 94.8257 89.2942 94.8913C89.4525 94.9569 89.5964 95.053 89.7175 95.1742C89.8387 95.2954 89.9348 95.4393 90.0004 95.5976C90.066 95.7559 90.0998 95.9256 90.0998 96.097Z" fill="#E0E0E0"/>
<path d="M88.7948 111.19C89.5155 111.19 90.0998 110.605 90.0998 109.885C90.0998 109.164 89.5155 108.58 88.7948 108.58C88.074 108.58 87.4897 109.164 87.4897 109.885C87.4897 110.605 88.074 111.19 88.7948 111.19Z" fill="#E0E0E0"/>
<path d="M115.737 83.3252C115.737 84.6502 115.211 85.9209 114.274 86.8578C113.337 87.7947 112.066 88.3211 110.741 88.3211C109.416 88.3211 108.146 87.7947 107.209 86.8578C106.272 85.9209 105.745 84.6502 105.745 83.3252H115.737Z" fill="#F0F0F0"/>
<path d="M76.2363 82.4216C76.2363 83.9834 75.6159 85.4813 74.5116 86.5856C73.4072 87.69 71.9094 88.3104 70.3475 88.3104C68.7857 88.3104 67.2879 87.69 66.1835 86.5856C65.0792 85.4813 64.4587 83.9834 64.4587 82.4216H76.2363Z" fill="#F0F0F0"/>
<path d="M101.552 84.8545C101.552 85.7739 101.187 86.6557 100.537 87.3059C99.8865 87.956 99.0047 88.3213 98.0853 88.3213C97.1659 88.3213 96.2841 87.956 95.6339 87.3059C94.9838 86.6557 94.6185 85.7739 94.6185 84.8545H101.552Z" fill="#F0F0F0"/>
<path d="M90.3745 134.68C129.085 134.68 160.465 132.848 160.465 130.588C160.465 128.327 129.085 126.495 90.3745 126.495C51.6644 126.495 20.2836 128.327 20.2836 130.588C20.2836 132.848 51.6644 134.68 90.3745 134.68Z" fill="#F5F5F5"/>
<path d="M125.856 21.8198C125.086 21.0498 123.603 18.1325 125.024 16.7589C126.445 15.3852 127.71 16.6323 127.808 17.3011C127.905 17.9699 127.645 23.6056 125.856 21.8198Z" fill="#464547"/>
<path d="M125.53 126.759L122.302 126.788L121.424 119.327L124.648 119.298L125.53 126.759Z" fill="#FF8B7B"/>
<path d="M122.298 126.416L125.819 126.383C125.884 126.384 125.947 126.406 125.999 126.445C126.051 126.484 126.09 126.538 126.109 126.6L126.962 129.46C126.984 129.526 126.991 129.597 126.98 129.667C126.969 129.736 126.942 129.802 126.901 129.859C126.859 129.916 126.805 129.962 126.742 129.993C126.679 130.024 126.609 130.039 126.539 130.038C125.27 130.038 123.426 129.969 121.839 129.984C119.974 129.984 119.143 130.114 116.952 130.136C115.629 130.136 115.144 128.813 115.705 128.69C118.188 128.115 119.471 128.039 121.55 126.676C121.769 126.518 122.029 126.428 122.298 126.416Z" fill="#464547"/>
<path opacity="0.2" d="M121.424 119.33L121.879 123.177L125.104 123.148L124.652 119.302L121.424 119.33Z" fill="#464547"/>
<path d="M120.964 126.991C121.313 126.984 121.659 126.942 121.998 126.864C122.014 126.862 122.029 126.854 122.04 126.842C122.052 126.83 122.058 126.815 122.06 126.799C122.061 126.783 122.058 126.768 122.05 126.754C122.042 126.741 122.031 126.73 122.016 126.723C121.865 126.647 120.509 126 120.137 126.228C120.102 126.25 120.074 126.28 120.055 126.316C120.036 126.353 120.027 126.393 120.028 126.434C120.027 126.503 120.043 126.572 120.073 126.635C120.103 126.698 120.147 126.752 120.202 126.795C120.428 126.942 120.696 127.011 120.964 126.991ZM121.738 126.759C121.04 126.882 120.509 126.857 120.292 126.683C120.255 126.654 120.225 126.616 120.205 126.572C120.186 126.529 120.177 126.481 120.18 126.434C120.178 126.419 120.18 126.404 120.187 126.39C120.193 126.377 120.203 126.366 120.216 126.358C120.419 126.235 121.185 126.524 121.738 126.759Z" fill="#6F2877"/>
<path d="M121.984 126.886C122.001 126.884 122.017 126.878 122.031 126.868C122.042 126.859 122.05 126.848 122.055 126.835C122.059 126.822 122.06 126.808 122.056 126.795C122.056 126.737 121.803 125.349 121.037 125.436C120.834 125.458 120.777 125.563 120.766 125.642C120.711 126.004 121.539 126.705 121.951 126.878L121.984 126.886ZM121.102 125.584C121.565 125.584 121.796 126.34 121.875 126.669C121.449 126.43 120.885 125.881 120.917 125.664C120.917 125.664 120.917 125.602 121.055 125.588L121.102 125.584Z" fill="#6F2877"/>
<path d="M123.249 38.1127L122.917 38.4742L122.606 38.7814C122.4 38.9839 122.186 39.1755 121.973 39.3634C121.549 39.7442 121.115 40.1057 120.672 40.4479C119.777 41.1592 118.835 41.8089 117.852 42.3928C117.357 42.6856 116.847 42.964 116.33 43.2279C115.813 43.4918 115.267 43.7195 114.718 43.9509C113.591 44.4004 112.417 44.7217 111.218 44.9088L110.951 44.9486C110.777 44.971 110.602 44.9818 110.427 44.9811C110.024 44.9774 109.626 44.8989 109.252 44.7498C108.881 44.6009 108.541 44.3839 108.251 44.1099C108.019 43.889 107.817 43.6386 107.651 43.3652C107.42 42.9685 107.246 42.5414 107.134 42.0964C107.046 41.7517 106.982 41.4014 106.942 41.048C106.876 40.437 106.858 39.8218 106.888 39.208C106.913 38.6224 106.96 38.0584 107.025 37.5053C107.162 36.3955 107.358 35.3364 107.596 34.2519C107.835 33.1674 108.106 32.166 108.457 31.1177L110.832 31.5876C110.745 33.6192 110.647 35.7015 110.712 37.668C110.724 38.5812 110.821 39.4913 111.002 40.3865C111.037 40.5518 111.087 40.7139 111.15 40.8709C111.2 40.9938 111.262 41.0697 111.258 41.0372C111.237 40.9821 111.204 40.9326 111.161 40.8926C111.062 40.7974 110.947 40.7214 110.821 40.6685C110.691 40.6138 110.553 40.5809 110.412 40.5708C110.347 40.5708 110.318 40.5708 110.279 40.5708H110.318L110.394 40.5492C111.251 40.3292 112.084 40.0265 112.881 39.6454C113.716 39.2426 114.524 38.7861 115.3 38.279C116.084 37.7584 116.858 37.1945 117.603 36.598C117.964 36.3016 118.344 35.9907 118.687 35.6762L119.215 35.199L119.468 34.964L119.688 34.7543L123.249 38.1127Z" fill="#FF8B7B"/>
<path d="M125.161 36.8366C125.039 33.4276 122.241 32.2419 118.734 34.5664C117.188 35.5465 115.7 36.6147 114.277 37.7656L116.543 45.0462C116.543 45.0462 120.881 43.6689 123.39 40.9649C125.078 39.1285 125.205 37.997 125.161 36.8366Z" fill="#464547"/>
<path opacity="0.2" d="M120.892 38.2898C120.892 38.2898 118.799 41.283 118.058 44.4642C119.087 44.0254 120.079 43.5031 121.022 42.9025L120.892 38.2898Z" fill="#464547"/>
<path d="M110.712 32.6684L111.927 29.9246L108.489 28.9197C108.489 28.9197 107.9 30.2319 108.236 32.484L110.712 32.6684Z" fill="#FF8B7B"/>
<path d="M112.292 26.7075L109.303 27.0654L108.489 28.9199L111.927 29.9248L112.292 26.7075Z" fill="#FF8B7B"/>
<path d="M120.914 61.5486C120.914 61.5486 118.694 80.1513 118.448 90.107C118.195 100.449 120.223 121.311 120.223 121.311L126.047 121.189C126.047 121.189 126.748 98.8552 127.594 88.6212C128.513 77.4654 130.826 61.3462 130.826 61.3462L120.914 61.5486Z" fill="#6F2877"/>
<path opacity="0.6" d="M120.914 61.5486C120.914 61.5486 118.694 80.1513 118.448 90.107C118.195 100.449 120.223 121.311 120.223 121.311L126.047 121.189C126.047 121.189 126.748 98.8552 127.594 88.6212C128.513 77.4654 130.826 61.3462 130.826 61.3462L120.914 61.5486Z" fill="white"/>
<path opacity="0.2" d="M127.851 66.8157C125.248 72.5527 125.946 85.3678 127.424 90.8625C127.479 90.0636 127.536 89.3081 127.594 88.6104C128.198 81.2575 129.402 71.7537 130.165 66.1252C129.456 65.0986 128.664 65.019 127.851 66.8157Z" fill="#464547"/>
<path d="M126.763 121.438L119.916 121.575L119.41 119.302L126.68 119.283L126.763 121.438Z" fill="#6F2877"/>
<path d="M139.914 126.759L136.69 126.788L135.811 119.327L139.036 119.298L139.914 126.759Z" fill="#FF8B7B"/>
<path d="M136.682 126.416L140.207 126.383C140.272 126.385 140.335 126.407 140.386 126.445C140.438 126.484 140.477 126.538 140.496 126.6L141.349 129.46C141.371 129.526 141.377 129.597 141.366 129.666C141.355 129.735 141.328 129.801 141.286 129.857C141.245 129.914 141.191 129.96 141.128 129.991C141.066 130.023 140.996 130.039 140.926 130.038C139.654 130.038 137.814 129.969 136.227 129.984C134.362 129.984 133.527 130.114 131.339 130.136C130.016 130.136 129.532 128.813 130.092 128.69C132.572 128.115 133.856 128.039 135.938 126.676C136.155 126.518 136.414 126.428 136.682 126.416Z" fill="#464547"/>
<path opacity="0.2" d="M135.811 119.33L136.263 123.177L139.491 123.148L139.039 119.302L135.811 119.33Z" fill="#464547"/>
<path d="M135.352 126.991C135.7 126.984 136.047 126.941 136.386 126.864C136.402 126.862 136.416 126.854 136.427 126.842C136.437 126.83 136.443 126.815 136.444 126.799C136.446 126.784 136.444 126.768 136.436 126.754C136.429 126.741 136.418 126.73 136.404 126.723C136.249 126.647 134.893 126 134.524 126.228C134.489 126.249 134.461 126.28 134.442 126.316C134.423 126.352 134.414 126.393 134.416 126.434C134.415 126.503 134.43 126.571 134.459 126.634C134.489 126.697 134.532 126.752 134.586 126.795C134.813 126.942 135.082 127.01 135.352 126.991ZM136.126 126.759C135.428 126.882 134.897 126.857 134.68 126.683C134.642 126.654 134.613 126.615 134.592 126.572C134.572 126.529 134.563 126.482 134.564 126.434C134.562 126.419 134.564 126.404 134.571 126.39C134.577 126.377 134.587 126.366 134.6 126.358C134.803 126.235 135.562 126.524 136.126 126.759Z" fill="#6F2877"/>
<path d="M136.368 126.886C136.379 126.885 136.39 126.883 136.4 126.878C136.41 126.873 136.419 126.866 136.426 126.857C136.433 126.849 136.438 126.839 136.441 126.828C136.445 126.817 136.445 126.806 136.444 126.795C136.444 126.737 136.191 125.349 135.424 125.436C135.222 125.458 135.164 125.563 135.15 125.642C135.099 126.004 135.927 126.705 136.339 126.878L136.368 126.886ZM135.489 125.584C135.949 125.584 136.184 126.34 136.263 126.669C135.837 126.43 135.269 125.881 135.302 125.664C135.302 125.664 135.302 125.602 135.439 125.588L135.489 125.584Z" fill="#6F2877"/>
<path d="M126.597 61.4257C126.597 61.4257 128.205 81.4419 129.38 91.318C130.598 101.592 134.611 121.301 134.611 121.301L140.435 121.178C140.435 121.178 138.837 98.801 138.219 88.549C137.543 77.3606 137.369 61.1799 137.369 61.1799L126.597 61.4257Z" fill="#6F2877"/>
<path opacity="0.6" d="M126.597 61.4257C126.597 61.4257 128.205 81.4419 129.38 91.318C130.598 101.592 134.611 121.301 134.611 121.301L140.435 121.178C140.435 121.178 138.837 98.801 138.219 88.549C137.543 77.3606 137.369 61.1799 137.369 61.1799L126.597 61.4257Z" fill="white"/>
<path d="M141.151 121.438L134.3 121.575L133.798 119.302L141.067 119.283L141.151 121.438Z" fill="#6F2877"/>
<path d="M120.513 33.6734C120.513 33.6734 118.13 42.5156 120.914 61.5485C126.112 61.4364 134.842 61.234 137.369 61.187C137.434 58.5372 135.479 45.545 137.767 33.0191C136.121 32.7348 134.456 32.5729 132.785 32.5347C130.341 32.4454 127.893 32.4985 125.454 32.6937C123.784 32.8913 122.132 33.2189 120.513 33.6734Z" fill="#464547"/>
<path opacity="0.2" d="M136.769 41.9338L134.076 39.7034C134.253 41.4458 135.829 45.7151 136.661 47.8768C136.646 45.9826 136.664 43.9835 136.769 41.9338Z" fill="#464547"/>
<path d="M127.135 38.7996L124.196 44.6161C124.134 44.7382 124.112 44.8769 124.134 45.0121C124.156 45.1474 124.22 45.2723 124.317 45.3687C124.415 45.4652 124.54 45.5283 124.676 45.549C124.811 45.5696 124.949 45.5468 125.071 45.4837L126.991 44.4281C127.095 44.372 127.213 44.3463 127.331 44.3539C127.45 44.3616 127.563 44.4023 127.659 44.4715L129.55 45.8343C129.659 45.9133 129.79 45.9553 129.924 45.954C130.058 45.9527 130.189 45.9082 130.296 45.8271C130.403 45.746 130.481 45.6326 130.518 45.5037C130.556 45.3748 130.551 45.2372 130.504 45.1113L128.296 38.9008C128.257 38.7826 128.185 38.6784 128.088 38.6011C127.991 38.5238 127.873 38.4768 127.749 38.466C127.625 38.4552 127.501 38.4811 127.392 38.5404C127.283 38.5997 127.194 38.6899 127.135 38.7996Z" fill="white"/>
<path d="M131.882 24.2781C131.47 26.6495 131.101 30.9802 132.785 32.5166C132.785 32.5166 132.294 34.6639 127.808 35.4086C124.793 34.4398 125.454 32.6901 125.454 32.6901C128.072 32.0033 127.959 30.0548 127.464 28.2329L131.882 24.2781Z" fill="#FF8B7B"/>
<path opacity="0.2" d="M130.081 25.8867L127.464 28.2148C127.586 28.6392 127.671 29.0734 127.717 29.5125C128.722 29.3463 130.078 28.2112 130.161 27.1592C130.212 26.7337 130.185 26.3025 130.081 25.8867Z" fill="#464547"/>
<path d="M133.317 21.3607C132.446 24.4407 132.095 26.288 130.172 27.5496C127.28 29.4438 123.734 27.1881 123.665 23.9021C123.6 20.9523 125.031 16.4082 128.364 15.8298C129.096 15.7 129.85 15.7592 130.552 16.0018C131.255 16.2445 131.884 16.6626 132.38 17.2165C132.876 17.7704 133.223 18.4418 133.387 19.1671C133.55 19.8923 133.526 20.6474 133.317 21.3607Z" fill="#FF8B7B"/>
<path d="M131.462 23.2479C131.058 22.2646 130.765 19.0256 132.453 18.2303C134.141 17.435 135.894 19.3762 135.45 20.2944C134.766 21.7187 132.402 25.5253 131.462 23.2479Z" fill="#464547"/>
<path d="M132.471 19.3727C132.055 18.2882 127.099 17.6737 126.405 16.506C125.581 15.1179 128.961 14.9516 131.285 15.6565C133.328 16.2783 134.691 16.8784 134.452 18.3967C134.318 19.257 132.471 19.3727 132.471 19.3727Z" fill="#464547"/>
<path d="M133.548 18.2555C133.548 18.2555 134.633 18.5519 135.226 17.7566C135.038 18.5447 134.116 19.34 133.548 18.2555Z" fill="#464547"/>
<path d="M128.585 14.9117C127.096 13.7549 125.068 15.1142 125.259 16.6216C125.451 18.1291 130.472 19.275 130.472 19.275C130.472 19.275 130.562 16.4481 128.585 14.9117Z" fill="#464547"/>
<path d="M125.263 16.6287C125.49 17.6843 126.26 18.5121 127.818 19.1267C126.917 18.4599 126.233 17.5401 125.856 16.4841L125.263 16.6287Z" fill="#464547"/>
<path d="M128.39 21.2054C128.335 21.462 128.158 21.6392 127.992 21.603C127.826 21.5669 127.735 21.3283 127.79 21.0752C127.844 20.8222 128.025 20.645 128.191 20.6812C128.357 20.7173 128.447 20.9668 128.39 21.2054Z" fill="#464547"/>
<path d="M125.519 20.5836C125.462 20.8367 125.284 21.0138 125.118 20.9777C124.952 20.9415 124.861 20.7065 124.916 20.4535C124.97 20.2005 125.151 20.0233 125.317 20.0559C125.483 20.0884 125.574 20.3306 125.519 20.5836Z" fill="#464547"/>
<path d="M126.405 20.9089C125.933 21.6201 125.365 22.2624 124.717 22.8176C125.078 23.3346 125.884 23.3093 125.884 23.3093L126.405 20.9089Z" fill="#FF5652"/>
<path d="M126.47 24.1732C126.81 24.2575 127.164 24.2585 127.504 24.176C127.844 24.0935 128.159 23.9301 128.422 23.6996C128.429 23.6926 128.435 23.6841 128.439 23.6748C128.443 23.6655 128.445 23.6555 128.445 23.6454C128.445 23.6353 128.443 23.6253 128.439 23.616C128.435 23.6067 128.429 23.5982 128.422 23.5912C128.407 23.5775 128.388 23.5698 128.368 23.5698C128.348 23.5698 128.328 23.5775 128.314 23.5912C128.067 23.7989 127.775 23.946 127.461 24.0207C127.147 24.0954 126.82 24.0956 126.506 24.0214C126.486 24.017 126.465 24.0209 126.448 24.0321C126.431 24.0433 126.418 24.0609 126.414 24.081C126.41 24.1011 126.414 24.1222 126.425 24.1395C126.436 24.1567 126.454 24.1689 126.474 24.1732H126.47Z" fill="#464547"/>
<path d="M129.456 20.468C129.484 20.4735 129.513 20.4714 129.539 20.4618C129.566 20.4522 129.589 20.4356 129.607 20.4136C129.625 20.3917 129.637 20.3653 129.64 20.3373C129.644 20.3093 129.641 20.2807 129.63 20.2547C129.532 20.032 129.383 19.8359 129.194 19.6825C129.005 19.5291 128.783 19.4228 128.545 19.3726C128.505 19.3674 128.464 19.3781 128.432 19.4024C128.399 19.4267 128.378 19.4627 128.372 19.5028C128.368 19.5225 128.369 19.5426 128.374 19.562C128.379 19.5813 128.387 19.5996 128.399 19.6157C128.411 19.6318 128.425 19.6455 128.442 19.6559C128.46 19.6663 128.478 19.6732 128.498 19.6763C128.686 19.7175 128.861 19.803 129.008 19.9256C129.156 20.0483 129.273 20.2045 129.348 20.3812C129.358 20.4031 129.373 20.4223 129.392 20.4374C129.41 20.4524 129.433 20.4629 129.456 20.468Z" fill="#464547"/>
<path d="M124.471 19.3221C124.499 19.33 124.529 19.329 124.557 19.3193C124.585 19.3096 124.609 19.2917 124.626 19.2679C124.741 19.1143 124.89 18.9898 125.061 18.9044C125.233 18.819 125.422 18.7751 125.613 18.7762C125.654 18.7801 125.694 18.7678 125.725 18.742C125.756 18.7162 125.776 18.6791 125.78 18.6389C125.783 18.5986 125.771 18.5585 125.745 18.5273C125.72 18.4961 125.683 18.4764 125.642 18.4726C125.4 18.4654 125.159 18.5168 124.941 18.6226C124.722 18.7283 124.533 18.8852 124.388 19.0799C124.375 19.0954 124.366 19.1133 124.36 19.1325C124.354 19.1518 124.352 19.172 124.355 19.192C124.357 19.2119 124.364 19.2312 124.374 19.2486C124.384 19.266 124.397 19.2812 124.413 19.2932C124.43 19.3077 124.45 19.3176 124.471 19.3221Z" fill="#464547"/>
<path d="M138.555 35.4846C139.213 36.6342 139.762 37.7476 140.334 38.8935C140.905 40.0395 141.418 41.1927 141.906 42.3712C142.394 43.5496 142.868 44.7462 143.28 45.9861C143.708 47.2227 144.07 48.4813 144.364 49.7566L144.585 50.7434C144.681 51.2069 144.722 51.6801 144.708 52.1533C144.677 53.0324 144.482 53.8981 144.133 54.7055C143.519 56.066 142.646 57.2939 141.563 58.3205C140.596 59.2535 139.543 60.0924 138.418 60.8256C137.872 61.1871 137.308 61.5197 136.74 61.8378C136.173 62.1559 135.609 62.4488 134.976 62.7271L133.776 60.6268C134.213 60.2653 134.694 59.9038 135.142 59.5134C135.591 59.123 136.028 58.7253 136.462 58.3277C137.3 57.5506 138.077 56.7107 138.786 55.8153C139.417 55.0474 139.907 54.1734 140.232 53.2342C140.344 52.8842 140.388 52.5162 140.362 52.1497C140.352 52.0023 140.324 51.8567 140.279 51.7159L140.033 50.9061C139.303 48.6601 138.434 46.4615 137.431 44.3232C136.935 43.2388 136.408 42.1543 135.88 41.0698C135.352 39.9853 134.795 38.9008 134.257 37.8705L138.555 35.4846Z" fill="#FF8B7B"/>
<path d="M137.89 33.0372C140.905 33.6879 143.001 41.5541 143.001 41.5541L137.611 46.4451C135.898 44.5386 134.55 42.3329 133.635 39.9382C132.207 36.0014 134.665 32.3359 137.89 33.0372Z" fill="#464547"/>
<path d="M134.43 60.2544L130.964 60.2905L133.132 63.7862C133.132 63.7862 135.602 63.1753 135.822 61.9354L134.43 60.2544Z" fill="#FF8B7B"/>
<path d="M128.805 62.3547L130.718 65.1599L133.114 63.7862L130.964 60.2905L128.805 62.3547Z" fill="#FF8B7B"/>
<path d="M134.264 24.1805C133.879 24.8892 133.229 25.4168 132.457 25.6482C131.43 25.9483 130.906 25.0337 131.18 24.0613C131.43 23.1864 132.265 21.9754 133.292 22.1019C134.318 22.2285 134.723 23.3093 134.264 24.1805Z" fill="#FF8B7B"/>
<path d="M103.538 83.9928L99.6837 84.2725L99.7098 84.633L103.564 84.3534L103.538 83.9928Z" fill="#6F2877"/>
<path d="M107.001 83.743L105.108 83.8804L105.135 84.2409L107.027 84.1036L107.001 83.743Z" fill="#6F2877"/>
<path d="M123.632 41.3083L59.8063 45.9102C58.4779 46.0139 57.2439 46.6372 56.3722 47.6449C55.5005 48.6526 55.0614 49.9635 55.1502 51.2929L57.3192 81.3768C57.4219 82.7072 58.0458 83.9432 59.0552 84.8158C60.0646 85.6885 61.3778 86.1272 62.7091 86.0365L66.3241 85.7762C66.5867 85.7573 66.8461 85.8434 67.0454 86.0155C67.2446 86.1877 67.3674 86.4318 67.3869 86.6944L67.7917 92.2687C67.7984 92.3767 67.8371 92.4802 67.903 92.566C67.9689 92.6517 68.0589 92.7158 68.1615 92.75C68.2641 92.7842 68.3746 92.787 68.4788 92.7579C68.583 92.7288 68.676 92.6692 68.7461 92.5868L74.7976 85.5919C75.052 85.2989 75.4119 85.1183 75.7989 85.0894L126.524 81.4346C127.853 81.3319 129.088 80.709 129.961 79.7011C130.833 78.6933 131.273 77.382 131.184 76.0519L129.015 45.9681C128.912 44.639 128.289 43.4042 127.282 42.5317C126.274 41.6593 124.962 41.2196 123.632 41.3083Z" fill="#6F2877"/>
<path d="M69.1293 59.7194L72.578 59.47L72.8599 63.3742L76.6267 63.103L76.3448 59.1988L79.8079 58.9458L80.6141 70.1016L77.1509 70.3511L76.8256 65.8396L73.0588 66.1143L73.3841 70.6258L69.939 70.8752L69.1293 59.7194Z" fill="white"/>
<path opacity="0.2" d="M59.8063 45.9103C58.4779 46.0139 57.2439 46.6373 56.3722 47.645C55.5005 48.6527 55.0614 49.9635 55.1502 51.293L57.3192 81.3769C57.4219 82.7072 58.0458 83.9432 59.0552 84.8159C60.0646 85.6886 61.3778 86.1273 62.7091 86.0366L63.2405 85.9968C64.1234 85.933 64.9606 85.5795 65.6221 84.9912C66.2836 84.403 66.7324 83.6128 66.8988 82.7433L74.1686 44.8728L59.8063 45.9103Z" fill="#464547"/>
<path d="M91.4337 66.0313L85.2232 66.4795C85.2708 66.8818 85.4398 67.2601 85.7076 67.564C85.8612 67.7257 86.0501 67.8496 86.2596 67.9261C86.4691 68.0026 86.6934 68.0296 86.915 68.0051C87.2194 67.9833 87.5132 67.8837 87.7681 67.7159C87.9677 67.5648 88.1379 67.3786 88.2706 67.1664L91.3433 67.2279C91.009 67.9855 90.4661 68.6324 89.7781 69.0932C89.1466 69.4932 88.214 69.7342 86.9801 69.8162C86.1174 69.9166 85.2432 69.824 84.4207 69.5451C83.7613 69.2682 83.1954 68.8077 82.7903 68.2184C82.3259 67.5474 82.0591 66.7596 82.0203 65.9445C81.9558 65.3785 82.0106 64.8052 82.1812 64.2617C82.3518 63.7181 82.6344 63.2163 83.0108 62.7887C83.7627 61.95 84.8472 61.4788 86.2643 61.3752C87.2024 61.2637 88.1537 61.3752 89.0406 61.7005C89.7197 61.9907 90.2919 62.4846 90.6782 63.114C91.1204 63.8957 91.3684 64.7723 91.4012 65.6698L91.4337 66.0313ZM88.1802 64.7733C88.1363 64.3032 87.9335 63.862 87.6055 63.5225C87.4402 63.3953 87.2506 63.3034 87.0483 63.2526C86.8461 63.2017 86.6356 63.193 86.4298 63.2269C86.2241 63.2608 86.0275 63.3366 85.8523 63.4496C85.677 63.5627 85.5269 63.7105 85.4112 63.884C85.2182 64.2241 85.1208 64.6101 85.1292 65.001L88.1802 64.7733Z" fill="white"/>
<path d="M92.3917 58.0386L95.497 57.8145L96.3031 68.9667L93.1979 69.1908L92.3917 58.0386Z" fill="white"/>
<path d="M97.5792 57.6626L100.684 57.4385L101.491 68.5907L98.389 68.8148L97.5792 57.6626Z" fill="white"/>
<path d="M102.799 64.4587C102.741 63.893 102.802 63.3212 102.979 62.7806C103.155 62.2399 103.444 61.7426 103.826 61.3209C104.599 60.4606 105.695 59.9786 107.112 59.875C108.727 59.7593 109.982 60.14 110.879 61.0173C111.623 61.8026 112.054 62.8341 112.088 63.9158C112.122 64.9974 111.757 66.0539 111.063 66.8844C110.297 67.7375 109.186 68.2195 107.73 68.3304C106.599 68.466 105.457 68.1971 104.505 67.5712C103.999 67.22 103.582 66.7561 103.286 66.2159C102.99 65.6758 102.823 65.0743 102.799 64.4587ZM105.904 64.2274C105.899 64.798 106.095 65.3524 106.458 65.7927C106.604 65.9426 106.781 66.0589 106.977 66.1335C107.173 66.2081 107.383 66.2393 107.592 66.2248C107.801 66.2104 108.004 66.1507 108.188 66.0498C108.371 65.949 108.531 65.8095 108.655 65.6408C108.948 65.1376 109.057 64.5491 108.966 63.9743C108.97 63.4152 108.777 62.8726 108.421 62.4416C108.281 62.2889 108.109 62.1703 107.916 62.0951C107.724 62.0198 107.517 61.99 107.311 62.0078C107.096 62.0178 106.886 62.0771 106.698 62.1812C106.51 62.2852 106.349 62.4313 106.226 62.6079C105.935 63.0942 105.826 63.6682 105.919 64.2274H105.904Z" fill="white"/>
<path d="M113.066 56.5418L116.374 56.3032L116.558 58.8337L116.287 63.9851L114.241 64.1333L113.247 59.0723L113.066 56.5418ZM113.789 64.9575L116.876 64.7334L117.075 67.4663L113.984 67.6868L113.789 64.9575Z" fill="white"/>
<path d="M58.9242 36.0052C58.908 36.5343 58.9358 37.0639 59.0073 37.5885C55.7317 38.6824 52.2382 38.9592 48.8312 38.3947C48.9947 37.7763 49.0941 37.1427 49.1276 36.504C49.0136 37.1472 48.7899 37.7659 48.4661 38.3332C47.8226 38.2103 47.4611 38.1055 47.4611 38.1055C47.4611 38.1055 48.119 34.5483 46.9333 31.96C45.7476 29.3717 46.3405 27.9257 47.237 27.5172C48.8999 22.4056 55.1502 23.2117 57.2649 25.2867C59.9472 27.9184 59.9617 35.3328 60.4389 37.0282C60.0449 37.1981 59.658 37.3535 59.2712 37.4909C59.0775 37.0172 58.9604 36.5157 58.9242 36.0052Z" fill="#464547"/>
<path d="M61.5089 43.9617L61.8342 44.9919C61.9535 45.3534 62.0728 45.7149 62.1957 46.0584C62.4379 46.7814 62.691 47.5044 62.9621 48.1984C63.2332 48.8925 63.4935 49.6227 63.7755 50.3313L64.1948 51.4158L64.2997 51.6833L64.325 51.7447C64.2803 51.7056 64.2288 51.675 64.1731 51.6543C64.0936 51.6254 64.0611 51.6543 64.1117 51.6543C64.1987 51.654 64.2853 51.6406 64.3683 51.6146C64.651 51.525 64.9227 51.4037 65.1781 51.2531C65.7946 50.8939 66.3842 50.4903 66.9422 50.0457C67.5278 49.5902 68.1026 49.1022 68.6666 48.5997C69.2305 48.0972 69.798 47.573 70.3439 47.0597L71.4537 47.9996C70.991 48.6648 70.503 49.2721 70.0077 49.8902C69.5125 50.5084 68.9557 51.0868 68.3846 51.6616C67.7966 52.2616 67.1567 52.8084 66.4723 53.2955C66.0806 53.5699 65.66 53.8002 65.2179 53.9824C64.9373 54.0949 64.6432 54.1703 64.343 54.2065C63.9356 54.2573 63.5221 54.2012 63.1429 54.0439C62.7295 53.8677 62.3774 53.5734 62.1307 53.1979C62.0764 53.1148 62.0258 53.0317 61.9861 52.9557L61.8885 52.7605L61.7583 52.4966C61.5884 52.1351 61.3968 51.7736 61.2486 51.4338C60.9196 50.7108 60.5907 49.9878 60.2906 49.2648C59.9906 48.5418 59.6978 47.7972 59.4194 47.0525C59.2893 46.691 59.1592 46.2969 59.0362 45.9174C58.9133 45.5378 58.794 45.1655 58.6747 44.7208L61.5089 43.9617Z" fill="#FFC3BD"/>
<path d="M60.6521 40.7516C61.8993 41.0697 62.7705 46.1958 62.7705 46.1958L59.3363 48.5311C59.3363 48.5311 56.0466 43.358 57.0046 41.9879C58.0023 40.5636 58.8338 40.2889 60.6521 40.7516Z" fill="#6F2877"/>
<path d="M60.6521 40.7516C61.8993 41.0697 62.7705 46.1958 62.7705 46.1958L59.3363 48.5311C59.3363 48.5311 56.0466 43.358 57.0046 41.9879C58.0023 40.5636 58.8338 40.2889 60.6521 40.7516Z" fill="#6F2877"/>
<path opacity="0.4" d="M60.6521 40.7516C61.8993 41.0697 62.7705 46.1958 62.7705 46.1958L59.3363 48.5311C59.3363 48.5311 56.0466 43.358 57.0046 41.9879C58.0023 40.5636 58.8338 40.2889 60.6521 40.7516Z" fill="white"/>
<path opacity="0.3" d="M60.5401 41.8975L61.498 47.0633L59.5676 48.3719L60.5401 41.8975Z" fill="#464547"/>
<path d="M70.2861 47.1827L71.432 44.4209L72.8455 47.1827C72.8455 47.1827 71.9273 48.5564 70.7163 48.2202L70.2861 47.1827Z" fill="#FFC3BD"/>
<path d="M72.6936 44.1353L74.5084 44.8655L72.8455 47.1827L71.4284 44.4208L72.6936 44.1353Z" fill="#FFC3BD"/>
<path d="M53.9102 127.048H56.936L57.1384 120.046H54.1127L53.9102 127.048Z" fill="#FFC3BD"/>
<path d="M33.6229 118.029L36.4028 119.215L40.0431 113.156L37.2596 111.97L33.6229 118.029Z" fill="#FFC3BD"/>
<path d="M36.9379 118.803L34.0459 117.024C33.9964 116.992 33.937 116.98 33.8789 116.989C33.8209 116.998 33.7684 117.029 33.7314 117.075L31.9926 119.16C31.9493 119.215 31.9182 119.278 31.9014 119.346C31.8846 119.413 31.8825 119.484 31.8952 119.552C31.9078 119.621 31.935 119.686 31.9749 119.743C32.0148 119.8 32.0664 119.848 32.1263 119.883C33.1457 120.487 33.6663 120.726 34.9388 121.507C35.7232 121.991 36.815 122.772 37.8958 123.437C38.9767 124.102 39.7033 123.075 39.3021 122.696C37.5488 121.022 37.5994 120.227 37.2704 119.236C37.2158 119.056 37.0976 118.902 36.9379 118.803Z" fill="#464547"/>
<path d="M57.0371 126.698H53.6427C53.5842 126.697 53.5275 126.718 53.483 126.755C53.4385 126.793 53.4092 126.846 53.4005 126.904L53.0137 129.593C53.0042 129.662 53.0099 129.733 53.0302 129.799C53.0506 129.866 53.0852 129.927 53.1316 129.979C53.178 130.031 53.2351 130.072 53.299 130.1C53.3629 130.127 53.4321 130.141 53.5017 130.139C54.6874 130.121 55.2586 130.049 56.7552 130.049C57.6734 130.049 59.5749 130.146 60.8437 130.146C62.1126 130.146 62.1776 128.892 61.6498 128.776C59.282 128.267 58.3494 127.565 57.5505 126.897C57.409 126.77 57.2266 126.7 57.0371 126.698Z" fill="#464547"/>
<path opacity="0.2" d="M57.1348 120.05L57.0336 123.658H54.0078L54.1127 120.05H57.1348Z" fill="#464547"/>
<path opacity="0.2" d="M37.2596 111.974L40.0395 113.156L38.1633 116.279L35.3834 115.094L37.2596 111.974Z" fill="#464547"/>
<path d="M60.6521 40.7517C60.6521 40.7517 62.0981 41.2578 59.2061 58.9965H46.9152C47.1213 54.0006 47.1285 50.9207 44.7462 40.665C46.4648 40.3098 48.207 40.0802 49.959 39.9781C51.8159 39.8442 53.68 39.8442 55.5369 39.9781C57.9373 40.195 60.6521 40.7517 60.6521 40.7517Z" fill="#6F2877"/>
<path opacity="0.4" d="M60.6521 40.7517C60.6521 40.7517 62.0981 41.2578 59.2061 58.9965H46.9152C47.1213 54.0006 47.1285 50.9207 44.7462 40.665C46.4648 40.3098 48.207 40.0802 49.959 39.9781C51.8159 39.8442 53.68 39.8442 55.5369 39.9781C57.9373 40.195 60.6521 40.7517 60.6521 40.7517Z" fill="white"/>
<path d="M49.9662 39.9745C51.8233 39.8441 53.6871 39.8441 55.5442 39.9745C55.8442 40.0034 56.1515 40.0359 56.4551 40.0721C56.5815 40.2621 56.6626 40.4785 56.692 40.7048C56.7215 40.9311 56.6986 41.1611 56.625 41.3771C56.231 42.3495 54.8175 42.4616 53.7909 42.4616C49.9915 42.4616 49.3481 40.242 49.3228 40.148L49.2866 40.0142L49.9662 39.9745Z" fill="white"/>
<path d="M50.5193 33.6987C50.8808 35.5062 51.2243 38.7814 49.9662 39.978C49.9662 39.978 50.4579 41.7854 53.7909 41.7854C57.4565 41.7854 55.5442 39.978 55.5442 39.978C53.5415 39.5008 53.5957 38.015 53.9427 36.6232L50.5193 33.6987Z" fill="#FFC3BD"/>
<path d="M50.8844 32.4226C50.4543 33.8433 51.0507 37.2052 51.9364 38.5066C50.1904 37.5053 49.6011 34.4542 49.6011 34.4542L50.8844 32.4226Z" fill="#464547"/>
<path opacity="0.2" d="M51.9147 34.8918L53.9427 36.6198C53.8537 36.9438 53.7956 37.2754 53.7692 37.6103C53.0064 37.4982 51.9617 36.6596 51.8749 35.8607C51.83 35.5379 51.8435 35.2098 51.9147 34.8918Z" fill="#464547"/>
<path d="M48.8637 30.496C49.565 33.4133 49.7964 34.6641 51.5532 35.9185C54.1958 37.8019 57.6264 36.3053 57.8108 33.2362C57.9771 30.4743 56.8058 26.1689 53.715 25.5037C53.034 25.3534 52.3259 25.3795 51.6578 25.5798C50.9898 25.78 50.384 26.1476 49.898 26.6478C49.4119 27.1479 49.0618 27.764 48.8808 28.4375C48.6998 29.111 48.6939 29.8196 48.8637 30.496Z" fill="#FFC3BD"/>
<path d="M59.2097 58.9965C59.2097 58.9965 61.592 82.2842 61.3787 91.5024C61.1727 101.089 57.6589 122.953 57.6589 122.953H53.574C53.574 122.953 54.2211 101.642 53.8596 92.2254C53.4655 81.9588 50.2048 58.9893 50.2048 58.9893L59.2097 58.9965Z" fill="#6F2877"/>
<path opacity="0.4" d="M59.2097 58.9965C59.2097 58.9965 61.592 82.2842 61.3787 91.5024C61.1727 101.089 57.6589 122.953 57.6589 122.953H53.574C53.574 122.953 54.2211 101.642 53.8596 92.2254C53.4655 81.9588 50.2048 58.9893 50.2048 58.9893L59.2097 58.9965Z" fill="#464547"/>
<path d="M53.2342 123.105H58.0277L58.3819 121.575L53.0101 121.387L53.2342 123.105Z" fill="#6F2877"/>
<path opacity="0.2" d="M53.9138 64.7913C56.9287 70.8573 54.5175 81.9227 53.4511 86.0402C52.9052 79.8586 51.9834 72.3032 51.264 66.747C51.7195 63.6237 52.5221 61.9933 53.9138 64.7913Z" fill="#464547"/>
<path d="M55.9671 58.9963C55.9671 58.9963 53.1836 83.2167 51.0833 90.9781C48.5926 100.207 39.1105 115.921 39.1105 115.921L35.3184 114.309C35.3184 114.309 41.1855 96.4656 43.0942 91.6035C47.161 81.2285 43.6798 65.7672 46.9297 58.9963H55.9671Z" fill="#6F2877"/>
<path opacity="0.4" d="M55.9671 58.9963C55.9671 58.9963 53.1836 83.2167 51.0833 90.9781C48.5926 100.207 39.1105 115.921 39.1105 115.921L35.3184 114.309C35.3184 114.309 41.1855 96.4656 43.0942 91.6035C47.161 81.2285 43.6798 65.7672 46.9297 58.9963H55.9671Z" fill="#464547"/>
<path d="M34.7942 114.32L39.5009 116.323L40.6324 115.058L35.2027 112.451L34.7942 114.32Z" fill="#6F2877"/>
<path d="M53.5017 30.5356C53.5451 30.7742 53.7041 30.9477 53.8632 30.9188C54.0223 30.8899 54.1126 30.673 54.0693 30.4344C54.0259 30.1958 53.8668 30.0223 53.7078 30.0476C53.5487 30.0729 53.4403 30.2934 53.5017 30.5356Z" fill="#464547"/>
<path d="M56.1985 30.0586C56.2383 30.2972 56.4009 30.4707 56.56 30.4418C56.7191 30.4129 56.813 30.196 56.7697 29.9574C56.7263 29.7188 56.5672 29.5453 56.4082 29.5706C56.2491 29.5959 56.1551 29.8164 56.1985 30.0586Z" fill="#464547"/>
<path d="M56.3395 29.5995L56.8853 29.3284C56.8853 29.3284 56.6684 29.8309 56.3395 29.5995Z" fill="#464547"/>
<path d="M55.5514 30.5972C55.8618 31.1074 56.2413 31.5721 56.6793 31.9781C56.572 32.0867 56.4424 32.1707 56.2995 32.2244C56.1566 32.2781 56.0037 32.3001 55.8514 32.289L55.5514 30.5972Z" fill="#ED847E"/>
<path d="M54.7633 33.4204C54.9003 33.4201 55.037 33.408 55.1718 33.3842C55.1822 33.3838 55.1923 33.3812 55.2015 33.3765C55.2107 33.3719 55.2188 33.3653 55.2253 33.3573C55.2318 33.3492 55.2364 33.3399 55.239 33.3298C55.2415 33.3198 55.2419 33.3094 55.2401 33.2992C55.2383 33.2891 55.2343 33.2794 55.2284 33.2709C55.2225 33.2624 55.2149 33.2553 55.206 33.2499C55.1972 33.2446 55.1873 33.2413 55.177 33.2401C55.1668 33.239 55.1564 33.2401 55.1465 33.2433C54.8489 33.3026 54.5414 33.2906 54.2492 33.2083C53.957 33.126 53.6885 32.9757 53.4656 32.7697C53.4521 32.7564 53.4339 32.749 53.415 32.749C53.396 32.749 53.3779 32.7564 53.3643 32.7697C53.3573 32.7761 53.3517 32.7839 53.3479 32.7927C53.3441 32.8014 53.3421 32.8108 53.3421 32.8203C53.3421 32.8298 53.3441 32.8392 53.3479 32.8479C53.3517 32.8567 53.3573 32.8645 53.3643 32.8709C53.7417 33.2287 54.2434 33.4258 54.7633 33.4204Z" fill="#464547"/>
<path d="M49.8867 28.786C49.9657 29.5547 50.0864 30.3186 50.2482 31.0743C50.2482 31.0743 52.0557 28.786 52.3557 27.5605C52.284 28.043 52.144 28.5128 51.94 28.9559C51.94 28.9559 54.3729 28.4245 54.6115 26.8194C54.6074 27.538 54.5274 28.2541 54.3729 28.9559C54.3729 28.9559 56.6937 28.0449 56.4804 26.5049C56.2671 24.965 52.7028 24.3685 51.0579 24.889C49.4131 25.4096 47.8045 27.0978 48.2889 29.4186C48.7733 31.7394 49.7023 32.6106 49.7023 32.6106C49.7023 32.6106 49.0336 30.2717 49.8867 28.786Z" fill="#464547"/>
<path d="M48.7372 32.6938C48.9603 33.2293 49.3867 33.6544 49.9229 33.8759C50.6459 34.1651 51.0761 33.5469 50.9495 32.8312C50.8375 32.1841 50.3277 31.2587 49.5794 31.2731C49.4157 31.2804 49.2564 31.3283 49.1158 31.4126C48.9752 31.4968 48.8578 31.6148 48.7742 31.7557C48.6906 31.8967 48.6435 32.0563 48.637 32.2201C48.6305 32.3839 48.665 32.5467 48.7372 32.6938Z" fill="#FFC3BD"/>
<path d="M50.3241 27.6726C49.9626 29.1186 50.7145 32.4444 51.6617 33.6988C49.8542 32.7842 49.1312 29.7621 49.1312 29.7621L50.3241 27.6726Z" fill="#464547"/>
<path d="M52.5112 29.7114C52.5298 29.7058 52.547 29.6965 52.5619 29.6841C52.5768 29.6717 52.5891 29.6564 52.5979 29.6391C52.6741 29.4761 52.7879 29.3334 52.9299 29.2228C53.0719 29.1122 53.2382 29.0368 53.4149 29.0029C53.4523 28.9975 53.4862 28.978 53.5097 28.9485C53.5333 28.9189 53.5446 28.8815 53.5415 28.8438C53.5397 28.8249 53.5341 28.8066 53.5251 28.7899C53.516 28.7732 53.5037 28.7585 53.4889 28.7467C53.474 28.7349 53.4569 28.7262 53.4386 28.7212C53.4203 28.7161 53.4012 28.7148 53.3824 28.7173C53.1581 28.7562 52.9465 28.8484 52.7653 28.9862C52.5841 29.124 52.4387 29.3033 52.3413 29.509C52.329 29.5341 52.3243 29.5623 52.3277 29.59C52.3311 29.6178 52.3425 29.644 52.3604 29.6654C52.3784 29.6869 52.4022 29.7026 52.429 29.7108C52.4557 29.7189 52.4843 29.7192 52.5112 29.7114Z" fill="#464547"/>
<path d="M57.1854 28.5907C57.2036 28.5915 57.2217 28.5884 57.2385 28.5815C57.2554 28.5746 57.2705 28.5642 57.283 28.551C57.3095 28.5239 57.3243 28.4876 57.3243 28.4498C57.3243 28.4119 57.3095 28.3756 57.283 28.3485C57.1288 28.1817 56.9376 28.0535 56.7247 27.9744C56.5117 27.8952 56.2832 27.8674 56.0575 27.893C56.0387 27.8965 56.0208 27.9037 56.0048 27.9141C55.9888 27.9246 55.975 27.9381 55.9642 27.9539C55.9535 27.9697 55.9459 27.9874 55.9421 28.0062C55.9383 28.0249 55.9382 28.0442 55.9418 28.063C55.9497 28.0995 55.9714 28.1316 56.0024 28.1525C56.0334 28.1734 56.0713 28.1815 56.1081 28.175C56.2861 28.1551 56.4662 28.1775 56.634 28.2403C56.8017 28.3031 56.9522 28.4046 57.0733 28.5365C57.0868 28.5533 57.1038 28.5669 57.1232 28.5763C57.1426 28.5857 57.1638 28.5906 57.1854 28.5907Z" fill="#464547"/>
<path d="M46.2465 44.9559C45.744 46.5429 45.2632 48.2094 44.8547 49.8506C44.4435 51.4708 44.1428 53.1169 43.9546 54.7778L43.9256 55.0815C43.9256 55.1791 43.9256 55.2008 43.9256 55.2875C43.9296 55.458 43.9429 55.6282 43.9654 55.7973C44.0114 56.1932 44.0778 56.5866 44.1642 56.9757C44.3341 57.7819 44.5257 58.6133 44.7716 59.4375C45.0174 60.2617 45.227 61.1004 45.4729 61.9319L46.1959 64.4262L44.8547 64.9793C44.0305 63.4032 43.3147 61.7981 42.6459 60.1425C42.3242 59.311 42.0097 58.4723 41.7494 57.5867C41.6193 57.1456 41.4964 56.6938 41.3879 56.2021C41.3364 55.9418 41.3002 55.6786 41.2795 55.4141C41.2795 55.2803 41.2795 55.0815 41.2795 54.9622V54.6007C41.3101 53.6795 41.3946 52.761 41.5325 51.8497C41.6518 50.9459 41.829 50.0639 42.0205 49.1854C42.3967 47.4261 42.8796 45.6914 43.4665 43.9907L46.2465 44.9559Z" fill="#FFC3BD"/>
<path d="M44.7535 40.6648C43.5244 41.0263 42.0458 45.2739 42.0458 45.2739L46.8176 48.6864C46.8176 48.6864 48.56 45.151 48.0431 43.5604C47.5045 41.9047 46.1597 40.2382 44.7535 40.6648Z" fill="#6F2877"/>
<path opacity="0.4" d="M44.7535 40.6648C43.5244 41.0263 42.0458 45.2739 42.0458 45.2739L46.8176 48.6864C46.8176 48.6864 48.56 45.151 48.0431 43.5604C47.5045 41.9047 46.1597 40.2382 44.7535 40.6648Z" fill="white"/>
<path d="M38.1597 119.952C38.2185 119.932 38.272 119.898 38.3163 119.855C38.3607 119.811 38.3949 119.758 38.4164 119.699C38.4372 119.662 38.4482 119.619 38.4482 119.576C38.4482 119.533 38.4372 119.491 38.4164 119.453C38.1995 119.135 37.1041 119.161 36.9704 119.164C36.9565 119.165 36.943 119.169 36.9315 119.176C36.9199 119.184 36.9108 119.195 36.9053 119.208C36.8983 119.219 36.8945 119.232 36.8945 119.246C36.8945 119.259 36.8983 119.272 36.9053 119.284C37.1909 119.569 37.7259 120.035 38.1019 119.963L38.1597 119.952ZM37.1439 119.294C37.5813 119.294 38.1669 119.356 38.2826 119.526C38.2925 119.542 38.2977 119.561 38.2977 119.58C38.2977 119.599 38.2925 119.618 38.2826 119.634C38.2666 119.678 38.2401 119.717 38.2054 119.748C38.1707 119.779 38.1289 119.8 38.0838 119.811C37.885 119.862 37.5379 119.656 37.1439 119.294Z" fill="#6F2877"/>
<path d="M37.4656 119.218C37.7982 119.114 38.1525 118.929 38.2284 118.723C38.2472 118.67 38.2475 118.611 38.2292 118.557C38.2108 118.504 38.1749 118.458 38.1272 118.427C38.0851 118.392 38.0355 118.366 37.9823 118.353C37.929 118.34 37.8735 118.339 37.8199 118.351C37.3897 118.427 36.927 119.164 36.9089 119.197C36.9026 119.208 36.8992 119.22 36.8992 119.233C36.8992 119.246 36.9026 119.258 36.9089 119.269C36.9154 119.28 36.9244 119.288 36.9351 119.295C36.9459 119.301 36.958 119.305 36.9704 119.305C37.1388 119.3 37.3056 119.271 37.4656 119.218ZM37.7982 118.495H37.8452C37.8792 118.488 37.9143 118.489 37.9481 118.497C37.9818 118.505 38.0134 118.521 38.0404 118.542C38.1127 118.6 38.1055 118.644 38.0946 118.676C38.0223 118.875 37.4729 119.114 37.1077 119.161C37.2739 118.883 37.5126 118.655 37.7982 118.503V118.495Z" fill="#6F2877"/>
<path d="M58.1723 127.225C58.4271 127.246 58.6816 127.182 58.8952 127.041C58.9449 126.996 58.9828 126.94 59.0055 126.877C59.0282 126.814 59.035 126.746 59.0254 126.68C59.0225 126.64 59.0098 126.603 58.9883 126.57C58.9668 126.537 58.9372 126.51 58.9025 126.492C58.541 126.289 57.33 126.904 57.1926 126.972C57.1793 126.978 57.168 126.987 57.16 126.999C57.152 127.011 57.1478 127.025 57.1478 127.039C57.1478 127.054 57.152 127.068 57.16 127.08C57.168 127.091 57.1793 127.101 57.1926 127.106C57.5143 127.179 57.8425 127.219 58.1723 127.225ZM58.7109 126.6C58.7569 126.597 58.8029 126.606 58.8446 126.625C58.8589 126.633 58.8708 126.645 58.8791 126.659C58.8873 126.673 58.8917 126.689 58.8916 126.705C58.8984 126.747 58.8946 126.789 58.8808 126.829C58.8669 126.869 58.8433 126.904 58.8121 126.933C58.6277 127.099 58.1289 127.128 57.4601 127.016C57.8505 126.807 58.2734 126.667 58.7109 126.6Z" fill="#6F2877"/>
<path d="M57.236 127.121H57.2649C57.6264 126.958 58.3494 126.307 58.2843 125.964C58.2843 125.881 58.212 125.783 58.0132 125.762C57.942 125.754 57.87 125.76 57.8016 125.782C57.7331 125.803 57.6698 125.838 57.6156 125.884C57.2541 126.203 57.1673 127.016 57.1637 127.048C57.1632 127.061 57.166 127.074 57.1716 127.085C57.1773 127.097 57.1858 127.106 57.1962 127.114C57.208 127.121 57.2223 127.124 57.236 127.121ZM57.959 125.895H58.0024C58.1325 125.895 58.1433 125.964 58.1433 125.978C58.1795 126.184 57.6951 126.701 57.3264 126.922C57.3553 126.578 57.4905 126.252 57.7132 125.989C57.7795 125.929 57.8658 125.896 57.9554 125.895H57.959Z" fill="#6F2877"/>
<path d="M46.7453 58.277L46.4344 59.3615C46.391 59.4447 46.4922 59.5314 46.6332 59.5314H59.2857C59.3977 59.5314 59.4881 59.4772 59.4953 59.4085L59.6074 58.324C59.6074 58.2481 59.517 58.1831 59.3977 58.1831H46.9477C46.9088 58.18 46.8697 58.1871 46.8342 58.2036C46.7988 58.22 46.7681 58.2453 46.7453 58.277Z" fill="#464547"/>
<path d="M48.4154 59.6652H48.0792C48.0142 59.6652 47.9635 59.6327 47.9672 59.5893L48.1226 58.1433C48.1226 58.1035 48.1877 58.0674 48.2527 58.0674H48.5853C48.654 58.0674 48.701 58.1035 48.6974 58.1433L48.5419 59.5893C48.5419 59.6471 48.4841 59.6652 48.4154 59.6652Z" fill="#6F2877"/>
<path opacity="0.4" d="M48.4154 59.6652H48.0792C48.0142 59.6652 47.9635 59.6327 47.9672 59.5893L48.1226 58.1433C48.1226 58.1035 48.1877 58.0674 48.2527 58.0674H48.5853C48.654 58.0674 48.701 58.1035 48.6974 58.1433L48.5419 59.5893C48.5419 59.6471 48.4841 59.6652 48.4154 59.6652Z" fill="#464547"/>
<path d="M58.3313 59.6652H57.9987C57.9337 59.6652 57.883 59.6327 57.8867 59.5893L58.0457 58.1433C58.0457 58.1035 58.1072 58.0674 58.1722 58.0674H58.5048C58.5735 58.0674 58.6241 58.1035 58.6169 58.1433L58.4614 59.5893C58.4578 59.6471 58.4 59.6652 58.3313 59.6652Z" fill="#6F2877"/>
<path opacity="0.4" d="M58.3313 59.6652H57.9987C57.9337 59.6652 57.883 59.6327 57.8867 59.5893L58.0457 58.1433C58.0457 58.1035 58.1072 58.0674 58.1722 58.0674H58.5048C58.5735 58.0674 58.6241 58.1035 58.6169 58.1433L58.4614 59.5893C58.4578 59.6471 58.4 59.6652 58.3313 59.6652Z" fill="#464547"/>
<path d="M53.3752 59.6652H53.0426C52.9739 59.6652 52.9233 59.6327 52.9306 59.5893L53.086 58.1433C53.086 58.1035 53.1475 58.0674 53.2161 58.0674H53.5487C53.6138 58.0674 53.6644 58.1035 53.6608 58.1433L53.5053 59.5893C53.5017 59.6471 53.4403 59.6652 53.3752 59.6652Z" fill="#6F2877"/>
<path opacity="0.4" d="M53.3752 59.6652H53.0426C52.9739 59.6652 52.9233 59.6327 52.9306 59.5893L53.086 58.1433C53.086 58.1035 53.1475 58.0674 53.2161 58.0674H53.5487C53.6138 58.0674 53.6644 58.1035 53.6608 58.1433L53.5053 59.5893C53.5017 59.6471 53.4403 59.6652 53.3752 59.6652Z" fill="#464547"/>
<path d="M53.6246 30.0729L54.1705 29.8054C54.1705 29.8054 53.9536 30.3079 53.6246 30.0729Z" fill="#464547"/>
<path d="M46.0946 64.0176L48.6866 66.0058L45.6825 66.6674C45.6825 66.6674 44.4064 65.2214 44.8474 64.0284L46.0946 64.0176Z" fill="#FFC3BD"/>
<path d="M49.3228 68.4677L46.7779 68.8834L45.3897 66.2734L48.6866 66.0059L49.3228 68.4677Z" fill="#FFC3BD"/>
</svg>
