<svg width="181" height="136" viewBox="0 0 181 136" fill="none" xmlns="http://www.w3.org/2000/svg">
<path d="M180.749 119.326H0V119.416H180.749V119.326Z" fill="#EBEBEB"/>
<path d="M162.638 125.142H150.665V125.232H162.638V125.142Z" fill="#EBEBEB"/>
<path d="M119.735 126.125H116.594V126.216H119.735V126.125Z" fill="#EBEBEB"/>
<path d="M150.304 121.787H143.367V121.878H150.304V121.787Z" fill="#EBEBEB"/>
<path d="M34.5773 122.395H18.9642V122.485H34.5773V122.395Z" fill="#EBEBEB"/>
<path d="M40.0865 122.395H37.7982V122.485H40.0865V122.395Z" fill="#EBEBEB"/>
<path d="M81.3913 123.92H47.5262V124.011H81.3913V123.92Z" fill="#EBEBEB"/>
<path d="M85.675 103.203H15.8734C15.3266 103.202 14.8025 102.984 14.4161 102.597C14.0298 102.21 13.8128 101.686 13.8128 101.139V3.01727C13.8176 2.47359 14.0367 1.95374 14.4225 1.57063C14.8083 1.18753 15.3297 0.972123 15.8734 0.971191H85.675C86.2225 0.971191 86.7475 1.18866 87.1346 1.57577C87.5217 1.96287 87.7392 2.4879 87.7392 3.03535V101.139C87.7392 101.686 87.5217 102.211 87.1346 102.598C86.7475 102.985 86.2225 103.203 85.675 103.203ZM15.8734 1.04349C15.3505 1.04445 14.8494 1.25282 14.48 1.62287C14.1107 1.99293 13.9032 2.49442 13.9032 3.01727V101.139C13.9032 101.662 14.1107 102.163 14.48 102.533C14.8494 102.903 15.3505 103.112 15.8734 103.112H85.675C86.1982 103.112 86.6997 102.903 87.0697 102.533C87.4396 102.163 87.6479 101.662 87.6488 101.139V3.01727C87.6479 2.49409 87.4396 1.9926 87.0697 1.62265C86.6997 1.2527 86.1982 1.04445 85.675 1.04349H15.8734Z" fill="#EBEBEB"/>
<path d="M163.871 103.203H94.0654C93.5182 103.202 92.9938 102.984 92.6069 102.597C92.22 102.21 92.0022 101.686 92.0013 101.139V3.01727C92.007 2.47326 92.2268 1.95341 92.6132 1.57041C92.9996 1.18741 93.5214 0.972113 94.0654 0.971191H163.871C164.414 0.973073 164.934 1.1889 165.319 1.5719C165.704 1.9549 165.923 2.47421 165.928 3.01727V101.139C165.928 101.685 165.711 102.209 165.326 102.596C164.94 102.983 164.417 103.201 163.871 103.203ZM94.0654 1.04349C93.5422 1.04445 93.0407 1.2527 92.6708 1.62265C92.3008 1.9926 92.0926 2.49409 92.0916 3.01727V101.139C92.0926 101.662 92.3008 102.163 92.6708 102.533C93.0407 102.903 93.5422 103.112 94.0654 103.112H163.871C164.394 103.112 164.895 102.903 165.265 102.533C165.635 102.163 165.843 101.662 165.844 101.139V3.01727C165.843 2.49409 165.635 1.9926 165.265 1.62265C164.895 1.2527 164.394 1.04445 163.871 1.04349H94.0654Z" fill="#EBEBEB"/>
<path d="M87.6054 43.946H36.2799V119.199H87.6054V43.946Z" fill="#F0F0F0"/>
<path d="M85.7907 46.314H38.0911V60.2136H85.7907V46.314Z" fill="#E0E0E0"/>
<path d="M40.8023 48.5625H38.0911V60.21H40.8023V48.5625Z" fill="#EBEBEB"/>
<path d="M53.9066 48.5625H51.1953V60.21H53.9066V48.5625Z" fill="#EBEBEB"/>
<path d="M68.7793 48.2699L66.1075 48.7305L68.086 60.2087L70.7578 59.7481L68.7793 48.2699Z" fill="#EBEBEB"/>
<path d="M44.1606 50.0989H41.4494V60.2136H44.1606V50.0989Z" fill="#EBEBEB"/>
<path d="M50.3892 50.0989H47.678V60.2136H50.3892V50.0989Z" fill="#EBEBEB"/>
<path d="M66.1108 50.0989H63.3995V60.2136H66.1108V50.0989Z" fill="#EBEBEB"/>
<path d="M57.4678 49.7477L54.8211 50.3359L57.0155 60.2097L59.6622 59.6215L57.4678 49.7477Z" fill="#EBEBEB"/>
<path d="M46.5031 47.9841H45.1475V60.21H46.5031V47.9841Z" fill="#EBEBEB"/>
<path d="M62.6187 47.9841H61.2631V60.21H62.6187V47.9841Z" fill="#EBEBEB"/>
<path d="M38.0947 76.3147H85.7943V62.4151L38.0947 62.4151V76.3147Z" fill="#E0E0E0"/>
<path d="M83.0795 76.311H85.7907V64.6636H83.0795V76.311Z" fill="#EBEBEB"/>
<path d="M69.9788 76.311H72.69V64.6636H69.9788V76.311Z" fill="#EBEBEB"/>
<path d="M53.1283 75.848L55.8002 76.3086L57.7787 64.8304L55.1068 64.3698L53.1283 75.848Z" fill="#EBEBEB"/>
<path d="M79.7212 76.3147H82.4324V66.2H79.7212V76.3147Z" fill="#EBEBEB"/>
<path d="M73.4962 76.3147H76.2074V66.2H73.4962V76.3147Z" fill="#EBEBEB"/>
<path d="M57.7746 76.3147H60.4858V66.2H57.7746V76.3147Z" fill="#EBEBEB"/>
<path d="M64.232 75.7238L66.8787 76.312L69.0731 66.4382L66.4264 65.85L64.232 75.7238Z" fill="#EBEBEB"/>
<path d="M77.3787 76.311H78.7343V64.0852H77.3787V76.311Z" fill="#EBEBEB"/>
<path d="M61.2667 76.311H62.6223V64.0852H61.2667V76.311Z" fill="#EBEBEB"/>
<path d="M40.8023 64.6636H38.0911V76.311H40.8023V64.6636Z" fill="#EBEBEB"/>
<path d="M44.1606 66.1963H41.4494V76.311H44.1606V66.1963Z" fill="#EBEBEB"/>
<path d="M50.3892 66.1963H47.678V76.311H50.3892V66.1963Z" fill="#EBEBEB"/>
<path d="M46.5031 64.0852H45.1475V76.3111H46.5031V64.0852Z" fill="#EBEBEB"/>
<path d="M85.7907 78.5125H38.0911V92.4121H85.7907V78.5125Z" fill="#E0E0E0"/>
<path d="M68.1822 80.761H65.4709V92.4085H68.1822V80.761Z" fill="#EBEBEB"/>
<path d="M83.057 80.4677L80.3852 80.9282L82.3637 92.4064L85.0355 91.9459L83.057 80.4677Z" fill="#EBEBEB"/>
<path d="M58.4362 82.2974H55.7249V92.4121H58.4362V82.2974Z" fill="#EBEBEB"/>
<path d="M64.6648 82.2974H61.9536V92.4121H64.6648V82.2974Z" fill="#EBEBEB"/>
<path d="M80.3863 82.2974H77.6751V92.4121H80.3863V82.2974Z" fill="#EBEBEB"/>
<path d="M71.7445 81.947L69.0978 82.5352L71.2922 92.409L73.9389 91.8208L71.7445 81.947Z" fill="#EBEBEB"/>
<path d="M60.7787 80.1826H59.4231V92.4085H60.7787V80.1826Z" fill="#EBEBEB"/>
<path d="M76.8943 80.1826H75.5386V92.4085H76.8943V80.1826Z" fill="#EBEBEB"/>
<path d="M51.8826 80.4704L49.2108 80.9309L51.1893 92.4091L53.8611 91.9486L51.8826 80.4704Z" fill="#EBEBEB"/>
<path d="M49.2107 82.2974H46.4995V92.4121H49.2107V82.2974Z" fill="#EBEBEB"/>
<path d="M40.5704 81.9467L37.9237 82.5349L40.1181 92.4087L42.7648 91.8205L40.5704 81.9467Z" fill="#EBEBEB"/>
<path d="M45.7223 80.1826H44.3667V92.4085H45.7223V80.1826Z" fill="#EBEBEB"/>
<path d="M27.4232 119.394H36.2799L36.2799 43.946H27.4232L27.4232 119.394Z" fill="#E0E0E0"/>
<path d="M117.646 117.424H110.123L114.078 85.2002C114.173 84.527 114.504 83.9092 115.011 83.4571C115.519 83.0049 116.171 82.7477 116.851 82.7312H149.66L144.849 117.41L117.646 117.424Z" fill="#F5F5F5"/>
<path d="M141.505 117.424H149.028L152.986 85.2002C153.034 84.8904 153.014 84.5738 152.926 84.2728C152.839 83.9718 152.686 83.6937 152.479 83.4581C152.272 83.2226 152.016 83.0354 151.729 82.9098C151.442 82.7842 151.13 82.7232 150.817 82.7312H148.232C147.554 82.7519 146.904 83.0106 146.397 83.462C145.891 83.9134 145.559 84.5287 145.46 85.2002L141.505 117.424Z" fill="#F0F0F0"/>
<path d="M138.736 117.374L140.099 101.793C140.127 101.455 140.271 101.137 140.506 100.892C140.741 100.648 141.053 100.491 141.389 100.448L141.949 100.376C142.402 100.319 142.821 100.109 143.136 99.7796C143.451 99.4505 143.644 99.0228 143.681 98.5685L143.93 95.7271C143.955 95.4516 143.922 95.1741 143.833 94.9121C143.745 94.6501 143.603 94.4094 143.416 94.2053C143.229 94.0013 143.002 93.8384 142.749 93.727C142.496 93.6155 142.222 93.558 141.946 93.5581H154.519C154.795 93.558 155.069 93.6155 155.322 93.727C155.575 93.8384 155.802 94.0013 155.989 94.2053C156.176 94.4094 156.318 94.6501 156.406 94.9121C156.495 95.1741 156.528 95.4516 156.503 95.7271L156.254 98.5685C156.217 99.0228 156.024 99.4505 155.709 99.7796C155.394 100.109 154.975 100.319 154.522 100.376L153.962 100.448C153.626 100.492 153.314 100.648 153.08 100.893C152.845 101.138 152.701 101.455 152.671 101.793L151.309 117.374C151.26 117.921 151.008 118.431 150.603 118.802C150.197 119.173 149.668 119.379 149.118 119.38H136.545C137.095 119.379 137.624 119.173 138.03 118.802C138.435 118.431 138.687 117.921 138.736 117.374Z" fill="#E6E6E6"/>
<path d="M104.133 97.9068C104.033 96.7241 103.493 95.622 102.62 94.8186C101.746 94.0152 100.602 93.5692 99.4156 93.5688H110.362C111.546 93.5737 112.685 94.0217 113.554 94.8247C114.424 95.6276 114.962 96.7272 115.061 97.9068L116.146 110.256H105.214L104.133 97.9068Z" fill="#E6E6E6"/>
<path d="M94.5534 93.5835H99.412C100.599 93.5838 101.742 94.0299 102.616 94.8332C103.49 95.6366 104.03 96.7388 104.13 97.9215L105.214 110.27H131.285L132.37 97.9215C132.468 96.7416 133.006 95.6415 133.876 94.8384C134.746 94.0353 135.885 93.5875 137.069 93.5835H141.931C142.208 93.5834 142.481 93.6409 142.735 93.7523C142.988 93.8638 143.215 94.0267 143.402 94.2307C143.588 94.4348 143.73 94.6755 143.819 94.9374C143.908 95.1994 143.941 95.477 143.916 95.7525L143.667 98.5939C143.629 99.0482 143.437 99.4758 143.122 99.805C142.806 100.134 142.387 100.345 141.935 100.401L141.375 100.474C141.038 100.516 140.726 100.673 140.492 100.918C140.257 101.163 140.113 101.48 140.084 101.818L138.736 117.374C138.687 117.921 138.435 118.431 138.03 118.802C137.624 119.173 137.095 119.379 136.545 119.38H99.9542C99.4045 119.379 98.8749 119.173 98.4695 118.802C98.0641 118.431 97.8123 117.921 97.7635 117.374L96.4007 101.793C96.3707 101.456 96.2264 101.138 95.9918 100.894C95.7571 100.649 95.4462 100.492 95.1101 100.448L94.5498 100.376C94.0974 100.319 93.6782 100.108 93.3624 99.7793C93.0466 99.4503 92.8532 99.0229 92.8146 98.5686L92.5688 95.7272C92.5479 95.4537 92.5837 95.1789 92.6739 94.9199C92.7642 94.661 92.9069 94.4234 93.0932 94.2222C93.2795 94.0209 93.5054 93.8603 93.7567 93.7504C94.0079 93.6405 94.2792 93.5837 94.5534 93.5835Z" fill="#F0F0F0"/>
<path d="M36.9306 40.1865C36.9306 40.1865 36.5294 37.5439 38.4562 35.8485C40.383 34.1531 40.213 33.1481 39.66 33.018C39.1069 32.8878 38.6044 34.5797 37.7585 35.046C37.7585 35.046 37.7296 32.6312 38.5899 31.7455C39.4503 30.8598 39.9022 28.5643 39.0816 28.5246C38.261 28.4848 38.1814 29.8838 37.9971 30.8779C37.8127 31.872 36.9126 33.2674 36.9126 33.2674C36.9126 33.2674 36.7354 31.0984 36.1896 30.22C35.6437 29.3415 37.115 27.2991 36.5511 26.4134C35.9871 25.5277 34.9641 27.2159 35.0472 29.121C35.1304 31.0261 36.4029 33.0577 36.1064 35.046C36.1064 35.046 35.5461 33.647 35.0436 33.5205C34.5411 33.3939 34.0314 32.4721 33.6952 32.1287C33.359 31.7853 32.9325 32.971 33.6952 34.0699C34.458 35.1689 36.4029 38.1151 36.1064 40.4938L36.9306 40.1865Z" fill="#E6E6E6"/>
<path d="M38.0802 38.9827L38.7128 42.9411C38.7583 43.2285 38.7409 43.5223 38.6619 43.8023C38.5829 44.0824 38.4441 44.342 38.2551 44.5632C38.0662 44.7845 37.8315 44.9622 37.5673 45.084C37.3031 45.2059 37.0156 45.269 36.7246 45.2691H36.0522C35.7612 45.269 35.4737 45.2059 35.2095 45.084C34.9453 44.9622 34.7106 44.7845 34.5216 44.5632C34.3327 44.342 34.1939 44.0824 34.1149 43.8023C34.0359 43.5223 34.0185 43.2285 34.064 42.9411L34.7038 38.9827H38.0802Z" fill="#E6E6E6"/>
<path d="M75.9327 44.4956H77.8956V36.0546H75.9327V44.4956Z" fill="#EBEBEB"/>
<path d="M66.4397 44.4956H68.4026V36.0546H66.4397V44.4956Z" fill="#EBEBEB"/>
<path d="M54.2299 44.16L56.1643 44.4934L57.5981 36.1751L55.6637 35.8417L54.2299 44.16Z" fill="#EBEBEB"/>
<path d="M73.4998 44.4919H75.4627V37.1644H73.4998V44.4919Z" fill="#EBEBEB"/>
<path d="M68.9883 44.4919H70.9512V37.1644H68.9883V44.4919Z" fill="#EBEBEB"/>
<path d="M57.5939 44.4919H59.5568V37.1644H57.5939V44.4919Z" fill="#EBEBEB"/>
<path d="M62.2754 44.0668L64.1916 44.4927L65.7813 37.3396L63.8651 36.9138L62.2754 44.0668Z" fill="#EBEBEB"/>
<path d="M71.8008 44.4956H72.784V35.6353H71.8008V44.4956Z" fill="#EBEBEB"/>
<path d="M60.1207 44.4956H61.104V35.6353H60.1207V44.4956Z" fill="#EBEBEB"/>
<path d="M53.1221 37.7935H43.5533V44.398H53.1221V37.7935Z" fill="#EBEBEB"/>
<path d="M85.9389 40.4973H77.9245V45.4281H85.9389V40.4973Z" fill="#EBEBEB"/>
<path d="M84.0664 36.1631H80.0574V41.0939H84.0664V36.1631Z" fill="#EBEBEB"/>
<path d="M151.038 29.6379H141.505V69.3593H151.038V29.6379Z" fill="#E0E0E0"/>
<path d="M114.364 69.4678H150.014V29.6415L114.364 29.6415V69.4678Z" fill="#E0E0E0"/>
<path d="M113.214 69.4678H150.202V29.6415L113.214 29.6415V69.4678Z" fill="#F0F0F0"/>
<path d="M114.797 67.635H148.684V30.9068L114.797 30.9068V67.635Z" fill="white"/>
<path d="M114.794 67.635H115.423V30.9068H114.794V67.635Z" fill="#E0E0E0"/>
<path d="M115.322 57.3215V58.312H148.775V57.3215H115.322Z" fill="#E0E0E0"/>
<path d="M114.794 57.3179L149.212 57.3179V55.655L114.794 55.655V57.3179Z" fill="#F0F0F0"/>
<path d="M90.3745 135.651C129.085 135.651 160.465 133.819 160.465 131.559C160.465 129.299 129.085 127.467 90.3745 127.467C51.6644 127.467 20.2837 129.299 20.2837 131.559C20.2837 133.819 51.6644 135.651 90.3745 135.651Z" fill="#F5F5F5"/>
<path d="M116.384 36.333H51.7087C50.2473 36.333 49.0625 37.5177 49.0625 38.9792V115.132C49.0625 116.594 50.2473 117.779 51.7087 117.779H116.384C117.846 117.779 119.03 116.594 119.03 115.132V38.9792C119.03 37.5177 117.846 36.333 116.384 36.333Z" fill="#6F2877"/>
<path opacity="0.6" d="M116.384 36.333H51.7087C50.2473 36.333 49.0625 37.5177 49.0625 38.9792V115.132C49.0625 116.594 50.2473 117.779 51.7087 117.779H116.384C117.846 117.779 119.03 116.594 119.03 115.132V38.9792C119.03 37.5177 117.846 36.333 116.384 36.333Z" fill="white"/>
<path d="M107.698 73.6865H60.3991V81.7841H107.698V73.6865Z" fill="white"/>
<g opacity="0.4">
<path d="M64.6286 78.5235V78.7368H62.9874V76.416H64.578V76.6257H63.2332V77.4535H64.4334V77.6596H63.2332V78.5235H64.6286Z" fill="#464547"/>
<path d="M64.9576 77.7354H65.8288V77.9378H64.9576V77.7354Z" fill="#464547"/>
<path d="M69.2305 77.7246V78.7368H68.9955V77.7463C68.9955 77.3848 68.8112 77.1896 68.4966 77.1896C68.4151 77.1858 68.3337 77.1999 68.2582 77.2309C68.1827 77.2618 68.1148 77.3089 68.0594 77.3688C68.004 77.4287 67.9623 77.5 67.9373 77.5777C67.9123 77.6554 67.9045 77.7376 67.9146 77.8186V78.7368H67.6761V77.7463C67.6761 77.3848 67.4917 77.1896 67.1736 77.1896C67.092 77.1858 67.0107 77.1999 66.9351 77.2309C66.8596 77.2618 66.7917 77.3089 66.7363 77.3688C66.6809 77.4287 66.6392 77.5 66.6142 77.5777C66.5892 77.6554 66.5815 77.7376 66.5916 77.8186V78.7368H66.353V76.9908H66.5807V77.3089C66.6489 77.2023 66.7439 77.1155 66.8562 77.0572C66.9685 76.9988 67.0941 76.9709 67.2206 76.9763C67.3483 76.9655 67.4762 76.9945 67.5869 77.0592C67.6976 77.1239 67.7855 77.2212 67.8387 77.3378C67.911 77.2213 68.0131 77.1263 68.1346 77.0628C68.256 76.9992 68.3923 76.9693 68.5292 76.9763C68.6273 76.9689 68.7259 76.9835 68.8176 77.0192C68.9093 77.0549 68.9918 77.1107 69.0591 77.1825C69.1264 77.2543 69.1767 77.3402 69.2064 77.4341C69.2361 77.5279 69.2443 77.6272 69.2305 77.7246Z" fill="#464547"/>
<path d="M71.1898 77.6522V78.7367H70.9621V78.462C70.8974 78.5598 70.8075 78.6383 70.7018 78.6892C70.5962 78.7401 70.4788 78.7615 70.362 78.7512C69.9679 78.7512 69.7257 78.5451 69.7257 78.2451C69.7257 77.945 69.8993 77.7498 70.3981 77.7498H70.9512V77.645C70.9512 77.345 70.7849 77.1823 70.4596 77.1823C70.2473 77.1799 70.0411 77.2529 69.8776 77.3883L69.7727 77.2148C69.977 77.0505 70.2338 76.9658 70.4957 76.9762C70.588 76.965 70.6816 76.9746 70.7697 77.0043C70.8578 77.0341 70.938 77.0832 71.0046 77.148C71.0712 77.2129 71.1224 77.2919 71.1545 77.3791C71.1865 77.4664 71.1986 77.5597 71.1898 77.6522ZM70.9512 78.2126V77.927H70.4054C70.0692 77.927 69.9571 78.0571 69.9571 78.2379C69.9571 78.4186 70.1198 78.5668 70.3981 78.5668C70.5161 78.5746 70.6334 78.5444 70.733 78.4807C70.8325 78.4169 70.909 78.323 70.9512 78.2126Z" fill="#464547"/>
<path d="M71.7755 76.4412C71.7759 76.4189 71.7808 76.3969 71.7898 76.3765C71.7987 76.356 71.8116 76.3376 71.8278 76.3221C71.8439 76.3067 71.8629 76.2946 71.8837 76.2865C71.9045 76.2784 71.9267 76.2745 71.949 76.2749C71.9708 76.2745 71.9925 76.2783 72.0129 76.2862C72.0332 76.2941 72.0518 76.306 72.0676 76.3211C72.0834 76.3362 72.096 76.3543 72.1048 76.3743C72.1136 76.3942 72.1184 76.4158 72.1189 76.4376C72.1194 76.4602 72.1153 76.4827 72.107 76.5037C72.0987 76.5248 72.0862 76.5439 72.0704 76.5601C72.0546 76.5763 72.0357 76.5891 72.0148 76.5979C71.994 76.6066 71.9716 76.6111 71.949 76.6111C71.9264 76.6116 71.9039 76.6076 71.8828 76.5993C71.8618 76.5909 71.8426 76.5785 71.8265 76.5627C71.8103 76.5468 71.7975 76.528 71.7887 76.5071C71.78 76.4862 71.7754 76.4638 71.7755 76.4412ZM71.8297 76.9907H72.0647V78.7367H71.8297V76.9907Z" fill="#464547"/>
<path d="M72.719 76.2749H72.9539V78.7367H72.719V76.2749Z" fill="#464547"/>
</g>
<path d="M107.698 84.7485H60.3991V92.8461H107.698V84.7485Z" fill="white"/>
<g opacity="0.4">
<path d="M64.8021 88.284C64.8021 88.7792 64.4406 89.0793 63.855 89.0793H63.2332V89.8023H62.9874V87.4814H63.855C64.4443 87.4887 64.8021 87.7887 64.8021 88.284ZM64.5563 88.284C64.5563 87.9225 64.3141 87.702 63.8333 87.702H63.2188V88.8624H63.8333C64.3141 88.8624 64.5563 88.6491 64.5563 88.284Z" fill="#464547"/>
<path d="M66.5843 88.7286V89.8131H66.3566V89.5384C66.2919 89.6362 66.202 89.7147 66.0964 89.7656C65.9907 89.8165 65.8733 89.8379 65.7565 89.8276C65.3625 89.8276 65.1203 89.6215 65.1203 89.3179C65.1203 89.0142 65.2938 88.8154 65.7927 88.8154H66.3457V88.7069C66.3457 88.4105 66.1758 88.2478 65.8505 88.2478C65.6392 88.245 65.434 88.3181 65.2721 88.4539L65.1636 88.2768C65.3696 88.116 65.6255 88.0329 65.8866 88.0418C65.9802 88.0297 66.0753 88.039 66.1647 88.069C66.2541 88.0991 66.3355 88.1491 66.4027 88.2153C66.47 88.2815 66.5213 88.3621 66.5527 88.451C66.5842 88.54 66.595 88.6349 66.5843 88.7286ZM66.3494 89.2853V88.9998H65.7927C65.4565 88.9998 65.348 89.1335 65.348 89.3143C65.348 89.495 65.5071 89.6396 65.789 89.6396C65.9081 89.6484 66.0268 89.6188 66.1277 89.555C66.2286 89.4912 66.3063 89.3966 66.3494 89.2853Z" fill="#464547"/>
<path d="M66.982 89.6106L67.0868 89.4262C67.2691 89.5535 67.4862 89.6217 67.7086 89.6214C68.0375 89.6214 68.1749 89.5094 68.1749 89.3359C68.1749 88.8804 67.0434 89.2382 67.0434 88.5514C67.0434 88.2658 67.2892 88.0525 67.7339 88.0525C67.9508 88.0506 68.1642 88.1068 68.352 88.2152L68.2472 88.4032C68.0951 88.3028 67.9161 88.2511 67.7339 88.255C67.4194 88.255 67.2784 88.3779 67.2784 88.5442C67.2784 89.0141 68.4099 88.6599 68.4099 89.3286C68.4099 89.6323 68.146 89.8275 67.6869 89.8275C67.4345 89.834 67.187 89.7579 66.982 89.6106Z" fill="#464547"/>
<path d="M68.6015 89.6106L68.71 89.4263C68.8902 89.555 69.1066 89.6234 69.3281 89.6215C69.6607 89.6215 69.7944 89.5094 69.7944 89.3359C69.7944 88.8804 68.6666 89.2383 68.6666 88.5515C68.6666 88.2659 68.9124 88.0526 69.3534 88.0526C69.5704 88.0498 69.7841 88.106 69.9716 88.2153L69.8704 88.4032C69.7168 88.3031 69.5367 88.2515 69.3534 88.255C69.0389 88.255 68.9015 88.3779 68.9015 88.5442C68.9015 89.0142 70.033 88.6599 70.033 89.3287C70.033 89.6323 69.7655 89.8275 69.31 89.8275C69.0566 89.8336 68.8081 89.7575 68.6015 89.6106Z" fill="#464547"/>
<path d="M72.9901 88.0671L72.3321 89.8096H72.1116L71.5766 88.3816L71.0271 89.8096H70.8066L70.1306 88.0671H70.3547L70.9042 89.5493L71.4645 88.0671H71.667L72.2237 89.5493L72.7768 88.0671H72.9901Z" fill="#464547"/>
<path d="M73.1202 88.9384C73.1202 88.7625 73.1724 88.5905 73.2701 88.4443C73.3678 88.2981 73.5067 88.1841 73.6692 88.1168C73.8317 88.0495 74.0105 88.0318 74.183 88.0662C74.3555 88.1005 74.514 88.1852 74.6383 88.3095C74.7627 88.4339 74.8474 88.5924 74.8817 88.7649C74.916 88.9374 74.8984 89.1162 74.8311 89.2787C74.7638 89.4412 74.6498 89.58 74.5036 89.6778C74.3573 89.7755 74.1854 89.8276 74.0095 89.8276C73.8916 89.8317 73.7742 89.8114 73.6645 89.7682C73.5548 89.7249 73.4551 89.6595 73.3717 89.5761C73.2883 89.4928 73.223 89.3931 73.1797 89.2834C73.1364 89.1737 73.1162 89.0562 73.1202 88.9384ZM74.6566 88.9384C74.6509 88.8109 74.6079 88.6879 74.5329 88.5847C74.4579 88.4815 74.3542 88.4026 74.2347 88.3579C74.1152 88.3132 73.9852 88.3045 73.8608 88.3331C73.7365 88.3617 73.6233 88.4262 73.5353 88.5186C73.4473 88.611 73.3884 88.7272 73.366 88.8528C73.3435 88.9784 73.3585 89.1079 73.4091 89.225C73.4596 89.3422 73.5435 89.4419 73.6502 89.5117C73.757 89.5816 73.8819 89.6186 74.0095 89.618C74.0977 89.6197 74.1854 89.603 74.2668 89.569C74.3483 89.5351 74.4218 89.4845 74.4826 89.4206C74.5435 89.3567 74.5904 89.2808 74.6203 89.1978C74.6503 89.1147 74.6626 89.0264 74.6566 88.9384Z" fill="#464547"/>
<path d="M76.2544 88.0527V88.2804H76.1966C76.1139 88.2765 76.0313 88.2908 75.9548 88.3223C75.8782 88.3539 75.8096 88.4019 75.7537 88.463C75.6978 88.524 75.656 88.5967 75.6313 88.6757C75.6067 88.7548 75.5997 88.8383 75.611 88.9203V89.8096H75.376V88.0671H75.6001V88.407C75.6611 88.2891 75.7561 88.1923 75.8727 88.1291C75.9894 88.0659 76.1224 88.0393 76.2544 88.0527Z" fill="#464547"/>
<path d="M78.2535 87.3694V89.8276H78.0294V89.4842C77.9592 89.5984 77.86 89.6921 77.7419 89.7556C77.6238 89.8191 77.491 89.8501 77.357 89.8456C77.1314 89.8312 76.9197 89.7315 76.7651 89.5666C76.6104 89.4018 76.5244 89.1842 76.5244 88.9582C76.5244 88.7321 76.6104 88.5146 76.7651 88.3497C76.9197 88.1849 77.1314 88.0851 77.357 88.0707C77.4892 88.0678 77.62 88.0996 77.736 88.163C77.8521 88.2265 77.9495 88.3193 78.0185 88.4322V87.3694H78.2535ZM78.0221 88.9564C78.0165 88.8289 77.9734 88.7059 77.8984 88.6027C77.8234 88.4995 77.7197 88.4206 77.6002 88.3759C77.4807 88.3312 77.3507 88.3225 77.2264 88.3511C77.102 88.3797 76.9888 88.4442 76.9008 88.5366C76.8128 88.629 76.754 88.7452 76.7315 88.8708C76.7091 88.9964 76.7241 89.1259 76.7746 89.243C76.8251 89.3602 76.909 89.4599 77.0157 89.5298C77.1225 89.5996 77.2475 89.6366 77.375 89.636C77.4649 89.6379 77.5542 89.6208 77.637 89.5857C77.7198 89.5507 77.7942 89.4985 77.8554 89.4325C77.9165 89.3666 77.963 89.2885 77.9917 89.2033C78.0205 89.1181 78.0308 89.0278 78.0221 88.9383V88.9564Z" fill="#464547"/>
</g>
<path opacity="0.2" d="M107.698 101.106H60.3991V109.204H107.698V101.106Z" fill="#464547"/>
<g opacity="0.5">
<path d="M71.902 97.3863H71.1284L70.9621 97.7478H70.8102L71.4429 96.3633H71.5875L72.2201 97.7478H72.0683L71.902 97.3863ZM71.8477 97.267L71.5152 96.5223L71.1826 97.267H71.8477Z" fill="#464547"/>
<path d="M72.4225 96.2874H72.5635V97.755H72.4225V96.2874Z" fill="#464547"/>
<path d="M73.4817 96.7068V96.8442H73.4456C73.3951 96.8398 73.3443 96.847 73.297 96.865C73.2496 96.8831 73.207 96.9116 73.1722 96.9484C73.1375 96.9853 73.1115 97.0295 73.0962 97.0778C73.081 97.1261 73.0768 97.1772 73.0841 97.2274V97.7588H72.9431V96.7176H73.0805V96.9201C73.1167 96.8471 73.1749 96.7873 73.2469 96.749C73.3188 96.7108 73.4009 96.696 73.4817 96.7068Z" fill="#464547"/>
<path d="M74.6313 97.2779H73.7456C73.7484 97.3285 73.7612 97.3781 73.7832 97.4238C73.8053 97.4695 73.8363 97.5104 73.8743 97.544C73.9123 97.5776 73.9566 97.6034 74.0046 97.6198C74.0527 97.6361 74.1035 97.6428 74.1541 97.6394C74.2142 97.6414 74.274 97.6306 74.3295 97.6075C74.385 97.5844 74.4349 97.5497 74.4758 97.5056L74.5517 97.596C74.477 97.6744 74.3808 97.7291 74.2751 97.753C74.1695 97.7769 74.0591 97.769 73.9579 97.7304C73.8567 97.6918 73.7691 97.6241 73.7063 97.5359C73.6434 97.4476 73.608 97.3428 73.6046 97.2345C73.6011 97.1658 73.6118 97.0971 73.636 97.0327C73.6601 96.9683 73.6972 96.9095 73.745 96.86C73.7928 96.8106 73.8502 96.7714 73.9138 96.745C73.9773 96.7187 74.0456 96.7056 74.1143 96.7067C74.1831 96.705 74.2515 96.7177 74.3151 96.744C74.3787 96.7702 74.4361 96.8094 74.4837 96.859C74.5313 96.9087 74.5681 96.9677 74.5916 97.0324C74.6152 97.097 74.625 97.1658 74.6204 97.2345C74.6204 97.2345 74.6313 97.2634 74.6313 97.2779ZM73.7601 97.173H74.4831C74.4831 97.0771 74.445 96.9852 74.3772 96.9174C74.3094 96.8496 74.2174 96.8115 74.1216 96.8115C74.0257 96.8115 73.9337 96.8496 73.8659 96.9174C73.7981 96.9852 73.7601 97.0771 73.7601 97.173Z" fill="#464547"/>
<path d="M75.676 97.1296V97.773H75.5531V97.6104C75.5148 97.6698 75.4607 97.7175 75.3969 97.7482C75.3331 97.7788 75.262 97.7912 75.1916 97.7839C74.9566 97.7839 74.8301 97.661 74.8301 97.4802C74.8301 97.2995 74.9313 97.1838 75.2314 97.1838H75.5531V97.1223C75.5531 96.9452 75.4519 96.8476 75.2567 96.8476C75.1252 96.8427 74.9965 96.8865 74.8952 96.9705L74.8337 96.8657C74.9536 96.7701 75.1034 96.7201 75.2567 96.7247C75.3126 96.7151 75.37 96.7188 75.4243 96.7355C75.4785 96.7522 75.5281 96.7815 75.5689 96.8209C75.6097 96.8603 75.6407 96.9088 75.6593 96.9624C75.6779 97.0161 75.6836 97.0733 75.676 97.1296ZM75.5386 97.4621V97.2886H75.2097C75.0072 97.2886 74.9422 97.3681 74.9422 97.4766C74.9422 97.585 75.0398 97.6718 75.2061 97.6718C75.2809 97.6775 75.3556 97.6583 75.4184 97.6171C75.4812 97.5759 75.5286 97.515 75.5531 97.4441L75.5386 97.4621Z" fill="#464547"/>
<path d="M76.9991 96.2874V97.755H76.8653V97.549C76.8243 97.618 76.7653 97.6746 76.6946 97.7128C76.624 97.751 76.5443 97.7693 76.4641 97.7659C76.3312 97.7549 76.2073 97.6943 76.1169 97.5962C76.0266 97.4981 75.9765 97.3696 75.9765 97.2363C75.9765 97.1029 76.0266 96.9744 76.1169 96.8763C76.2073 96.7782 76.3312 96.7177 76.4641 96.7067C76.5424 96.7046 76.6199 96.7224 76.6895 96.7584C76.759 96.7944 76.8183 96.8475 76.8617 96.9127V96.2874H76.9991ZM76.8617 97.2345C76.8582 97.1588 76.8325 97.0859 76.7879 97.0247C76.7433 96.9635 76.6818 96.9168 76.6109 96.8903C76.5399 96.8637 76.4628 96.8586 76.389 96.8755C76.3152 96.8924 76.248 96.9306 76.1957 96.9854C76.1434 97.0401 76.1083 97.109 76.0948 97.1835C76.0812 97.258 76.0899 97.3348 76.1196 97.4044C76.1494 97.4741 76.1989 97.5335 76.262 97.5752C76.3252 97.617 76.3992 97.6393 76.4749 97.6394C76.5288 97.6426 76.5827 97.6343 76.6331 97.615C76.6834 97.5957 76.7291 97.566 76.7671 97.5276C76.8051 97.4893 76.8344 97.4434 76.8532 97.3928C76.8721 97.3423 76.8799 97.2883 76.8762 97.2345H76.8617Z" fill="#464547"/>
<path d="M78.2824 96.7139L77.7619 97.8815C77.6751 98.0839 77.563 98.149 77.4004 98.149C77.307 98.1515 77.2164 98.1179 77.1473 98.055L77.2124 97.9502C77.2632 98.001 77.3321 98.0297 77.404 98.0297C77.498 98.0297 77.5594 97.9863 77.6209 97.8526L77.6642 97.755L77.1979 96.7139H77.3606L77.7546 97.5995L78.145 96.7139H78.2824Z" fill="#464547"/>
<path d="M79.7863 97.1296V97.773H79.6525V97.6104C79.6141 97.6698 79.5601 97.7175 79.4963 97.7482C79.4325 97.7788 79.3614 97.7912 79.291 97.7839C79.056 97.7839 78.9295 97.661 78.9295 97.4802C78.9295 97.2995 79.0307 97.1838 79.3308 97.1838H79.6597V97.1223C79.6597 96.9452 79.5621 96.8476 79.3669 96.8476C79.2354 96.8427 79.1067 96.8865 79.0054 96.9705L78.9403 96.8657C79.0616 96.7701 79.2126 96.7202 79.3669 96.7247C79.4229 96.7151 79.4803 96.7188 79.5345 96.7355C79.5888 96.7522 79.6383 96.7815 79.6791 96.8209C79.72 96.8603 79.7509 96.9088 79.7696 96.9624C79.7882 97.0161 79.7939 97.0733 79.7863 97.1296ZM79.6453 97.4621V97.2886H79.3199C79.1175 97.2886 79.0524 97.3681 79.0524 97.4766C79.0524 97.585 79.15 97.6718 79.3163 97.6718C79.3884 97.6747 79.4595 97.654 79.5189 97.6129C79.5782 97.5719 79.6226 97.5126 79.6453 97.4441V97.4621Z" fill="#464547"/>
<path d="M82.4216 97.1515V97.7552H82.2842V97.1659C82.2842 96.9454 82.1721 96.8333 81.9841 96.8333C81.9357 96.8295 81.887 96.8363 81.8414 96.8531C81.7958 96.8699 81.7544 96.8964 81.7201 96.9308C81.6857 96.9651 81.6592 97.0065 81.6424 97.0521C81.6256 97.0977 81.6188 97.1464 81.6226 97.1948V97.7407H81.4853V97.1659C81.4853 96.9454 81.3732 96.8333 81.1816 96.8333C81.1332 96.8295 81.0845 96.8363 81.0389 96.8531C80.9933 96.8699 80.9519 96.8964 80.9176 96.9308C80.8832 96.9651 80.8567 97.0065 80.8399 97.0521C80.8231 97.0977 80.8163 97.1464 80.8201 97.1948V97.7407H80.6791V96.6996H80.8129V96.8912C80.8527 96.8264 80.9094 96.7737 80.9769 96.7387C81.0444 96.7037 81.1202 96.6877 81.1961 96.6924C81.2719 96.6864 81.3476 96.7046 81.4125 96.7442C81.4774 96.7837 81.5282 96.8428 81.5576 96.9129C81.5996 96.842 81.6603 96.7841 81.7329 96.7452C81.8055 96.7063 81.8874 96.6881 81.9697 96.6924C82.0321 96.6812 82.0964 96.6854 82.1568 96.7047C82.2173 96.7239 82.2721 96.7576 82.3166 96.8028C82.3611 96.848 82.3939 96.9034 82.4122 96.9642C82.4305 97.0249 82.4337 97.0892 82.4216 97.1515Z" fill="#464547"/>
<path d="M83.7013 97.278H82.83C82.8375 97.3803 82.8849 97.4756 82.962 97.5432C83.0391 97.6109 83.1397 97.6455 83.2422 97.6395C83.3017 97.6418 83.3611 97.631 83.416 97.6078C83.471 97.5847 83.5202 97.5499 83.5603 97.5057L83.6398 97.5961C83.589 97.6516 83.5269 97.6954 83.4577 97.7247C83.3884 97.754 83.3137 97.7681 83.2385 97.766C83.1669 97.7706 83.0951 97.7601 83.0277 97.7352C82.9604 97.7104 82.899 97.6716 82.8476 97.6215C82.7961 97.5715 82.7558 97.5112 82.7291 97.4445C82.7024 97.3779 82.69 97.3064 82.6927 97.2346C82.6927 97.1004 82.746 96.9717 82.8409 96.8767C82.9358 96.7818 83.0645 96.7285 83.1988 96.7285C83.333 96.7285 83.4617 96.7818 83.5566 96.8767C83.6516 96.9717 83.7049 97.1004 83.7049 97.2346C83.7049 97.2346 83.7013 97.2635 83.7013 97.278ZM82.83 97.1732H83.5711C83.5711 97.0749 83.5321 96.9806 83.4626 96.9111C83.3931 96.8417 83.2989 96.8026 83.2006 96.8026C83.1023 96.8026 83.0081 96.8417 82.9386 96.9111C82.8691 96.9806 82.83 97.0749 82.83 97.1732Z" fill="#464547"/>
<path d="M85.7112 97.1515V97.7552H85.5702V97.1659C85.5702 96.9454 85.4618 96.8333 85.2738 96.8333C85.2252 96.8289 85.1762 96.8352 85.1304 96.8518C85.0845 96.8684 85.0428 96.8949 85.0083 96.9294C84.9738 96.9639 84.9473 97.0055 84.9307 97.0514C84.9141 97.0973 84.9078 97.1463 84.9123 97.1948V97.7407H84.7713V97.1659C84.7713 96.9454 84.6629 96.8333 84.4713 96.8333C84.4227 96.8289 84.3737 96.8352 84.3278 96.8518C84.282 96.8684 84.2403 96.8949 84.2058 96.9294C84.1713 96.9639 84.1448 97.0055 84.1282 97.0514C84.1116 97.0973 84.1053 97.1463 84.1098 97.1948V97.7407H83.9688V96.6996H84.1025V96.8912C84.1421 96.8261 84.1987 96.7732 84.2663 96.7381C84.3339 96.7031 84.4098 96.6872 84.4857 96.6924C84.5615 96.6864 84.6372 96.7046 84.7021 96.7442C84.767 96.7837 84.8178 96.8428 84.8472 96.9129C84.8893 96.842 84.9499 96.7841 85.0226 96.7452C85.0952 96.7063 85.1771 96.6881 85.2593 96.6924C85.3218 96.6812 85.386 96.6854 85.4465 96.7047C85.5069 96.7239 85.5618 96.7576 85.6063 96.8028C85.6508 96.848 85.6836 96.9034 85.7019 96.9642C85.7201 97.0249 85.7234 97.0892 85.7112 97.1515Z" fill="#464547"/>
<path d="M87.15 97.2345C87.1535 97.304 87.1426 97.3734 87.118 97.4385C87.0935 97.5036 87.0558 97.5629 87.0073 97.6128C86.9588 97.6627 86.9005 97.702 86.8361 97.7283C86.7717 97.7547 86.7026 97.7675 86.633 97.7659C86.5528 97.7693 86.4731 97.751 86.4025 97.7128C86.3318 97.6746 86.2728 97.618 86.2318 97.549V97.755H86.0944V96.2874H86.2354V96.9127C86.2785 96.8473 86.3378 96.794 86.4074 96.7579C86.477 96.7219 86.5547 96.7042 86.633 96.7067C86.7024 96.7046 86.7715 96.7169 86.8358 96.7428C86.9002 96.7688 86.9585 96.8077 87.0071 96.8573C87.0557 96.9069 87.0934 96.966 87.118 97.0309C87.1426 97.0959 87.1535 97.1652 87.15 97.2345ZM87.009 97.2345C87.0054 97.1588 86.9798 97.0859 86.9352 97.0247C86.8906 96.9635 86.829 96.9168 86.7581 96.8903C86.6872 96.8637 86.61 96.8586 86.5362 96.8755C86.4624 96.8924 86.3952 96.9306 86.3429 96.9854C86.2906 97.0401 86.2555 97.109 86.242 97.1835C86.2285 97.258 86.2371 97.3348 86.2669 97.4044C86.2966 97.4741 86.3461 97.5335 86.4093 97.5752C86.4724 97.617 86.5465 97.6393 86.6222 97.6394C86.6748 97.6405 86.7271 97.6306 86.7758 97.6104C86.8244 97.5902 86.8683 97.5602 86.9047 97.5221C86.9411 97.484 86.9691 97.4387 86.9871 97.3892C87.005 97.3397 87.0125 97.287 87.009 97.2345Z" fill="#464547"/>
<path d="M88.3465 97.2779H87.4825C87.4853 97.3286 87.4981 97.3782 87.5202 97.4239C87.5423 97.4696 87.5732 97.5104 87.6112 97.5441C87.6492 97.5777 87.6935 97.6034 87.7416 97.6198C87.7896 97.6362 87.8404 97.6428 87.891 97.6394C87.9511 97.6394 88.0105 97.6261 88.0648 97.6004C88.1192 97.5748 88.1673 97.5375 88.2055 97.4912L88.2851 97.5816C88.2104 97.66 88.1141 97.7146 88.0085 97.7386C87.9028 97.7625 87.7924 97.7546 87.6912 97.716C87.59 97.6774 87.5025 97.6097 87.4396 97.5214C87.3768 97.4332 87.3414 97.3284 87.338 97.2201C87.3345 97.1514 87.3451 97.0827 87.3693 97.0183C87.3934 96.9539 87.4306 96.8951 87.4783 96.8456C87.5261 96.7962 87.5836 96.757 87.6471 96.7306C87.7106 96.7043 87.7789 96.6912 87.8477 96.6923C87.9163 96.6906 87.9845 96.7033 88.0479 96.7295C88.1114 96.7558 88.1686 96.7951 88.2159 96.8448C88.2633 96.8945 88.2997 96.9536 88.3228 97.0182C88.3459 97.0828 88.3552 97.1516 88.3501 97.2201L88.3465 97.2779ZM87.4753 97.1731H88.1983C88.1983 97.0772 88.1602 96.9853 88.0924 96.9175C88.0246 96.8497 87.9327 96.8116 87.8368 96.8116C87.7409 96.8116 87.649 96.8497 87.5812 96.9175C87.5134 96.9853 87.4753 97.0772 87.4753 97.1731Z" fill="#464547"/>
<path d="M89.1599 96.7067V96.8441H89.1274C89.0769 96.8398 89.0261 96.8469 88.9788 96.8649C88.9314 96.883 88.8888 96.9115 88.854 96.9484C88.8193 96.9852 88.7933 97.0294 88.778 97.0777C88.7628 97.126 88.7586 97.1772 88.7659 97.2273V97.7587H88.6249V96.7176H88.7586V96.92C88.7953 96.8474 88.8536 96.7879 88.9254 96.7497C88.9973 96.7115 89.0792 96.6965 89.1599 96.7067Z" fill="#464547"/>
<path d="M90.0709 96.7247C90.0709 96.5801 89.9552 96.4825 89.7527 96.4825C89.6816 96.4785 89.6104 96.4907 89.5446 96.5183C89.4789 96.5459 89.4202 96.588 89.3732 96.6416L89.2683 96.562C89.3299 96.4925 89.4065 96.4378 89.4923 96.4021C89.5781 96.3664 89.6708 96.3507 89.7636 96.356C90.0419 96.356 90.2191 96.4897 90.2191 96.7175C90.2191 97.0537 89.8576 97.079 89.8576 97.3537H89.7094C89.7094 97.0139 90.0709 96.9814 90.0709 96.7247ZM89.6804 97.661C89.685 97.637 89.6977 97.6153 89.7166 97.5997C89.7354 97.5841 89.759 97.5756 89.7835 97.5756C89.8079 97.5756 89.8316 97.5841 89.8504 97.5997C89.8692 97.6153 89.882 97.637 89.8865 97.661C89.8893 97.6761 89.8888 97.6917 89.885 97.7067C89.8811 97.7216 89.874 97.7354 89.8642 97.7473C89.8543 97.7592 89.842 97.7687 89.8281 97.7753C89.8141 97.7818 89.7989 97.7852 89.7835 97.7852C89.7681 97.7852 89.7528 97.7818 89.7389 97.7753C89.7249 97.7687 89.7126 97.7592 89.7028 97.7473C89.6929 97.7354 89.6858 97.7216 89.682 97.7067C89.6781 97.6917 89.6776 97.6761 89.6804 97.661Z" fill="#464547"/>
<path d="M91.0505 96.3706H91.3722V97.4913H92.0663V97.7515H91.0505V96.3706Z" fill="#464547"/>
<path d="M92.1386 97.2236C92.1314 97.1065 92.1595 96.9899 92.2193 96.889C92.2791 96.788 92.3678 96.7074 92.474 96.6575C92.5801 96.6075 92.6988 96.5907 92.8147 96.609C92.9306 96.6274 93.0383 96.6801 93.1238 96.7604C93.2094 96.8406 93.2689 96.9448 93.2946 97.0592C93.3202 97.1737 93.311 97.2933 93.2679 97.4024C93.2248 97.5115 93.15 97.6052 93.0531 97.6713C92.9561 97.7374 92.8416 97.7728 92.7243 97.7731C92.6491 97.778 92.5738 97.7675 92.5029 97.7421C92.432 97.7167 92.367 97.677 92.3121 97.6255C92.2572 97.574 92.2135 97.5117 92.1836 97.4426C92.1538 97.3734 92.1385 97.2989 92.1386 97.2236ZM92.9954 97.2236C92.9912 97.1711 92.9718 97.121 92.9395 97.0793C92.9073 97.0377 92.8636 97.0063 92.8139 96.9891C92.7641 96.9718 92.7104 96.9695 92.6593 96.9823C92.6082 96.995 92.562 97.0224 92.5262 97.0611C92.4904 97.0997 92.4667 97.1479 92.4578 97.1999C92.449 97.2518 92.4555 97.3051 92.4765 97.3534C92.4975 97.4017 92.5321 97.4428 92.5761 97.4718C92.6201 97.5007 92.6716 97.5162 92.7243 97.5164C92.7619 97.5171 92.7993 97.5098 92.834 97.495C92.8686 97.4802 92.8998 97.4583 92.9254 97.4307C92.951 97.403 92.9704 97.3703 92.9825 97.3346C92.9946 97.2989 92.9989 97.2611 92.9954 97.2236Z" fill="#464547"/>
<path d="M94.6149 96.6886V97.5779C94.6248 97.6578 94.616 97.739 94.5893 97.8149C94.5625 97.8909 94.5185 97.9596 94.4607 98.0156C94.4029 98.0717 94.3328 98.1136 94.2561 98.138C94.1794 98.1624 94.098 98.1687 94.0184 98.1563C93.8324 98.1635 93.649 98.1116 93.4943 98.0081L93.6172 97.7876C93.7228 97.8631 93.8489 97.9047 93.9787 97.9069C94.1956 97.9069 94.2932 97.8093 94.2932 97.6177V97.5707C94.2499 97.6157 94.1975 97.6509 94.1395 97.674C94.0816 97.697 94.0193 97.7074 93.957 97.7044C93.8857 97.7104 93.814 97.7015 93.7463 97.6784C93.6786 97.6552 93.6165 97.6182 93.5639 97.5698C93.5112 97.5214 93.4692 97.4626 93.4404 97.3971C93.4117 97.3316 93.3969 97.2608 93.3969 97.1893C93.3969 97.1178 93.4117 97.047 93.4404 96.9815C93.4692 96.9161 93.5112 96.8572 93.5639 96.8088C93.6165 96.7604 93.6786 96.7234 93.7463 96.7003C93.814 96.6771 93.8857 96.6682 93.957 96.6742C94.025 96.6687 94.0933 96.6797 94.1562 96.7061C94.2191 96.7325 94.2748 96.7736 94.3185 96.826V96.6886H94.6149ZM94.3113 97.1911C94.3124 97.1549 94.3059 97.1189 94.2921 97.0853C94.2783 97.0518 94.2576 97.0216 94.2313 96.9967C94.205 96.9718 94.1737 96.9527 94.1395 96.9407C94.1053 96.9287 94.069 96.9241 94.0329 96.9272C93.9959 96.9229 93.9584 96.9264 93.9228 96.9376C93.8873 96.9488 93.8545 96.9673 93.8267 96.9921C93.7989 97.0169 93.7766 97.0472 93.7613 97.0812C93.7461 97.1152 93.7382 97.1521 93.7382 97.1893C93.7382 97.2266 93.7461 97.2634 93.7613 97.2974C93.7766 97.3314 93.7989 97.3618 93.8267 97.3865C93.8545 97.4113 93.8873 97.4298 93.9228 97.441C93.9584 97.4522 93.9959 97.4558 94.0329 97.4514C94.0687 97.4544 94.1047 97.4499 94.1387 97.4382C94.1726 97.4264 94.2037 97.4077 94.2299 97.3831C94.2562 97.3586 94.277 97.3288 94.291 97.2957C94.305 97.2627 94.3119 97.227 94.3113 97.1911Z" fill="#464547"/>
<path d="M95.4355 96.3705C95.4359 96.3463 95.4413 96.3224 95.4513 96.3004C95.4613 96.2783 95.4757 96.2585 95.4937 96.2422C95.5116 96.226 95.5327 96.2136 95.5557 96.2058C95.5786 96.198 95.6029 96.195 95.6271 96.197C95.6507 96.1945 95.6747 96.1969 95.6974 96.204C95.72 96.2112 95.741 96.2229 95.759 96.2385C95.777 96.2541 95.7915 96.2732 95.8018 96.2947C95.8121 96.3162 95.8178 96.3395 95.8187 96.3633C95.8187 96.4141 95.7985 96.4628 95.7626 96.4988C95.7266 96.5347 95.6779 96.5549 95.6271 96.5549C95.5763 96.5549 95.5275 96.5347 95.4916 96.4988C95.4557 96.4628 95.4355 96.4141 95.4355 96.3633V96.3705ZM95.4716 96.6886H95.7789V97.7731H95.4716V96.6886Z" fill="#464547"/>
<path d="M97.149 97.1297V97.7406H96.8417V97.1803C96.8417 97.0068 96.7622 96.9272 96.6248 96.9272C96.4874 96.9272 96.3681 97.0176 96.3681 97.2128V97.7406H96.0609V96.6561H96.3573V96.7826C96.4039 96.7345 96.4603 96.6971 96.5227 96.6727C96.5851 96.6484 96.652 96.6378 96.7188 96.6416C96.7812 96.6385 96.8436 96.6495 96.9012 96.6738C96.9588 96.6981 97.0102 96.735 97.0515 96.7819C97.0929 96.8288 97.1231 96.8845 97.14 96.9447C97.1569 97.0049 97.1599 97.0681 97.149 97.1297Z" fill="#464547"/>
</g>
<path d="M107.698 100.611H60.3991V108.709H107.698V100.611Z" fill="#6F2877"/>
<path d="M77.939 105.918L77.3606 105.083H77.1871H76.5002V105.925H76.1026V103.152H77.1871C77.9101 103.152 78.3403 103.514 78.3403 104.121C78.3494 104.313 78.2949 104.503 78.1851 104.662C78.0753 104.82 77.9163 104.937 77.733 104.996L78.3909 105.925L77.939 105.918ZM77.939 104.11C77.939 103.713 77.6751 103.489 77.1654 103.489H76.493V104.736H77.1654C77.6643 104.739 77.9282 104.508 77.9282 104.114L77.939 104.11Z" fill="white"/>
<path d="M80.8021 104.996H79.0994C79.1262 105.175 79.219 105.337 79.3595 105.451C79.5001 105.565 79.6781 105.622 79.8586 105.611C79.972 105.615 80.0851 105.594 80.1899 105.55C80.2947 105.507 80.3889 105.441 80.4659 105.357L80.6755 105.603C80.5208 105.76 80.3241 105.869 80.109 105.917C79.8938 105.965 79.6694 105.95 79.4626 105.874C79.2558 105.798 79.0754 105.663 78.943 105.487C78.8106 105.311 78.7319 105.1 78.7162 104.88C78.7087 104.738 78.7306 104.596 78.7806 104.463C78.8306 104.33 78.9076 104.209 79.0068 104.107C79.1059 104.005 79.2251 103.925 79.3567 103.871C79.4884 103.818 79.6297 103.792 79.7718 103.796C79.9131 103.792 80.0537 103.818 80.1845 103.871C80.3153 103.925 80.4334 104.006 80.5311 104.108C80.6289 104.21 80.7041 104.332 80.752 104.465C80.7999 104.598 80.8195 104.739 80.8093 104.88C80.8093 104.913 80.8057 104.96 80.8021 104.996ZM79.0994 104.721H80.4442C80.4269 104.555 80.3486 104.401 80.2245 104.289C80.1003 104.177 79.939 104.115 79.7718 104.115C79.6046 104.115 79.4433 104.177 79.3192 104.289C79.195 104.401 79.1167 104.555 79.0994 104.721Z" fill="white"/>
<path d="M83.347 103.821V105.629C83.347 106.37 82.9674 106.713 82.2625 106.713C81.9028 106.728 81.5489 106.619 81.2612 106.402L81.4419 106.109C81.6733 106.289 81.9588 106.385 82.2517 106.38C82.7469 106.38 82.9747 106.153 82.9747 105.675V105.509C82.8811 105.617 82.7647 105.702 82.6339 105.758C82.5032 105.814 82.3614 105.84 82.2191 105.835C81.9497 105.835 81.6914 105.728 81.5009 105.537C81.3104 105.347 81.2033 105.088 81.2033 104.819C81.2033 104.549 81.3104 104.291 81.5009 104.1C81.6914 103.91 81.9497 103.803 82.2191 103.803C82.3679 103.798 82.5157 103.829 82.6506 103.892C82.7856 103.954 82.904 104.048 82.9964 104.164V103.839L83.347 103.821ZM82.9855 104.815C82.9935 104.671 82.9579 104.527 82.8835 104.403C82.809 104.279 82.6991 104.18 82.5679 104.12C82.4367 104.059 82.2902 104.039 82.1474 104.062C82.0047 104.085 81.8722 104.151 81.767 104.25C81.6619 104.349 81.589 104.478 81.5577 104.619C81.5265 104.76 81.5383 104.908 81.5916 105.042C81.645 105.177 81.7374 105.292 81.857 105.373C81.9766 105.455 82.1179 105.498 82.2625 105.498C82.355 105.504 82.4477 105.49 82.5346 105.458C82.6216 105.426 82.701 105.377 82.7679 105.312C82.8348 105.248 82.8877 105.171 82.9232 105.085C82.9588 105 82.9763 104.908 82.9747 104.815H82.9855Z" fill="white"/>
<path d="M84.0049 103.17C84.0054 103.137 84.0124 103.104 84.0256 103.074C84.0387 103.043 84.0578 103.016 84.0816 102.993C84.1054 102.969 84.1336 102.951 84.1645 102.939C84.1954 102.927 84.2284 102.921 84.2616 102.921C84.2966 102.917 84.3322 102.92 84.3659 102.931C84.3995 102.941 84.4306 102.959 84.457 102.982C84.4834 103.005 84.5046 103.034 84.519 103.066C84.5335 103.098 84.541 103.133 84.541 103.169C84.541 103.204 84.5335 103.239 84.519 103.271C84.5046 103.303 84.4834 103.332 84.457 103.355C84.4306 103.379 84.3995 103.396 84.3659 103.407C84.3322 103.417 84.2966 103.42 84.2616 103.416C84.2285 103.417 84.1956 103.412 84.1648 103.4C84.1339 103.388 84.1057 103.37 84.0818 103.347C84.0579 103.324 84.0388 103.297 84.0256 103.266C84.0124 103.236 84.0054 103.203 84.0049 103.17ZM84.0736 103.821H84.4532V105.918H84.0736V103.821Z" fill="white"/>
<path d="M84.9123 105.697L85.0714 105.397C85.2867 105.537 85.5376 105.612 85.7943 105.614C86.1558 105.614 86.2932 105.506 86.2932 105.329C86.2932 104.859 84.9665 105.267 84.9665 104.429C84.9665 104.067 85.3027 103.8 85.8413 103.8C86.108 103.795 86.3711 103.861 86.6041 103.991L86.4414 104.291C86.2609 104.178 86.0509 104.12 85.8377 104.125C85.5051 104.125 85.3425 104.248 85.3425 104.414C85.3425 104.909 86.6728 104.504 86.6728 105.321C86.6728 105.683 86.3113 105.943 85.7654 105.943C85.463 105.948 85.166 105.862 84.9123 105.697Z" fill="white"/>
<path d="M88.3429 105.806C88.2114 105.906 88.0493 105.959 87.8838 105.954C87.7946 105.964 87.7043 105.954 87.6194 105.925C87.5346 105.895 87.4574 105.847 87.3935 105.784C87.3297 105.721 87.2809 105.645 87.2506 105.56C87.2203 105.476 87.2094 105.385 87.2186 105.296V104.143H86.8571V103.832H87.2186V103.373H87.5801V103.832H88.2055V104.143H87.6018V105.282C87.5933 105.328 87.5956 105.376 87.6086 105.421C87.6216 105.467 87.645 105.509 87.6768 105.544C87.7086 105.579 87.7481 105.606 87.7922 105.623C87.8362 105.64 87.8837 105.647 87.9308 105.643C88.0377 105.644 88.1419 105.61 88.2272 105.545L88.3429 105.806Z" fill="white"/>
<path d="M90.6203 104.996H88.9285C88.9554 105.175 89.0487 105.338 89.19 105.452C89.3313 105.566 89.5102 105.622 89.6913 105.61C89.8043 105.615 89.9168 105.594 90.0211 105.551C90.1254 105.507 90.2188 105.441 90.295 105.357L90.5047 105.603C90.3504 105.761 90.1539 105.87 89.9388 105.918C89.7238 105.967 89.4994 105.952 89.2926 105.875C89.0859 105.799 88.9057 105.664 88.7737 105.488C88.6418 105.311 88.5637 105.1 88.549 104.88C88.5414 104.738 88.5634 104.596 88.6134 104.463C88.6634 104.33 88.7404 104.209 88.8395 104.107C88.9386 104.005 89.0578 103.925 89.1895 103.871C89.3211 103.818 89.4624 103.792 89.6045 103.796C89.7457 103.792 89.8861 103.819 90.0166 103.872C90.1471 103.926 90.265 104.007 90.3626 104.109C90.4602 104.211 90.5355 104.332 90.5836 104.465C90.6317 104.598 90.6516 104.739 90.642 104.88C90.6383 104.919 90.631 104.958 90.6203 104.996ZM88.9285 104.721H90.2769C90.2561 104.557 90.1761 104.406 90.052 104.297C89.9279 104.188 89.7681 104.127 89.6027 104.127C89.4373 104.127 89.2776 104.188 89.1535 104.297C89.0294 104.406 88.9494 104.557 88.9285 104.721Z" fill="white"/>
<path d="M92.2869 103.799V104.161H92.2001C92.1061 104.154 92.0118 104.169 91.9243 104.204C91.8368 104.239 91.7583 104.293 91.6947 104.363C91.631 104.432 91.584 104.515 91.5569 104.605C91.5299 104.696 91.5236 104.791 91.5386 104.884V105.929H91.159V103.832H91.5205V104.193C91.5969 104.061 91.7098 103.954 91.8457 103.884C91.9816 103.814 92.1348 103.785 92.2869 103.799Z" fill="white"/>
<g opacity="0.6">
<path d="M75.7664 45.2945L75.9291 44.9547C76.2096 45.1898 76.5644 45.3179 76.9304 45.3162C77.4546 45.3162 77.6787 45.1137 77.6787 44.8498C77.6787 44.1268 75.8423 44.5751 75.8423 43.4508C75.8423 42.9809 76.2038 42.5832 77.0027 42.5832C77.3469 42.5777 77.6855 42.6705 77.9788 42.8508L77.8342 43.2123C77.5858 43.0533 77.2975 42.9681 77.0027 42.9664C76.4858 42.9664 76.2797 43.1833 76.2797 43.4472C76.2797 44.1702 78.1197 43.722 78.1197 44.839C78.1197 45.3017 77.7582 45.6994 76.9449 45.6994C76.5165 45.7084 76.0988 45.5649 75.7664 45.2945Z" fill="#464547"/>
<path d="M78.6042 42.6302C78.6046 42.5938 78.6123 42.5579 78.6268 42.5245C78.6413 42.4911 78.6622 42.4609 78.6884 42.4357C78.7147 42.4105 78.7457 42.3907 78.7796 42.3776C78.8135 42.3644 78.8497 42.3581 78.8861 42.3591C78.922 42.3577 78.9579 42.3634 78.9915 42.3759C79.0252 42.3884 79.0561 42.4075 79.0823 42.4321C79.1086 42.4566 79.1297 42.4861 79.1444 42.5189C79.1591 42.5517 79.1672 42.5871 79.1681 42.623C79.1681 42.6978 79.1384 42.7695 79.0855 42.8224C79.0326 42.8753 78.9609 42.905 78.8861 42.905C78.8113 42.905 78.7396 42.8753 78.6867 42.8224C78.6339 42.7695 78.6042 42.6978 78.6042 42.623V42.6302ZM78.6765 43.3532H79.0958V45.6524H78.6765V43.3532Z" fill="#464547"/>
<path d="M82.0854 43.3424V45.3271C82.0854 46.1404 81.6733 46.5092 80.896 46.5092C80.506 46.5215 80.1234 46.4004 79.8115 46.1657L80.0104 45.844C80.2622 46.0432 80.575 46.1492 80.896 46.1441C81.4383 46.1441 81.6841 45.891 81.6841 45.3704V45.1897C81.5818 45.3079 81.4544 45.4016 81.3111 45.4642C81.1679 45.5267 81.0125 45.5565 80.8563 45.5512C80.705 45.5598 80.5535 45.5375 80.4111 45.4855C80.2687 45.4335 80.1385 45.3531 80.0283 45.249C79.9181 45.1449 79.8304 45.0195 79.7704 44.8803C79.7104 44.7411 79.6794 44.5911 79.6794 44.4396C79.6794 44.288 79.7104 44.1381 79.7704 43.9989C79.8304 43.8597 79.9181 43.7342 80.0283 43.6302C80.1385 43.5261 80.2687 43.4456 80.4111 43.3937C80.5535 43.3417 80.705 43.3193 80.8563 43.328C81.016 43.3197 81.1756 43.3479 81.3228 43.4106C81.47 43.4732 81.601 43.5686 81.7058 43.6895V43.328L82.0854 43.3424ZM81.6805 44.4269C81.6884 44.2689 81.6488 44.1121 81.5668 43.9768C81.4848 43.8415 81.3641 43.7339 81.2203 43.6678C81.0766 43.6017 80.9163 43.5803 80.7602 43.6062C80.6041 43.6321 80.4593 43.7042 80.3446 43.8131C80.2299 43.9221 80.1504 44.063 80.1165 44.2175C80.0826 44.3721 80.0958 44.5332 80.1544 44.6802C80.2129 44.8272 80.3142 44.9533 80.4451 45.0422C80.576 45.131 80.7306 45.1786 80.8888 45.1788C80.9922 45.1879 81.0964 45.1753 81.1947 45.1417C81.2929 45.1081 81.3831 45.0544 81.4593 44.9839C81.5356 44.9135 81.5962 44.8278 81.6374 44.7325C81.6787 44.6372 81.6995 44.5344 81.6986 44.4305L81.6805 44.4269Z" fill="#464547"/>
<path d="M85.0641 44.3185V45.6416H84.6448V44.3511C84.6448 43.8992 84.4207 43.6787 84.0266 43.6787C83.9265 43.6721 83.8262 43.6877 83.7328 43.7243C83.6394 43.7609 83.5552 43.8176 83.4862 43.8904C83.4172 43.9632 83.365 44.0504 83.3335 44.1456C83.3019 44.2408 83.2917 44.3418 83.3036 44.4414V45.6272H82.8879V43.328H83.2892V43.6895C83.3878 43.567 83.5146 43.4702 83.6588 43.4073C83.8029 43.3443 83.9601 43.3171 84.117 43.328C84.2474 43.3193 84.3782 43.3393 84.5 43.3866C84.6218 43.4339 84.7318 43.5074 84.8222 43.6018C84.9125 43.6963 84.981 43.8095 85.0228 43.9333C85.0646 44.0571 85.0787 44.1886 85.0641 44.3185Z" fill="#464547"/>
<path d="M89.1454 43.3424V45.6416H88.7514V45.2801C88.6596 45.3984 88.5408 45.4929 88.405 45.5558C88.2691 45.6187 88.1201 45.6481 87.9706 45.6416C87.8361 45.6554 87.7003 45.6389 87.5731 45.5933C87.4459 45.5478 87.3305 45.4742 87.2355 45.3781C87.1404 45.2821 87.0682 45.1659 87.024 45.0382C86.9798 44.9105 86.9648 44.7745 86.9801 44.6402V43.3171H87.3958V44.5932C87.3958 45.0415 87.6235 45.2692 88.0176 45.2692C88.1178 45.2764 88.2184 45.2613 88.3122 45.2249C88.4059 45.1886 88.4904 45.1318 88.5595 45.0589C88.6287 44.9859 88.6808 44.8985 88.7121 44.803C88.7434 44.7075 88.7531 44.6062 88.7406 44.5065V43.3171L89.1454 43.3424Z" fill="#464547"/>
<path d="M92.3194 44.492C92.3276 44.6472 92.3033 44.8024 92.248 44.9477C92.1928 45.0929 92.1079 45.2251 91.9986 45.3357C91.8894 45.4462 91.7583 45.5328 91.6137 45.5898C91.4692 45.6469 91.3143 45.6731 91.159 45.6668C91.0064 45.6728 90.8544 45.6432 90.7152 45.5805C90.5759 45.5178 90.4531 45.4236 90.3565 45.3053V46.4911H89.9407V43.3533H90.3384V43.7148C90.4338 43.5889 90.5583 43.488 90.7012 43.4206C90.8441 43.3533 91.0011 43.3215 91.159 43.3279C91.3135 43.3213 91.4676 43.3468 91.6117 43.403C91.7558 43.4592 91.8865 43.5447 91.9957 43.6542C92.1049 43.7637 92.19 43.8948 92.2458 44.039C92.3015 44.1833 92.3266 44.3375 92.3194 44.492ZM91.9001 44.492C91.893 44.3409 91.8418 44.1951 91.7527 44.0728C91.6637 43.9505 91.5408 43.857 91.3991 43.8039C91.2575 43.7507 91.1034 43.7402 90.9559 43.7738C90.8084 43.8073 90.6739 43.8833 90.5692 43.9924C90.4644 44.1016 90.394 44.239 90.3665 44.3878C90.3391 44.5366 90.3559 44.6901 90.4148 44.8294C90.4737 44.9688 90.5722 45.0878 90.698 45.1717C90.8239 45.2556 90.9716 45.3009 91.1228 45.3017C91.2283 45.3039 91.3331 45.2842 91.4305 45.2439C91.528 45.2035 91.616 45.1434 91.689 45.0673C91.7621 44.9912 91.8186 44.9008 91.8549 44.8018C91.8912 44.7027 91.9066 44.5973 91.9001 44.492Z" fill="#464547"/>
</g>
<path d="M107.698 62.6211H60.3991V70.7187H107.698V62.6211Z" fill="white"/>
<g opacity="0.4">
<path d="M62.9874 65.3503H63.2332V67.4579H64.531V67.6712H62.9874V65.3503Z" fill="#464547"/>
<path d="M66.212 66.5902V67.6747H65.9878V67.4036C65.9221 67.5003 65.832 67.578 65.7266 67.6287C65.6213 67.6795 65.5044 67.7016 65.3878 67.6928C64.9937 67.6928 64.7515 67.4867 64.7515 67.1831C64.7515 66.8794 64.9214 66.6914 65.4239 66.6914H65.977V66.5866C65.977 66.2866 65.8071 66.1239 65.4818 66.1239C65.2705 66.1211 65.0653 66.1942 64.9034 66.3299L64.7949 66.1528C65.0013 65.9929 65.2569 65.9098 65.5179 65.9178C65.6099 65.9067 65.7031 65.9163 65.7909 65.9458C65.8787 65.9753 65.9588 66.0241 66.0253 66.0885C66.0918 66.153 66.1431 66.2315 66.1754 66.3183C66.2077 66.4051 66.2202 66.498 66.212 66.5902ZM65.977 67.1469V66.8613H65.4311C65.0913 66.8613 64.9829 66.9951 64.9829 67.1759C64.9829 67.3566 65.1456 67.5012 65.4239 67.5012C65.5418 67.5084 65.6589 67.478 65.7583 67.4143C65.8577 67.3506 65.9343 67.257 65.977 67.1469Z" fill="#464547"/>
<path d="M66.6096 67.4869L66.7145 67.3025C66.8968 67.4298 67.1139 67.4979 67.3362 67.4977C67.6688 67.4977 67.8026 67.3857 67.8026 67.2121C67.8026 66.7566 66.6747 67.1145 66.6747 66.4277C66.6747 66.1421 66.9169 65.9288 67.3615 65.9288C67.5785 65.926 67.7922 65.9822 67.9797 66.0915L67.8749 66.2795C67.7228 66.179 67.5437 66.1273 67.3615 66.1313C67.047 66.1313 66.9097 66.2542 66.9097 66.4205C66.9097 66.8904 68.0375 66.5361 68.0375 67.2049C68.0375 67.5086 67.7736 67.7038 67.3145 67.7038C67.0623 67.7093 66.8151 67.6332 66.6096 67.4869Z" fill="#464547"/>
<path d="M69.4076 67.5664C69.3049 67.6479 69.1772 67.6913 69.0461 67.6893C68.9774 67.6968 68.9078 67.6887 68.8426 67.6657C68.7774 67.6427 68.7182 67.6054 68.6693 67.5565C68.6204 67.5076 68.5831 67.4484 68.5601 67.3831C68.5371 67.3179 68.529 67.2484 68.5364 67.1796V66.1277H68.2219V65.9288H68.5364V65.5457H68.7714V65.9288H69.2992V66.1277H68.7714V67.1688C68.7652 67.2104 68.7686 67.2529 68.7812 67.2931C68.7938 67.3332 68.8154 67.37 68.8442 67.4006C68.8731 67.4313 68.9086 67.4549 68.9479 67.4699C68.9873 67.4848 69.0295 67.4906 69.0714 67.4869C69.1664 67.4897 69.259 67.4576 69.3317 67.3965L69.4076 67.5664Z" fill="#464547"/>
<path d="M72.6611 65.3503V67.6712H72.4587L70.9693 65.7878V67.6712H70.7235V65.3503H70.9259L72.4189 67.2337V65.3503H72.6611Z" fill="#464547"/>
<path d="M74.7 66.5903V67.6748H74.4686V67.4037C74.4034 67.5009 74.3133 67.579 74.2079 67.6298C74.1024 67.6806 73.9852 67.7024 73.8685 67.6929C73.4745 67.6929 73.2323 67.4868 73.2323 67.1831C73.2323 66.8795 73.4058 66.6915 73.9083 66.6915H74.4686V66.5867C74.4686 66.2866 74.2987 66.1239 73.9733 66.1239C73.7621 66.1211 73.5568 66.1943 73.3949 66.33L73.2865 66.1529C73.4925 65.9921 73.7484 65.909 74.0095 65.9179C74.1012 65.9073 74.194 65.9173 74.2813 65.9471C74.3687 65.9769 74.4483 66.0258 74.5144 66.0901C74.5805 66.1545 74.6314 66.2328 74.6635 66.3193C74.6956 66.4058 74.7081 66.4984 74.7 66.5903ZM74.465 67.147V66.8614H73.9155C73.5793 66.8614 73.4709 66.9952 73.4709 67.1759C73.4709 67.3567 73.6335 67.5013 73.9119 67.5013C74.0303 67.5093 74.1482 67.4792 74.2484 67.4155C74.3485 67.3518 74.4257 67.2577 74.4686 67.147H74.465Z" fill="#464547"/>
<path d="M78.2173 66.6589V67.6711H77.9824V66.6842C77.9824 66.3227 77.7944 66.1275 77.4799 66.1275C77.3983 66.1238 77.317 66.1378 77.2414 66.1688C77.1659 66.1997 77.0981 66.2468 77.0426 66.3067C76.9872 66.3666 76.9455 66.4379 76.9205 66.5156C76.8955 66.5933 76.8878 66.6755 76.8979 66.7565V67.6711H76.6629V66.6842C76.6629 66.3227 76.4749 66.1275 76.1568 66.1275C76.0753 66.1238 75.9939 66.1378 75.9184 66.1688C75.8428 66.1997 75.775 66.2468 75.7195 66.3067C75.6641 66.3666 75.6224 66.4379 75.5974 66.5156C75.5724 66.5933 75.5647 66.6755 75.5748 66.7565V67.6711H75.3398V65.9287H75.5531V66.2468C75.6213 66.1403 75.7163 66.0534 75.8286 65.9951C75.9409 65.9367 76.0665 65.9088 76.1929 65.9143C76.3211 65.9037 76.4494 65.9327 76.5606 65.9974C76.6718 66.062 76.7605 66.1592 76.8147 66.2758C76.8861 66.1593 76.9876 66.0642 77.1085 66.0006C77.2293 65.937 77.3652 65.9071 77.5016 65.9143C77.6005 65.9046 77.7003 65.9175 77.7936 65.9519C77.8868 65.9863 77.971 66.0415 78.0399 66.1131C78.1088 66.1848 78.1605 66.2711 78.1913 66.3657C78.222 66.4602 78.2309 66.5605 78.2173 66.6589Z" fill="#464547"/>
<path d="M80.3827 66.8722H78.9367C78.9418 66.9572 78.9636 67.0404 79.0009 67.117C79.0382 67.1936 79.0902 67.2621 79.154 67.3185C79.2178 67.3749 79.2922 67.4182 79.3727 67.4458C79.4533 67.4734 79.5385 67.4849 79.6236 67.4795C79.7239 67.4827 79.8238 67.464 79.9162 67.4247C80.0086 67.3854 80.0913 67.3264 80.1586 67.2518L80.2887 67.4036C80.1634 67.5344 80.0024 67.6254 79.8257 67.6653C79.649 67.7051 79.4645 67.692 79.2952 67.6276C79.1259 67.5632 78.9793 67.4504 78.8738 67.3032C78.7682 67.1559 78.7084 66.9809 78.7017 66.7999C78.6958 66.6848 78.7135 66.5696 78.7539 66.4617C78.7942 66.3537 78.8563 66.2551 78.9363 66.1721C79.0163 66.0891 79.1124 66.0233 79.2188 65.979C79.3252 65.9346 79.4396 65.9126 79.5549 65.9142C79.67 65.912 79.7843 65.9337 79.8906 65.9779C79.9969 66.0221 80.0929 66.088 80.1724 66.1712C80.2519 66.2545 80.3133 66.3534 80.3526 66.4616C80.3919 66.5698 80.4083 66.685 80.4008 66.7999C80.3863 66.8216 80.3827 66.8469 80.3827 66.8722ZM78.9367 66.6987H80.173C80.173 66.5347 80.1079 66.3775 79.992 66.2616C79.8761 66.1456 79.7188 66.0805 79.5549 66.0805C79.3909 66.0805 79.2337 66.1456 79.1178 66.2616C79.0018 66.3775 78.9367 66.5347 78.9367 66.6987Z" fill="#464547"/>
</g>
<path d="M107.698 51.5593H60.3991V59.6569H107.698V51.5593Z" fill="white"/>
<g opacity="0.4">
<path d="M63.2332 54.5019V55.4128H64.4334V55.6261H63.2332V56.6094H62.9874V54.2886H64.578V54.5019H63.2332Z" fill="#464547"/>
<path d="M64.9504 54.3138C64.9496 54.2792 64.9593 54.2452 64.9781 54.2161C64.9969 54.187 65.0239 54.1642 65.0558 54.1506C65.0876 54.137 65.1228 54.1333 65.1568 54.1399C65.1908 54.1465 65.222 54.1631 65.2465 54.1875C65.271 54.212 65.2876 54.2433 65.2942 54.2773C65.3008 54.3113 65.297 54.3464 65.2835 54.3783C65.2699 54.4101 65.2471 54.4372 65.218 54.456C65.1889 54.4748 65.1549 54.4844 65.1203 54.4837C65.0752 54.4837 65.032 54.4658 65.0001 54.434C64.9683 54.4021 64.9504 54.3589 64.9504 54.3138ZM65.001 54.8669H65.2359V56.6093H65.001V54.8669Z" fill="#464547"/>
<path d="M66.7723 54.8523V55.0801H66.7145C66.6314 55.076 66.5485 55.0904 66.4717 55.1222C66.3948 55.1539 66.3259 55.2023 66.27 55.2638C66.214 55.3253 66.1723 55.3984 66.1479 55.4779C66.1235 55.5573 66.117 55.6412 66.1288 55.7235V56.6128H65.8939V54.8704H66.118V55.1958C66.1805 55.0799 66.2762 54.9853 66.3927 54.9242C66.5093 54.863 66.6414 54.838 66.7723 54.8523Z" fill="#464547"/>
<path d="M66.9675 56.4104L67.0724 56.2224C67.2531 56.3534 67.471 56.4231 67.6941 56.4212C68.0267 56.4212 68.1605 56.3055 68.1605 56.1356C68.1605 55.6802 67.0326 56.038 67.0326 55.3476C67.0326 55.0656 67.2748 54.8523 67.7194 54.8523C67.9367 54.8476 68.1508 54.904 68.3376 55.015L68.2328 55.203C68.0807 55.1025 67.9016 55.0508 67.7194 55.0548C67.4049 55.0548 67.2676 55.1777 67.2676 55.344C67.2676 55.8139 68.3954 55.4596 68.3954 56.1284C68.3954 56.4285 68.1316 56.6237 67.6724 56.6237C67.4207 56.6302 67.1735 56.5554 66.9675 56.4104Z" fill="#464547"/>
<path d="M69.7691 56.5045C69.6653 56.5834 69.538 56.6254 69.4076 56.6238C69.3391 56.6318 69.2696 56.6243 69.2043 56.6018C69.1391 56.5792 69.0798 56.5422 69.0308 56.4936C68.9818 56.445 68.9444 56.3859 68.9214 56.3208C68.8984 56.2558 68.8904 56.1863 68.8979 56.1177V55.0658H68.5834V54.8669H68.8979V54.4729H69.1329V54.8561H69.6607V55.0549H69.1329V56.0924C69.1268 56.1342 69.1302 56.1768 69.1428 56.2171C69.1554 56.2574 69.1769 56.2944 69.2057 56.3253C69.2345 56.3562 69.2699 56.3802 69.3092 56.3956C69.3485 56.4109 69.3908 56.4173 69.4329 56.4141C69.5276 56.4154 69.6197 56.3834 69.6932 56.3238L69.7691 56.5045Z" fill="#464547"/>
<path d="M73.0226 54.2886V56.6094H72.8202L71.3308 54.726V56.6094H71.085V54.2886H71.2874L72.7804 56.172V54.2886H73.0226Z" fill="#464547"/>
<path d="M75.0578 55.5283V56.6128H74.8301V56.3417C74.7653 56.4383 74.6758 56.5157 74.5709 56.5659C74.4659 56.6161 74.3495 56.6373 74.2336 56.6273C73.836 56.6273 73.5938 56.4249 73.5938 56.1212C73.5938 55.8175 73.7673 55.6296 74.2698 55.6296H74.8301V55.5211C74.8301 55.2247 74.6602 55.062 74.3349 55.062C74.1236 55.0592 73.9184 55.1323 73.7565 55.2681L73.648 55.0909C73.8541 54.9305 74.1099 54.8473 74.371 54.8559C74.4625 54.8453 74.5553 54.8552 74.6424 54.8851C74.7296 54.9149 74.809 54.9638 74.8749 55.0282C74.9407 55.0927 74.9913 55.171 75.023 55.2576C75.0546 55.3441 75.0665 55.4366 75.0578 55.5283ZM74.8229 56.085V55.7995H74.2734C73.9372 55.7995 73.8288 55.9332 73.8288 56.1103C73.8288 56.2875 73.9914 56.4393 74.2698 56.4393C74.3887 56.4476 74.5072 56.4176 74.608 56.3539C74.7087 56.2902 74.7865 56.196 74.8301 56.085H74.8229Z" fill="#464547"/>
<path d="M78.5752 55.5971V56.6093H78.3402V55.6224C78.3402 55.2609 78.1523 55.0657 77.8378 55.0657C77.7562 55.0619 77.6748 55.076 77.5993 55.1069C77.5238 55.1379 77.4559 55.1849 77.4005 55.2449C77.3451 55.3048 77.3034 55.3761 77.2784 55.4538C77.2534 55.5315 77.2457 55.6137 77.2558 55.6947V56.6093H77.0208V55.6224C77.0208 55.2609 76.8328 55.0657 76.5147 55.0657C76.4331 55.0619 76.3518 55.076 76.2762 55.1069C76.2007 55.1379 76.1329 55.1849 76.0774 55.2449C76.022 55.3048 75.9803 55.3761 75.9553 55.4538C75.9303 55.5315 75.9226 55.6137 75.9327 55.6947V56.6093H75.6977V54.8669H75.9146V55.1958C75.9828 55.0892 76.0778 55.0024 76.1901 54.9441C76.3024 54.8857 76.428 54.8578 76.5544 54.8632C76.6826 54.8527 76.8109 54.8817 76.9221 54.9464C77.0333 55.011 77.122 55.1081 77.1762 55.2247C77.247 55.1077 77.3484 55.0122 77.4694 54.9485C77.5904 54.8848 77.7265 54.8553 77.8631 54.8632C77.9607 54.8545 78.059 54.8676 78.1509 54.9017C78.2428 54.9358 78.3259 54.99 78.3942 55.0603C78.4624 55.1307 78.5141 55.2154 78.5454 55.3082C78.5767 55.4011 78.5869 55.4998 78.5752 55.5971Z" fill="#464547"/>
<path d="M80.7406 55.8104H79.2946C79.2997 55.8955 79.3215 55.9786 79.3588 56.0552C79.396 56.1318 79.4481 56.2003 79.5119 56.2567C79.5757 56.3131 79.65 56.3564 79.7306 56.384C79.8112 56.4117 79.8964 56.4231 79.9814 56.4177C80.0822 56.421 80.1824 56.402 80.2749 56.362C80.3674 56.322 80.4499 56.262 80.5165 56.1864L80.6466 56.3418C80.5213 56.4726 80.3603 56.5637 80.1836 56.6035C80.0069 56.6433 79.8224 56.6302 79.6531 56.5658C79.4838 56.5014 79.3372 56.3886 79.2317 56.2414C79.1261 56.0942 79.0663 55.9191 79.0596 55.7381C79.0537 55.623 79.0714 55.5079 79.1118 55.3999C79.1521 55.2919 79.2142 55.1933 79.2942 55.1103C79.3741 55.0273 79.4703 54.9616 79.5767 54.9172C79.6831 54.8729 79.7975 54.8508 79.9128 54.8525C80.0279 54.8502 80.1422 54.8719 80.2485 54.9161C80.3548 54.9604 80.4507 55.0262 80.5303 55.1095C80.6098 55.1927 80.6711 55.2916 80.7105 55.3998C80.7498 55.508 80.7662 55.6232 80.7587 55.7381C80.7442 55.7562 80.7406 55.7815 80.7406 55.8104ZM79.2946 55.6333H80.5309C80.5309 55.4693 80.4658 55.3121 80.3499 55.1962C80.2339 55.0803 80.0767 55.0151 79.9128 55.0151C79.7488 55.0151 79.5916 55.0803 79.4757 55.1962C79.3597 55.3121 79.2946 55.4693 79.2946 55.6333Z" fill="#464547"/>
</g>
<path d="M42.6025 120.367H42.2591C42.2591 119.857 42.6821 107.913 44.7607 105.907C46.8971 103.828 49.4096 105.878 49.4312 105.907L49.2143 106.167C49.1204 106.091 46.9116 104.298 44.9957 106.167C43.0183 108.051 42.6062 120.244 42.6025 120.367Z" fill="#6F2877"/>
<path d="M42.429 122.764L42.0892 122.731C42.0892 122.587 43.434 108.228 38.232 102.256L38.4887 102.032C43.7882 108.116 42.4435 122.619 42.429 122.764Z" fill="#6F2877"/>
<path d="M42.5953 121.231C42.5519 120.551 41.5506 104.602 45.5488 100.915L45.7801 101.168C41.9012 104.732 42.9243 121.05 42.9351 121.205L42.5953 121.231Z" fill="#6F2877"/>
<path d="M42.0892 121.22C42.0892 121.112 41.9663 110.375 39.1213 108.759C38.8795 108.6 38.6028 108.501 38.3146 108.47C38.0265 108.44 37.7353 108.48 37.4657 108.586C35.7991 109.276 34.9135 112.457 34.9026 112.49L34.5737 112.399C34.6098 112.262 35.5136 109.027 37.3355 108.271C37.6529 108.144 37.9964 108.094 38.3368 108.128C38.6772 108.161 39.0046 108.276 39.2912 108.463C42.3025 110.187 42.429 120.754 42.4326 121.216L42.0892 121.22Z" fill="#6F2877"/>
<path d="M43.2605 121.227C43.2388 120.866 42.8013 112.754 45.1041 109.742C45.7186 108.943 46.3983 108.564 47.1357 108.618C48.7733 108.73 50.0277 110.95 50.0964 111.044L49.8 111.214C49.8 111.192 48.5636 109.045 47.1104 108.958C46.4995 108.911 45.9138 109.247 45.3752 109.952C43.1484 112.844 43.5966 121.126 43.6003 121.209L43.2605 121.227Z" fill="#6F2877"/>
<path d="M42.8014 122.351L42.4616 122.326C42.4616 122.131 43.9076 102.762 41.5217 99.5301L41.7964 99.3276C44.2618 102.661 42.8628 121.549 42.8014 122.351Z" fill="#6F2877"/>
<path d="M36.674 110.198C36.674 110.198 38.1489 110.744 37.7115 112.027C37.2741 113.31 32.6035 115.425 32.6035 115.425C32.6035 115.425 30.6478 113.636 32.4444 110.726C34.2411 107.816 36.6342 109.28 36.674 110.198Z" fill="#6F2877"/>
<path opacity="0.2" d="M36.674 110.198C36.674 110.198 38.1489 110.744 37.7115 112.027C37.2741 113.31 32.6035 115.425 32.6035 115.425C32.6035 115.425 30.6478 113.636 32.4444 110.726C34.2411 107.816 36.6342 109.28 36.674 110.198Z" fill="#464547"/>
<path d="M43.0906 107.754C43.0906 107.754 41.518 107.689 41.4277 109.041C41.3373 110.393 44.8257 114.145 44.8257 114.145C44.8257 114.145 47.3201 113.242 46.7851 109.862C46.25 106.482 43.481 106.919 43.0906 107.754Z" fill="#6F2877"/>
<path opacity="0.2" d="M43.0906 107.754C43.0906 107.754 41.518 107.689 41.4277 109.041C41.3373 110.393 44.8257 114.145 44.8257 114.145C44.8257 114.145 47.3201 113.242 46.7851 109.862C46.25 106.482 43.481 106.919 43.0906 107.754Z" fill="#464547"/>
<path d="M44.4209 101.269C44.4209 101.269 43.3725 101.157 43.4557 100.521C43.5388 99.8843 47.5298 98.2395 49.8831 100.882C49.8831 100.882 48.3757 103.47 46.1995 103.507C44.0232 103.543 44.4209 101.269 44.4209 101.269Z" fill="#6F2877"/>
<path opacity="0.2" d="M44.4209 101.269C44.4209 101.269 43.3725 101.157 43.4557 100.521C43.5388 99.8843 47.5298 98.2395 49.8831 100.882C49.8831 100.882 48.3757 103.47 46.1995 103.507C44.0232 103.543 44.4209 101.269 44.4209 101.269Z" fill="#464547"/>
<path d="M42.4688 99.7181C42.4688 99.7181 43.4159 100.177 43.6834 99.5915C43.9509 99.0059 41.4313 95.503 38.0296 96.5116C38.0296 96.5116 37.9392 99.5048 39.7684 100.687C41.5976 101.869 42.4688 99.7181 42.4688 99.7181Z" fill="#6F2877"/>
<path opacity="0.2" d="M42.4688 99.7181C42.4688 99.7181 43.4159 100.177 43.6834 99.5915C43.9509 99.0059 41.4313 95.503 38.0296 96.5116C38.0296 96.5116 37.9392 99.5048 39.7684 100.687C41.5976 101.869 42.4688 99.7181 42.4688 99.7181Z" fill="#464547"/>
<path d="M47.4285 109.684C47.4285 109.684 46.7055 109.099 47.4864 108.813C48.2672 108.528 52.0955 108.611 52.1352 112.403C52.1352 112.403 47.6743 113.144 47.1249 111.698C46.5754 110.252 47.4285 109.684 47.4285 109.684Z" fill="#6F2877"/>
<path opacity="0.2" d="M47.4285 109.684C47.4285 109.684 46.7055 109.099 47.4864 108.813C48.2672 108.528 52.0955 108.611 52.1352 112.403C52.1352 112.403 47.6743 113.144 47.1249 111.698C46.5754 110.252 47.4285 109.684 47.4285 109.684Z" fill="#464547"/>
<path d="M38.3188 101.175C38.3188 101.175 39.0418 100.589 38.261 100.307C37.4801 100.025 33.6519 100.101 33.6121 103.893C33.6121 103.893 38.073 104.638 38.6225 103.192C39.1719 101.746 38.3188 101.175 38.3188 101.175Z" fill="#6F2877"/>
<path opacity="0.2" d="M38.3188 101.175C38.3188 101.175 39.0418 100.589 38.261 100.307C37.4801 100.025 33.6519 100.101 33.6121 103.893C33.6121 103.893 38.073 104.638 38.6225 103.192C39.1719 101.746 38.3188 101.175 38.3188 101.175Z" fill="#464547"/>
<path d="M40.6902 104.229C40.6902 104.229 40.7553 103.506 40.1805 103.799C39.6057 104.092 37.6139 106.232 39.6816 108.275C39.6816 108.275 42.4688 106.21 41.9663 105.137C41.4638 104.063 40.6902 104.229 40.6902 104.229Z" fill="#6F2877"/>
<path opacity="0.2" d="M40.6902 104.229C40.6902 104.229 40.7553 103.506 40.1805 103.799C39.6057 104.092 37.6139 106.232 39.6816 108.275C39.6816 108.275 42.4688 106.21 41.9663 105.137C41.4638 104.063 40.6902 104.229 40.6902 104.229Z" fill="#464547"/>
<path d="M48.0792 105.242C48.0792 105.242 47.6454 104.674 48.2817 104.606C48.9179 104.537 51.752 105.292 51.0905 108.127C51.0905 108.127 47.6346 107.866 47.4755 106.681C47.3165 105.495 48.0792 105.242 48.0792 105.242Z" fill="#6F2877"/>
<path opacity="0.2" d="M48.0792 105.242C48.0792 105.242 47.6454 104.674 48.2817 104.606C48.9179 104.537 51.752 105.292 51.0905 108.127C51.0905 108.127 47.6346 107.866 47.4755 106.681C47.3165 105.495 48.0792 105.242 48.0792 105.242Z" fill="#464547"/>
<path d="M36.9306 131.732H48.1045L49.5903 120.866H35.4449L36.9306 131.732Z" fill="#464547"/>
<path opacity="0.2" d="M36.9306 131.732H48.1045L49.5903 120.866H35.4449L36.9306 131.732Z" fill="white"/>
<path d="M50.9929 119.984V121.018C50.9929 121.349 50.8611 121.667 50.6265 121.902C50.392 122.137 50.0738 122.268 49.7421 122.268H35.1557C34.8239 122.268 34.5058 122.137 34.2712 121.902C34.0367 121.667 33.9049 121.349 33.9049 121.018V119.984H50.9929Z" fill="#464547"/>
<path d="M144.1 16.9891H133.715C132.867 16.9891 132.054 17.3258 131.455 17.9251C130.856 18.5244 130.519 19.3372 130.519 20.1847V29.2222C130.518 29.6421 130.601 30.0581 130.761 30.4462C130.921 30.8343 131.157 31.1871 131.454 31.4842C131.75 31.7813 132.103 32.017 132.491 32.1778C132.879 32.3387 133.295 32.4214 133.715 32.4214H136.747L136.024 35.2737L138.916 32.4214H144.118C144.967 32.4214 145.781 32.0844 146.381 31.4844C146.981 30.8844 147.318 30.0707 147.318 29.2222V20.1847C147.318 19.7632 147.234 19.3459 147.072 18.9568C146.91 18.5676 146.673 18.2144 146.374 17.9174C146.075 17.6203 145.72 17.3854 145.33 17.2261C144.94 17.0668 144.522 16.9862 144.1 16.9891Z" fill="#6F2877"/>
<path opacity="0.7" d="M144.1 16.9891H133.715C132.867 16.9891 132.054 17.3258 131.455 17.9251C130.856 18.5244 130.519 19.3372 130.519 20.1847V29.2222C130.518 29.6421 130.601 30.0581 130.761 30.4462C130.921 30.8343 131.157 31.1871 131.454 31.4842C131.75 31.7813 132.103 32.017 132.491 32.1778C132.879 32.3387 133.295 32.4214 133.715 32.4214H136.747L136.024 35.2737L138.916 32.4214H144.118C144.967 32.4214 145.781 32.0844 146.381 31.4844C146.981 30.8844 147.318 30.0707 147.318 29.2222V20.1847C147.318 19.7632 147.234 19.3459 147.072 18.9568C146.91 18.5676 146.673 18.2144 146.374 17.9174C146.075 17.6203 145.72 17.3854 145.33 17.2261C144.94 17.0668 144.522 16.9862 144.1 16.9891Z" fill="white"/>
<path d="M138.909 28.6981C141.135 28.6981 142.94 26.8935 142.94 24.6674C142.94 22.4413 141.135 20.6367 138.909 20.6367C136.683 20.6367 134.879 22.4413 134.879 24.6674C134.879 26.8935 136.683 28.6981 138.909 28.6981Z" fill="white"/>
<path d="M138.909 19.5125C137.89 19.5125 136.893 19.8148 136.045 20.3812C135.198 20.9477 134.537 21.7527 134.147 22.6947C133.757 23.6366 133.654 24.6731 133.853 25.6731C134.052 26.6731 134.543 27.5916 135.264 28.3125C135.985 29.0335 136.904 29.5244 137.904 29.7233C138.904 29.9222 139.94 29.8201 140.882 29.43C141.824 29.0398 142.629 28.3791 143.195 27.5314C143.762 26.6836 144.064 25.687 144.064 24.6674C144.065 23.9903 143.932 23.3198 143.673 22.6941C143.414 22.0685 143.034 21.5 142.555 21.0212C142.077 20.5425 141.508 20.1628 140.883 19.9039C140.257 19.645 139.586 19.512 138.909 19.5125ZM141.834 23.1274L138.728 26.7858C138.684 26.8387 138.629 26.881 138.567 26.9098C138.504 26.9385 138.436 26.953 138.367 26.9521C138.298 26.9525 138.23 26.9378 138.168 26.9091C138.105 26.8804 138.05 26.8383 138.005 26.7858L135.985 24.4035C135.942 24.3564 135.909 24.3012 135.888 24.2412C135.867 24.1811 135.859 24.1175 135.863 24.054C135.867 23.9906 135.884 23.9287 135.913 23.8719C135.942 23.8152 135.981 23.7648 136.03 23.7238C136.078 23.6827 136.135 23.6519 136.196 23.6331C136.256 23.6143 136.32 23.6079 136.383 23.6143C136.447 23.6208 136.508 23.6399 136.564 23.6705C136.619 23.7011 136.668 23.7426 136.708 23.7926L138.367 25.7483L141.111 22.5165C141.193 22.4256 141.308 22.3702 141.43 22.362C141.553 22.3539 141.674 22.3936 141.767 22.4728C141.861 22.5521 141.92 22.6646 141.933 22.7867C141.945 22.9088 141.91 23.031 141.834 23.1274Z" fill="#6F2877"/>
<path d="M142.3 72.7504C142.3 72.7504 136.006 71.9551 126.47 74.5578C126.47 74.5578 124.937 57.5168 125.118 55.1743C125.299 52.8318 139.842 53.5187 139.842 53.5187C139.842 53.5187 140.203 60.3401 141.151 64.454C142.098 68.5678 142.792 71.9587 142.3 72.7504Z" fill="#6F2877"/>
<path opacity="0.2" d="M142.3 72.7504C142.3 72.7504 136.006 71.9551 126.47 74.5578C126.47 74.5578 124.937 57.5168 125.118 55.1743C125.299 52.8318 139.842 53.5187 139.842 53.5187C139.842 53.5187 140.203 60.3401 141.151 64.454C142.098 68.5678 142.792 71.9587 142.3 72.7504Z" fill="#464547"/>
<path d="M121.872 129.166L124.438 129.892L125.049 125.898L125.378 123.761L122.812 123.035L122.374 125.898L121.872 129.166Z" fill="#E4897B"/>
<path d="M136.628 129.375L139.274 129.726L139.3 125.898L139.318 123.519L136.668 123.172L136.65 125.898L136.628 129.375Z" fill="#E4897B"/>
<path opacity="0.2" d="M136.668 123.172L136.65 125.898H139.3L139.318 123.519L136.668 123.172Z" fill="#464547"/>
<path opacity="0.2" d="M122.374 125.898H125.049L125.378 123.761L122.812 123.035L122.374 125.898Z" fill="#464547"/>
<path d="M110.477 56.5732L107.929 55.8213L108.395 58.7313C108.395 58.7313 110.709 59.2628 110.926 58.059L110.477 56.5732Z" fill="#E4897B"/>
<path d="M105.384 56.4973L106.635 58.8615L108.395 58.7313L107.929 55.8213L105.384 56.4973Z" fill="#E4897B"/>
<path d="M113.995 57.3181L109.809 56.3818L109.429 58.4135L113.228 59.3389L113.995 57.3181Z" fill="#E4897B"/>
<path d="M126.658 55.4815L126.412 55.7743C125.884 56.3925 124.605 57.8854 123.271 59.1724C122.186 60.2207 121.102 61.1353 120.379 61.3197C118.329 61.8475 110.879 59.6532 110.879 59.6532L111.649 56.631C111.649 56.631 118.589 57.5529 119.128 57.5529C119.537 57.5529 123.759 51.4363 124.782 50.9338L126.658 55.4815Z" fill="#6F2877"/>
<path opacity="0.2" d="M126.412 55.7744C125.884 56.3925 124.605 57.8855 123.271 59.1725C123.538 57.0541 124.316 55.1092 125.339 53.8801C125.434 53.7615 125.543 53.6547 125.664 53.562L126.412 55.7744Z" fill="#464547"/>
<path d="M121.904 128.765L124.818 128.689C124.871 128.687 124.922 128.703 124.964 128.735C125.006 128.766 125.036 128.811 125.049 128.862L125.664 131.208C125.679 131.264 125.68 131.323 125.669 131.38C125.658 131.437 125.634 131.491 125.6 131.537C125.565 131.584 125.52 131.622 125.469 131.649C125.417 131.676 125.36 131.691 125.302 131.693C124.25 131.693 122.729 131.693 121.409 131.718C119.862 131.761 118.879 131.685 117.071 131.718C115.987 131.747 115.625 130.655 116.088 130.543C118.159 130.03 119.515 130.131 121.279 128.974C121.465 128.85 121.681 128.778 121.904 128.765Z" fill="#464547"/>
<path d="M121.651 129.14C121.225 129.234 120.466 129.361 120.162 129.111C120.118 129.075 120.083 129.028 120.06 128.975C120.038 128.922 120.028 128.865 120.032 128.808C120.032 128.773 120.041 128.739 120.058 128.71C120.075 128.68 120.1 128.655 120.129 128.638C120.451 128.446 121.539 128.963 121.666 129.021C121.677 129.027 121.686 129.036 121.692 129.047C121.699 129.058 121.702 129.07 121.702 129.082C121.701 129.096 121.696 129.11 121.687 129.12C121.678 129.131 121.665 129.138 121.651 129.14ZM120.205 128.739H120.184C120.172 128.746 120.162 128.756 120.155 128.768C120.148 128.78 120.144 128.794 120.144 128.808C120.141 128.845 120.147 128.883 120.161 128.917C120.176 128.952 120.198 128.982 120.227 129.007C120.397 129.148 120.838 129.162 121.424 129.046C121.001 128.869 120.411 128.663 120.213 128.739H120.205Z" fill="#6F2877"/>
<path d="M121.651 129.14H121.608C121.279 129.003 120.621 128.446 120.657 128.146C120.657 128.074 120.715 127.984 120.889 127.962C120.952 127.954 121.017 127.958 121.079 127.975C121.141 127.991 121.199 128.02 121.25 128.059C121.612 128.331 121.695 129.043 121.702 129.072C121.703 129.083 121.701 129.094 121.697 129.104C121.692 129.114 121.685 129.123 121.677 129.13L121.651 129.14ZM120.842 128.103C120.787 128.121 120.784 128.15 120.784 128.161C120.762 128.341 121.21 128.782 121.546 128.97C121.508 128.667 121.374 128.383 121.163 128.161C121.128 128.131 121.086 128.109 121.041 128.096C120.996 128.084 120.949 128.081 120.903 128.088C120.882 128.09 120.861 128.095 120.842 128.103Z" fill="#6F2877"/>
<path d="M136.733 128.765L139.647 128.689C139.7 128.687 139.752 128.703 139.794 128.734C139.837 128.766 139.868 128.811 139.882 128.862L140.493 131.208C140.508 131.264 140.51 131.323 140.5 131.381C140.489 131.438 140.465 131.492 140.43 131.539C140.395 131.585 140.35 131.624 140.298 131.65C140.247 131.677 140.189 131.691 140.131 131.693C139.079 131.693 137.557 131.693 136.234 131.718C134.691 131.761 133.704 131.685 131.896 131.718C130.812 131.747 130.45 130.655 130.913 130.543C132.984 130.03 134.336 130.131 136.1 128.974C136.289 128.849 136.507 128.776 136.733 128.765Z" fill="#464547"/>
<path d="M136.484 129.14C136.057 129.234 135.294 129.361 134.994 129.111C134.95 129.075 134.915 129.028 134.892 128.975C134.87 128.922 134.86 128.865 134.864 128.808C134.864 128.773 134.873 128.739 134.89 128.71C134.907 128.68 134.932 128.655 134.962 128.638C135.28 128.446 136.372 128.963 136.494 129.021C136.506 129.026 136.517 129.034 136.523 129.046C136.53 129.057 136.532 129.07 136.531 129.082C136.53 129.096 136.525 129.108 136.516 129.119C136.508 129.129 136.496 129.137 136.484 129.14ZM135.038 128.739H135.016C135.004 128.746 134.994 128.756 134.988 128.768C134.981 128.78 134.979 128.794 134.98 128.808C134.976 128.845 134.982 128.883 134.996 128.918C135.011 128.952 135.034 128.983 135.063 129.007C135.233 129.148 135.67 129.162 136.259 129.046C135.829 128.869 135.24 128.663 135.041 128.739H135.038Z" fill="#6F2877"/>
<path d="M136.484 129.14H136.437C136.111 129.003 135.45 128.446 135.489 128.146C135.489 128.074 135.544 127.984 135.717 127.962C135.781 127.953 135.846 127.957 135.908 127.974C135.97 127.991 136.028 128.02 136.079 128.06C136.332 128.341 136.49 128.695 136.531 129.072C136.532 129.083 136.531 129.094 136.527 129.104C136.522 129.115 136.515 129.123 136.505 129.13L136.484 129.14ZM135.67 128.103C135.62 128.121 135.616 128.15 135.616 128.161C135.591 128.342 136.043 128.783 136.379 128.971C136.337 128.668 136.204 128.385 135.996 128.161C135.96 128.131 135.918 128.109 135.873 128.097C135.828 128.084 135.781 128.081 135.735 128.089L135.67 128.103Z" fill="#6F2877"/>
<path d="M142.087 71.1958C143.489 77.2726 141.082 125.081 141.082 125.081H136.433L134.445 85.24L127.124 125.081L122.154 124.719C125.407 93.8545 128.274 75.4289 128.274 75.4289V73.1009L142.087 71.1958Z" fill="#464547"/>
<path opacity="0.4" d="M122.154 124.719L127.124 125.081L132.887 93.7171L134.445 85.24L136.433 125.081H141.082C141.082 125.081 143.489 77.2726 142.087 71.1958L128.267 73.1009V75.4289C128.267 75.4289 125.404 93.8545 122.154 124.719Z" fill="white"/>
<path d="M139.582 48.6889C139.439 51.5944 139.513 54.5065 139.802 57.401C139.997 59.4254 140.265 61.3377 140.55 63.0621C141.219 67.1073 141.978 70.1402 142.087 71.1994L128.267 73.1045C123.227 59.0061 125.125 50.8145 125.125 50.8145C126.159 50.3879 127.217 50.0257 128.296 49.73C128.523 49.6686 128.755 49.6107 128.993 49.5565C130.934 49.1746 132.896 48.9042 134.868 48.7468C135.229 48.7142 135.623 48.6889 135.992 48.6709C137.879 48.5769 139.582 48.6889 139.582 48.6889Z" fill="#464547"/>
<path d="M132.185 42.3447C132.287 44.2787 132.493 47.9082 134.101 48.83C134.101 48.83 133.1 50.7351 130.935 50.9303C129.297 51.0749 129.405 49.459 129.405 49.459C130.353 48.7541 130.128 47.5575 129.405 46.2055L132.185 42.3447Z" fill="#E4897B"/>
<path opacity="0.2" d="M131.05 43.9209L129.416 46.2056C129.588 46.518 129.733 46.8446 129.85 47.1816C130.609 46.878 131.48 45.7356 131.354 44.9078C131.314 44.5629 131.211 44.2284 131.05 43.9209Z" fill="#464547"/>
<path d="M125.136 38.4514C124.822 39.4563 124.995 41.5169 126.394 40.8481C127.793 40.1793 125.678 36.727 125.136 38.4514Z" fill="#464547"/>
<path d="M132.366 39.8107C132.522 42.3882 132.728 43.8884 131.603 45.3488C129.893 47.5431 126.582 46.7261 125.657 44.239C124.825 41.9977 124.713 38.1586 127.103 36.8572C127.632 36.5691 128.226 36.42 128.829 36.4239C129.432 36.4278 130.025 36.5847 130.55 36.8798C131.076 37.1748 131.519 37.5985 131.836 38.1111C132.154 38.6237 132.336 39.2084 132.366 39.8107Z" fill="#E4897B"/>
<path d="M130.559 38.4079V35.5159C130.559 35.5159 133.624 35.2882 133.487 36.8571C135.186 37.6994 134.383 40.3419 132.102 41.6361C130.851 40.6347 130.996 38.2272 130.996 38.2272C130.862 38.2958 130.71 38.3537 130.559 38.4079Z" fill="#464547"/>
<path d="M133.613 41.8206C133.554 42.1359 133.433 42.4362 133.256 42.7038C133.079 42.9713 132.85 43.2008 132.583 43.3786C131.86 43.8522 131.235 43.2702 131.209 42.4568C131.188 41.7338 131.531 40.5915 132.363 40.4469C132.544 40.4185 132.73 40.4357 132.904 40.4969C133.078 40.558 133.233 40.6613 133.357 40.7974C133.481 40.9335 133.569 41.0982 133.614 41.2768C133.659 41.4553 133.659 41.6422 133.613 41.8206Z" fill="#E4897B"/>
<path d="M128.56 40.9601C128.585 41.1698 128.494 41.3505 128.357 41.365C128.22 41.3794 128.09 41.224 128.064 41.0035C128.039 40.783 128.129 40.6131 128.263 40.5986C128.397 40.5841 128.534 40.736 128.56 40.9601Z" fill="#464547"/>
<path d="M126.195 41.2242C126.221 41.4339 126.13 41.6146 125.993 41.6291C125.856 41.6435 125.725 41.4881 125.7 41.2676C125.675 41.0471 125.765 40.8772 125.903 40.8627C126.04 40.8482 126.163 41.0145 126.195 41.2242Z" fill="#464547"/>
<path d="M126.958 41.2422C126.775 41.8886 126.504 42.5066 126.152 43.0786C126.308 43.1587 126.479 43.205 126.654 43.2143C126.829 43.2237 127.004 43.1959 127.168 43.1328L126.958 41.2422Z" fill="#DE5753"/>
<path d="M128.386 43.8052C128.297 43.8279 128.206 43.8448 128.115 43.8558C128.099 43.8558 128.083 43.8493 128.071 43.8378C128.06 43.8263 128.053 43.8106 128.053 43.7943C128.053 43.778 128.06 43.7624 128.071 43.7509C128.083 43.7394 128.099 43.7329 128.115 43.7329C128.375 43.7093 128.625 43.6251 128.846 43.4869C129.067 43.3488 129.252 43.1606 129.387 42.9376C129.39 42.9303 129.395 42.9237 129.401 42.9182C129.407 42.9128 129.413 42.9085 129.421 42.9058C129.428 42.9031 129.436 42.902 129.444 42.9025C129.452 42.9029 129.46 42.9051 129.467 42.9087C129.474 42.9121 129.481 42.9171 129.487 42.9232C129.492 42.9293 129.496 42.9364 129.499 42.9441C129.502 42.9519 129.503 42.9601 129.502 42.9683C129.502 42.9765 129.5 42.9845 129.496 42.9918C129.378 43.1971 129.218 43.3755 129.027 43.5156C128.836 43.6556 128.617 43.7543 128.386 43.8052Z" fill="#464547"/>
<path d="M129.196 40.118C129.174 40.1231 129.151 40.1225 129.13 40.1161C129.108 40.1098 129.089 40.098 129.073 40.0819C128.968 39.9672 128.838 39.8784 128.693 39.8225C128.548 39.7667 128.392 39.7453 128.238 39.7602C128.222 39.7638 128.205 39.7642 128.189 39.7612C128.173 39.7582 128.158 39.7519 128.144 39.7428C128.131 39.7336 128.119 39.7218 128.11 39.708C128.102 39.6942 128.096 39.6787 128.093 39.6625C128.09 39.6466 128.09 39.6303 128.093 39.6144C128.097 39.5985 128.103 39.5834 128.112 39.5699C128.121 39.5565 128.133 39.545 128.146 39.5361C128.16 39.5271 128.175 39.521 128.191 39.518C128.386 39.4947 128.584 39.5183 128.768 39.5869C128.952 39.6554 129.117 39.7668 129.25 39.912C129.262 39.9231 129.271 39.9366 129.278 39.9515C129.284 39.9664 129.287 39.9825 129.287 39.9987C129.287 40.015 129.284 40.0311 129.278 40.046C129.271 40.0609 129.262 40.0743 129.25 40.0855C129.235 40.1002 129.216 40.1113 129.196 40.118Z" fill="#464547"/>
<path d="M125.078 40.5265C125.055 40.5354 125.029 40.5354 125.006 40.5265C124.975 40.5158 124.95 40.4935 124.936 40.4644C124.922 40.4353 124.92 40.4017 124.93 40.3711C124.99 40.185 125.094 40.0161 125.233 39.8789C125.372 39.7417 125.542 39.6401 125.729 39.583C125.761 39.5748 125.794 39.5796 125.822 39.5962C125.851 39.6128 125.871 39.6399 125.879 39.6716C125.887 39.7032 125.882 39.7368 125.866 39.7649C125.849 39.7931 125.822 39.8134 125.79 39.8216C125.643 39.8671 125.508 39.9483 125.399 40.058C125.29 40.1677 125.21 40.3025 125.165 40.4506C125.158 40.4695 125.147 40.4864 125.131 40.4997C125.116 40.513 125.098 40.5222 125.078 40.5265Z" fill="#464547"/>
<path d="M131.918 39.4781C131.918 39.4781 130.11 38.8165 129.286 37.7682C129.286 37.7682 127.645 38.1984 127.309 38.8527C127.155 38.7213 127.056 38.5378 127.03 38.3375C127.004 38.1372 127.053 37.9344 127.168 37.7682C127.168 37.7682 125.939 38.0285 125.696 38.8527C125.497 38.7576 125.333 38.6009 125.229 38.4057C125.125 38.2105 125.086 37.987 125.118 37.7682C125.118 37.7682 124.572 37.9742 124.395 38.8527C124.395 38.8527 123.039 36.0258 127.518 35.216C127.18 35.101 126.824 35.0412 126.466 35.0389C126.466 35.0389 129.593 33.7772 132.07 34.9304C134.546 36.0836 134.116 38.3177 131.918 39.4781Z" fill="#464547"/>
<path d="M143.153 73.6324L138.815 74.2108C138.815 74.2108 137.026 61.7066 136.238 57.6687V49.0506L138.504 48.4541L140.261 49.0506C140.743 50.7845 141.114 52.5473 141.371 54.3284C141.584 55.6804 141.776 57.1264 141.946 58.5905C142.181 60.586 142.376 62.6176 142.542 64.5191C142.803 67.5882 142.976 70.303 143.07 71.9623C143.124 73.0034 143.153 73.6324 143.153 73.6324Z" fill="#6F2877"/>
<path d="M136.241 57.6615C136.241 57.6615 136.603 51.5775 138.508 48.4397C138.508 48.4397 138.461 47.5432 138.081 47.3986C137.702 47.254 136.241 48.1216 136.241 48.1216C136.241 48.1216 135.334 47.4998 135.135 47.789C134.936 48.0782 134.452 50.0014 136.241 57.6615Z" fill="#6F2877"/>
<path opacity="0.7" d="M136.241 57.6615C136.241 57.6615 136.603 51.5775 138.508 48.4397C138.508 48.4397 138.461 47.5432 138.081 47.3986C137.702 47.254 136.241 48.1216 136.241 48.1216C136.241 48.1216 135.334 47.4998 135.135 47.789C134.936 48.0782 134.452 50.0014 136.241 57.6615Z" fill="white"/>
<path d="M126.38 75.299L126.875 75.6605C126.875 75.6605 126.152 71.6298 126.448 61.4355C126.448 60.9439 126.481 60.4703 126.499 60.0185C126.861 51.3931 128.205 49.8242 128.307 49.7302L127.056 50.1568L124.789 50.9376C124.106 58.2941 126.38 75.299 126.38 75.299Z" fill="#6F2877"/>
<path d="M126.575 58.5325C126.575 58.5325 125.324 52.6184 125.696 50.5796C126.069 48.5407 127.403 49.4481 127.403 49.4481C127.403 49.4481 128.628 48.4576 128.993 49.5493C128.993 49.5493 127.309 50.735 126.575 58.5325Z" fill="#6F2877"/>
<path opacity="0.7" d="M126.575 58.5325C126.575 58.5325 125.324 52.6184 125.696 50.5796C126.069 48.5407 127.403 49.4481 127.403 49.4481C127.403 49.4481 128.628 48.4576 128.993 49.5493C128.993 49.5493 127.309 50.735 126.575 58.5325Z" fill="white"/>
<path opacity="0.2" d="M141.939 58.576C140.088 57.5385 139.842 54.8309 139.842 54.8309C139.954 54.7875 140.641 54.5526 141.364 54.314C141.577 55.666 141.769 57.112 141.939 58.576Z" fill="#464547"/>
<path opacity="0.2" d="M132.887 93.7172L134.445 85.2401L134.145 80.7539C134.145 80.7539 132.008 88.5333 132.887 93.7172Z" fill="#464547"/>
<path opacity="0.2" d="M143.063 71.9479C141.899 71.8684 140.894 71.7924 140.894 71.7924L140.673 67.0604C141.036 66.8334 141.472 66.7532 141.892 66.8363C142.178 66.0803 142.394 65.2999 142.539 64.5046C142.792 67.5738 142.969 70.2922 143.063 71.9479Z" fill="#464547"/>
<path d="M143.461 64.501L141.194 68.1413L142.987 69.1715L145.116 65.8927L143.461 64.501Z" fill="#E4897B"/>
<path d="M140.164 48.9927C141.689 49.159 148.174 58.059 148.46 60.7414C148.746 63.4237 144.65 68.0545 144.65 68.0545L141.917 66.4458C141.917 66.4458 144.693 62.1765 144.838 61.0233C144.982 59.8702 139.759 55.2104 139.759 55.2104C139.364 54.137 139.146 53.0064 139.115 51.863C139.043 49.9037 140.164 48.9927 140.164 48.9927Z" fill="#6F2877"/>
<path d="M140.67 67.064C140.67 67.064 143.001 67.5628 143.941 69.0305C143.941 69.0305 142.965 72.0852 142.268 72.4178C141.57 72.7503 139.842 72.7503 139.842 72.7503C139.842 72.7503 139.73 69.3522 140.67 67.064Z" fill="#6F2877"/>
</svg>
