<svg xmlns="http://www.w3.org/2000/svg" width="143" height="107" fill="none" viewBox="0 0 143 107">
  <path fill="#E0E0E0" d="M142.625 93.38H.375v.071h142.25v-.07Zm-34.806 3.02h-9.787v.072h9.787V96.4Zm-75.853.035h-5.508v.071h5.508v-.071Zm39.819-.165H60.62v.07h11.164v-.07Zm-11.449-1.016h-4.99v.072h4.99v-.072Zm60.826.037h-15.075v.072h15.075v-.072ZM67.801 80.66H12.867a1.623 1.623 0 0 1-1.621-1.629V1.614c.003-.429.176-.839.48-1.141A1.622 1.622 0 0 1 12.866 0H67.8a1.623 1.623 0 0 1 1.625 1.629V79.03a1.623 1.623 0 0 1-1.624 1.629ZM12.867.057a1.551 1.551 0 0 0-1.55 1.557v77.417a1.56 1.56 0 0 0 1.55 1.557h54.934a1.554 1.554 0 0 0 1.554-1.557V1.614A1.562 1.562 0 0 0 67.8.057H12.867ZM129.342 80.66H74.405a1.626 1.626 0 0 1-1.625-1.629V1.614A1.633 1.633 0 0 1 74.405 0h54.937a1.623 1.623 0 0 1 1.619 1.614v77.417a1.623 1.623 0 0 1-1.619 1.629ZM74.405.057a1.554 1.554 0 0 0-1.554 1.557v77.417a1.562 1.562 0 0 0 1.554 1.557h54.937a1.55 1.55 0 0 0 1.097-.457c.291-.292.455-.687.456-1.1V1.614a1.564 1.564 0 0 0-.456-1.1 1.554 1.554 0 0 0-1.097-.457H74.405Z"/>
  <path fill="#E0E0E0" d="M125.359 57.68c-3.5-5.343-.305-11.084-.837-17.028-.532-5.944-6.165-7.239-5.098-12.264 1.235-5.842-2.057-11.446-5.787-11.446s-7.018 5.59-5.784 11.437c1.067 5.034-4.552 6.332-5.098 12.265-.546 5.932 2.663 11.693-.839 17.027-3.502 5.334-2.58 12.416-.609 15.927a13.67 13.67 0 0 0 1.883 2.58 14.252 14.252 0 0 0 20.897 0 13.755 13.755 0 0 0 1.881-2.58c1.974-3.503 2.893-10.565-.609-15.918Z"/>
  <path fill="#F0F0F0" d="M113.637 61.732a1.76 1.76 0 0 1 1.252.52 1.78 1.78 0 0 1 .518 1.255V93.38h-3.539V63.507a1.776 1.776 0 0 1 1.092-1.64 1.77 1.77 0 0 1 .677-.135Z"/>
  <path fill="#E0E0E0" d="M91.39 93.38h-4.812V63.51c.002-.64.256-1.255.708-1.707a2.412 2.412 0 0 1 1.702-.71c.639.002 1.25.257 1.702.71.452.453.706 1.066.708 1.706l-.009 29.871Z"/>
  <path fill="#F0F0F0" d="M88.98 85.323c8.197 0 14.842-6.662 14.842-14.88s-6.645-14.88-14.842-14.88c-8.197 0-14.843 6.662-14.843 14.88s6.646 14.88 14.843 14.88Z"/>
  <path fill="#F0F0F0" d="M106.421 65.978c.779-3.143-1.132-6.324-4.267-7.105a5.848 5.848 0 0 0-7.087 4.278c-.779 3.143 1.132 6.324 4.267 7.104a5.849 5.849 0 0 0 7.087-4.277Zm-26.03-4.328a3.47 3.47 0 0 0-2.86-3.984 3.463 3.463 0 0 0-3.975 2.868 3.47 3.47 0 0 0 2.861 3.984 3.463 3.463 0 0 0 3.974-2.868Z"/>
  <path fill="#F0F0F0" d="M80.74 61.733c1.343 0 2.43-1.09 2.43-2.436a2.433 2.433 0 0 0-2.43-2.436 2.433 2.433 0 0 0-2.429 2.436 2.433 2.433 0 0 0 2.43 2.436Z"/>
  <path fill="#E0E0E0" d="M58.413 75.552a16.063 16.063 0 0 0-6.464 2.472c-.017-2.258-.43-4.4-1.488-6.132-1.61 1.572-2.916 3.608-3.983 5.799-.39-4.105-1.468-8.098-3.855-10.627-3.576 2.256-5.42 6.015-6.296 9.996a18.085 18.085 0 0 0-6.108-6.611c-2.188 2.31-2.888 5.505-2.828 8.779-2.486-2.903-5.246-5.168-7.938-5.433-.662 4.589.749 8.918 2.544 12.341a13.653 13.653 0 0 0 5.036 5.309 13.608 13.608 0 0 0 7.047 1.938h11.69c4.981 0 9.653-2.664 11.988-7.076 1.477-2.795 2.183-6.392.655-10.755Z"/>
  <path fill="#F0F0F0" d="M55.073 16.297c1.442-4.24.285-7.261-3.235-7.261-2.213 0-4.959 1.189-7.633 3.123-.301-1.104-1.152-1.763-2.52-1.763-2.41 0-5.73 2.042-8.334 4.923a3.978 3.978 0 0 0-2.714-1.098c-2.307-.131-5.098 1.044-7.525 2.952a1.313 1.313 0 0 0-1.07-.55c-1.328-.075-3.129 1.112-4.02 2.646-.053.094-.102.189-.153.286h37.904c.114-1.341-.123-2.46-.7-3.258Zm.117 25.753c.705-2.071.145-3.546-1.58-3.546-1.083 0-2.423.57-3.73 1.526a1.158 1.158 0 0 0-1.231-.855c-1.175 0-2.797.998-4.071 2.407a1.93 1.93 0 0 0-1.326-.536c-1.138-.066-2.49.507-3.676 1.44a.642.642 0 0 0-.509-.274c-.649-.037-1.528.542-1.963 1.292l-.077.137h18.515a2.335 2.335 0 0 0-.352-1.591Zm42.703-15.67a3.205 3.205 0 0 0-.44-.032c.136-2.067-.652-3.39-2.34-3.39-1.214 0-2.708.69-4.227 1.856.435-4.016-.959-6.626-4.117-6.626-2.543 0-5.767 1.712-8.95 4.467-.285-1.575-1.218-2.522-2.794-2.522-2.768 0-6.703 2.921-9.858 7.04a3.985 3.985 0 0 0-3.056-1.578c-2.634-.185-5.908 1.492-8.819 4.224a1.348 1.348 0 0 0-1.198-.784c-1.442-.103-3.414 1.406-4.583 3.423h52.701c1.237-3.058.253-5.733-2.319-6.078Z"/>
  <path fill="#F5F5F5" d="M71.5 106.261c30.465 0 55.162-1.446 55.162-3.229 0-1.783-24.697-3.229-55.162-3.229s-55.162 1.446-55.162 3.229c0 1.783 24.697 3.229 55.162 3.229Z"/>
  <path fill="#6F2877" d="m14.276 27.255 64.857 9.361 8.703 8.805-73.56-18.166Z"/>
  <path fill="#fff" d="m14.276 27.255 64.857 9.361 8.703 8.805-73.56-18.166Z" opacity=".6"/>
  <path fill="#6F2877" d="m14.276 27.255 64.857 9.361-3.01 12.732-61.847-22.093Z"/>
  <path fill="#000" d="m14.276 27.255 64.857 9.361-3.01 12.732-61.847-22.093Z" opacity=".2"/>
  <path fill="#6F2877" d="M74.792 12.515 78.556 30.2a1.786 1.786 0 0 1-1.366 2.113L43.596 39.5a1.777 1.777 0 0 1-2.108-1.37l-3.767-17.683a1.79 1.79 0 0 1 1.369-2.113l33.593-7.188a1.777 1.777 0 0 1 2.109 1.372v-.003Z"/>
  <path fill="#000" d="M74.792 12.515 78.556 30.2a1.786 1.786 0 0 1-1.366 2.113L43.596 39.5a1.777 1.777 0 0 1-2.108-1.37l-3.767-17.683a1.79 1.79 0 0 1 1.369-2.113l33.593-7.188a1.777 1.777 0 0 1 2.109 1.372v-.003Z" opacity=".4"/>
  <path fill="#6F2877" d="M73.964 11.357 62.74 25.17a7.219 7.219 0 0 1-8.862 1.897l-15.872-8.015a1.77 1.77 0 0 1 1.084-.721l33.594-7.188a1.769 1.769 0 0 1 1.28.214ZM14.276 27.255 67.77 40.002l8.353 9.346-61.847-22.093Z"/>
  <path fill="#fff" d="M14.276 27.255 67.77 40.002l8.353 9.346-61.847-22.093Z" opacity=".6"/>
  <path fill="#6F2877" d="m33.79 39.541-.145.246 5.953 3.496.144-.246-5.953-3.496Zm8.58 5.037-.143.246 2.14 1.258.144-.247-2.14-1.257ZM14.276 27.255 67.77 40.002 57.372 52.565l-43.096-25.31Zm71.551 29.863a.568.568 0 0 1-.21-.04l-8.712-3.457a.57.57 0 0 1-.015-1.052.568.568 0 0 1 .434-.009l8.714 3.457a.57.57 0 0 1 .153.97.568.568 0 0 1-.364.13Z"/>
  <path fill="#000" d="M85.827 57.118a.568.568 0 0 1-.21-.04l-8.712-3.457a.57.57 0 0 1-.015-1.052.568.568 0 0 1 .434-.009l8.714 3.457a.57.57 0 0 1 .153.97.568.568 0 0 1-.364.13Z" opacity=".3"/>
  <path fill="#6F2877" d="M85.313 52.11a.543.543 0 0 1-.208-.044l-4.68-1.868a.568.568 0 0 1-.324-.741.571.571 0 0 1 .742-.32l4.68 1.86a.57.57 0 0 1 .322.739.57.57 0 0 1-.532.373Z"/>
  <path fill="#fff" d="M85.313 52.11a.543.543 0 0 1-.208-.044l-4.68-1.868a.568.568 0 0 1-.324-.741.571.571 0 0 1 .742-.32l4.68 1.86a.57.57 0 0 1 .322.739.57.57 0 0 1-.532.373Z" opacity=".5"/>
  <path fill="#6F2877" d="M75.529 57.044a.597.597 0 0 1-.208-.04l-8.498-3.383a.57.57 0 1 1 .418-1.061l8.498 3.371a.57.57 0 0 1-.21 1.101v.012Z"/>
  <path fill="#000" d="M75.529 57.044a.597.597 0 0 1-.208-.04l-8.498-3.383a.57.57 0 1 1 .418-1.061l8.498 3.371a.57.57 0 0 1-.21 1.101v.012Z" opacity=".3"/>
  <path fill="#E4897B" d="M106.294 31.323a78.383 78.383 0 0 1 2.103 4.463 55.763 55.763 0 0 1 1.803 4.65l.194.607c.034.108.082.285.111.41.028.126.054.269.068.389.065.46.099.924.1 1.389.004.857-.036 1.713-.12 2.567a41.145 41.145 0 0 1-.774 4.911l-1.561-.174c-.02-1.606-.035-3.229-.092-4.812a31.67 31.67 0 0 0-.15-2.318 8.633 8.633 0 0 0-.171-1.036c-.014-.08-.037-.14-.054-.205-.017-.066-.034-.089-.063-.174l-.216-.54a95.829 95.829 0 0 0-1.946-4.346l-2.065-4.347 2.833-1.434Z"/>
  <path fill="#E4897B" d="m108.241 50.033-.729 1.366 2.327.65s.444-1.098-.085-1.965l-1.513-.051Z"/>
  <path fill="#E4897B" d="m106.622 53.367 2.139.171 1.078-1.489-2.327-.65-.89 1.968Z"/>
  <path fill="#263238" d="M96.499 21.465c-.031.169-.148.286-.256.263-.108-.023-.168-.174-.134-.34.034-.165.148-.285.256-.262.108.023.171.174.134.34Z"/>
  <path fill="#DE5753" d="M96.368 21.75c-.3.467-.663.89-1.078 1.259a.979.979 0 0 0 .76.308l.318-1.566Z"/>
  <path fill="#263238" d="M97.29 20.67a.102.102 0 0 1-.071-.032.79.79 0 0 0-.663-.268.1.1 0 0 1-.034-.194.965.965 0 0 1 .853.328.1.1 0 0 1 0 .14.101.101 0 0 1-.085.026Z"/>
  <path fill="#E4897B" d="M101.205 23.796c-.299 1.534-.598 4.34.472 5.365 0 0-.418 1.554-3.26 1.554-3.13 0-1.491-1.554-1.491-1.554 1.707-.408 1.659-1.678 1.363-2.867l2.916-2.498Z"/>
  <path fill="#263238" d="M102.107 30.128c.225-.75.472-1.609-.04-1.88-.569-.285-3.662-.599-4.728-.043-1.067.557-.763 2.082-.763 2.082l5.531-.16Z"/>
  <path fill="#6F2877" d="M108.667 101.252a.654.654 0 0 1-.5-.137.199.199 0 0 1 0-.236.227.227 0 0 1 .156-.117c.307-.069.882.325.908.342a.053.053 0 0 1 .016.023.045.045 0 0 1 .003.028.049.049 0 0 1-.012.025.045.045 0 0 1-.025.012 2.632 2.632 0 0 1-.546.06Zm-.262-.399h-.059a.133.133 0 0 0-.091.068c-.046.08-.017.114 0 .126.088.12.515.12.828.068a1.643 1.643 0 0 0-.678-.256v-.006Z"/>
  <path fill="#6F2877" d="M109.202 101.201h-.023c-.216-.12-.634-.571-.591-.81a.161.161 0 0 1 .159-.131.278.278 0 0 1 .21.062c.242.2.285.805.285.83a.05.05 0 0 1-.005.027.041.041 0 0 1-.018.019.047.047 0 0 1-.017.003Zm-.421-.856h-.011c-.066 0-.072.04-.074.052-.026.139.241.484.455.647a1.203 1.203 0 0 0-.245-.656.175.175 0 0 0-.064-.032.176.176 0 0 0-.072-.005l.011-.006Zm-12.663.907c-.268 0-.527-.037-.615-.157a.186.186 0 0 1 0-.216.242.242 0 0 1 .068-.075.242.242 0 0 1 .092-.042c.344-.094 1.078.322 1.11.339a.051.051 0 0 1 .01.078.045.045 0 0 1-.028.013c-.21.04-.423.06-.637.06Zm-.333-.405a.369.369 0 0 0-.094 0 .142.142 0 0 0-.097.069c-.037.062-.022.091 0 .108.094.131.623.14 1.016.086a2.223 2.223 0 0 0-.825-.257v-.006Z"/>
  <path fill="#6F2877" d="M96.75 101.201h-.02c-.254-.111-.752-.57-.715-.801 0-.057.049-.126.185-.14a.34.34 0 0 1 .152.011.34.34 0 0 1 .133.074c.267.217.321.782.324.808a.048.048 0 0 1-.02.045.065.065 0 0 1-.02.006.068.068 0 0 1-.02-.003Zm-.51-.856h-.031c-.088 0-.094.046-.097.057-.023.143.319.5.57.654a1.141 1.141 0 0 0-.285-.645.25.25 0 0 0-.146-.06l-.01-.006Z"/>
  <path fill="#E4897B" d="M99.048 101.15h-2.09l-.209-4.852h2.092l.207 4.852Zm12.55 0h-2.091l-1.05-4.852h2.088l1.053 4.852Z"/>
  <path fill="#263238" d="M109.359 100.907h2.347a.187.187 0 0 1 .179.146l.413 1.862a.316.316 0 0 1-.065.26.308.308 0 0 1-.243.111c-.819-.014-1.217-.063-2.25-.063-.634 0-1.943.069-2.822.069s-.99-.856-.632-.95c1.61-.354 2.216-.842 2.731-1.304a.514.514 0 0 1 .342-.131Zm-12.388 0h2.276a.186.186 0 0 1 .18.146l.412 1.862a.304.304 0 0 1-.301.371c-.823-.014-2.012-.063-3.047-.063-1.21 0-2.257.069-3.676.069-.854 0-1.096-.856-.737-.95 1.636-.36 2.97-.397 4.384-1.269a.957.957 0 0 1 .51-.166Z"/>
  <path fill="#E4897B" d="M95.967 32.84a48.018 48.018 0 0 1-5.209-.693 36.525 36.525 0 0 1-2.589-.585 20.782 20.782 0 0 1-2.606-.855c-.219-.092-.44-.191-.66-.286a5.815 5.815 0 0 1-.711-.416c-.41-.27-.763-.553-1.113-.833a54.644 54.644 0 0 1-1.991-1.725 60.042 60.042 0 0 1-3.642-3.685l1.047-1.173 4.128 2.975c.68.49 1.369.973 2.046 1.426.336.226.68.437.996.616.132.076.269.142.41.2.167.066.338.131.517.194a30.65 30.65 0 0 0 4.703 1.055 97.28 97.28 0 0 0 4.925.64l-.25 3.145Z"/>
  <path fill="#6F2877" d="M105.418 29.634c1.96.45 3.94 6.192 3.94 6.192l-4.031 2.9s-1.138-2.675-2.236-5.013c-1.15-2.45.324-4.538 2.327-4.079Z"/>
  <path fill="#000" d="M105.418 29.634c1.96.45 3.94 6.192 3.94 6.192l-4.031 2.9s-1.138-2.675-2.236-5.013c-1.15-2.45.324-4.538 2.327-4.079Z" opacity=".4"/>
  <path fill="#6F2877" d="m104.289 32.772-.8 1.794c.828 1.79 1.585 3.565 1.787 4.038-.029-2.119-.43-4.748-.987-5.832Z"/>
  <path fill="#000" d="m104.289 32.772-.8 1.794c.828 1.79 1.585 3.565 1.787 4.038-.029-2.119-.43-4.748-.987-5.832Z" opacity=".6"/>
  <path fill="#6F2877" d="M93.711 29.743s-2.225 2.518-.125 18.111h11.178c.08-1.711-.999-10.114.654-18.22a29.098 29.098 0 0 0-3.741-.473 41.24 41.24 0 0 0-4.751 0c-1.085.11-2.16.304-3.215.582Z"/>
  <path fill="#000" d="M93.711 29.743s-2.225 2.518-.125 18.111h11.178c.08-1.711-.999-10.114.654-18.22a29.098 29.098 0 0 0-3.741-.473 41.24 41.24 0 0 0-4.751 0c-1.085.11-2.16.304-3.215.582Z" opacity=".4"/>
  <path fill="#6F2877" d="M92.883 32.772c-.074.59-.13 1.289-.168 2.113a11.677 11.677 0 0 0 3.112-1.466l-2.944-.647Z"/>
  <path fill="#000" d="M92.883 32.772c-.074.59-.13 1.289-.168 2.113a11.677 11.677 0 0 0 3.112-1.466l-2.944-.647Z" opacity=".6"/>
  <path fill="#6F2877" d="M97.674 33.085c-1.497 1.33-7.21 1.195-7.21 1.195l-.187-5.544c1.929.275 3.875.416 5.824.422 3.183-.066 3.206 2.461 1.573 3.927Z"/>
  <path fill="#000" d="M97.674 33.085c-1.497 1.33-7.21 1.195-7.21 1.195l-.187-5.544c1.929.275 3.875.416 5.824.422 3.183-.066 3.206 2.461 1.573 3.927Z" opacity=".4"/>
  <path fill="#E4897B" d="m78.547 22.6-1.422-1.68-1.534 1.712s.945 1.591 2.444 1.34l.512-1.371Zm-3.459-3.639-.552 2.194 1.044 1.466 1.533-1.7-2.025-1.96Z"/>
  <path fill="#CE6F64" d="m96.75 96.3.108 2.5h2.09l-.107-2.5H96.75Zm13.798 0h-2.091l.54 2.5h2.091l-.54-2.5Z"/>
  <path fill="#263238" d="M98.007 19.395c-1.875-.856-2.467-4.658 2.928-3.708 0 0-.814.901.836 1.472 1.65.57.27 4.093-3.764 2.236Z"/>
  <path fill="#E4897B" d="M102.081 22.247c-.538 1.997-.748 3.212-1.992 4.047-1.86 1.255-4.173-.185-4.247-2.316-.066-1.914.825-4.877 2.973-5.282a2.82 2.82 0 0 1 2.623.86 2.846 2.846 0 0 1 .643 2.691Z"/>
  <path fill="#263238" d="M100.86 16.685c1.278.713 3.008 1.141 2.845 2.156-.213 1.241 1.044.465.751 2.31-.19 1.207-2.409 4.864-3.983 4.687-2.35-.285-2.05-3.868-2.06-5.756-.005-1.115-.056-4.803 2.447-3.397Z"/>
  <path fill="#263238" d="M98.132 18.285c-.569.134-1.323 3.423.882 3.725 2.535.345-.882-3.725-.882-3.725Z"/>
  <path fill="#263238" d="M98.189 19.452c-.697.063-2.276-.779-2.083-2.045 0-.009.999 1.48 2.083 2.045Z"/>
  <path fill="#E4897B" d="M99.225 22.273a2.34 2.34 0 0 1-1.033 1.098c-.6.314-.939-.143-.802-.747.122-.542.583-1.36 1.2-1.426.618-.066.882.504.635 1.075Z"/>
  <path fill="#263238" d="M102.354 19.965a2.805 2.805 0 0 0 1.645-2.09s.939 2.615-1.645 2.09Z"/>
  <path fill="#263238" d="M104.727 19.922a1.441 1.441 0 0 0-1.36-.134s.876-1.138 1.36.134Z"/>
  <path fill="#6F2877" d="M97.552 47.854s2.372 16.012 3.673 22.01c1.422 6.56 6.799 28.453 6.799 28.453h3.827s-3.542-21.354-4.356-27.868c-.882-7.06-2.731-22.606-2.731-22.606l-7.212.01Z"/>
  <path fill="#fff" d="M97.552 47.854s2.372 16.012 3.673 22.01c1.422 6.56 6.799 28.453 6.799 28.453h3.827s-3.542-21.354-4.356-27.868c-.882-7.06-2.731-22.606-2.731-22.606l-7.212.01Z" opacity=".5"/>
  <path fill="#6F2877" d="M107.412 96.903c-.017 0 .396 1.474.396 1.474h4.307l-.079-1.315-4.624-.16Z"/>
  <path fill="#000" d="M107.412 96.903c-.017 0 .396 1.474.396 1.474h4.307l-.079-1.315-4.624-.16Z" opacity=".1"/>
  <path fill="#6F2877" d="M99.051 53.558c2.743.54 2.452 10.793 2.122 16.066-.791-3.727-1.948-10.9-2.74-15.992a.934.934 0 0 1 .618-.074Z"/>
  <path fill="#fff" d="M99.051 53.558c2.743.54 2.452 10.793 2.122 16.066-.791-3.727-1.948-10.9-2.74-15.992a.934.934 0 0 1 .618-.074Z" opacity=".4"/>
  <path fill="#6F2877" d="M93.586 47.853s-.285 15.665-.06 22.056c.236 6.646 2.56 28.408 2.56 28.408h3.54s.13-21.374.284-27.9c.174-7.116 1.03-22.564 1.03-22.564h-7.354Z"/>
  <path fill="#fff" d="M93.586 47.853s-.285 15.665-.06 22.056c.236 6.646 2.56 28.408 2.56 28.408h3.54s.13-21.374.284-27.9c.174-7.116 1.03-22.564 1.03-22.564h-7.354Z" opacity=".5"/>
  <path fill="#6F2877" d="M96.82 95.767a.034.034 0 0 1-.034-.031c-.626-6.024-2.096-20.598-2.276-25.826-.19-5.337-.017-17.31.04-20.853a.034.034 0 0 1 .034-.034.04.04 0 0 1 .026.01.037.037 0 0 1 .011.024c-.057 3.543-.23 15.516-.04 20.85.185 5.228 1.656 19.797 2.276 25.82a.04.04 0 0 1-.034.04h-.002Z"/>
  <path fill="#fff" d="M96.82 95.767a.034.034 0 0 1-.034-.031c-.626-6.024-2.096-20.598-2.276-25.826-.19-5.337-.017-17.31.04-20.853a.034.034 0 0 1 .034-.034.04.04 0 0 1 .026.01.037.037 0 0 1 .011.024c-.057 3.543-.23 15.516-.04 20.85.185 5.228 1.656 19.797 2.276 25.82a.04.04 0 0 1-.034.04h-.002Z" opacity=".4"/>
  <path fill="#6F2877" d="M95.398 96.903c-.014 0 .202 1.474.202 1.474h4.304l.117-1.315-4.623-.16Z"/>
  <path fill="#000" d="M95.398 96.903c-.014 0 .202 1.474.202 1.474h4.304l.117-1.315-4.623-.16Z" opacity=".1"/>
</svg>
